ply
format ascii 1.0
element vertex 437
property float32 x
property float32 y
property float32 z
property float32 I
end_header
-8.2886 35.6016 6.4454 0.8620
-8.4471 31.0917 5.6811 0.8773
-9.3240 29.9488 5.5308 0.8804
-12.2457 21.3349 4.3376 0.9049
-12.5705 20.1576 4.1888 0.9080
-12.8745 19.0572 4.0552 0.9108
-12.4570 15.8136 3.5496 0.9215
-13.0187 15.3389 3.5475 0.9215
-13.7886 15.0919 3.6045 0.9203
-14.1666 14.4111 3.5633 0.9212
-14.2484 12.5189 3.3444 0.9259
-5.4898 45.8676 7.0768 0.8295
-6.1906 39.4481 6.1172 0.8508
-8.4500 31.1022 4.9374 0.8777
-9.8808 25.1094 4.1337 0.8966
-11.8961 22.6002 3.9126 0.9018
-12.8376 19.0025 3.5131 0.9114
-13.2130 18.0960 3.4325 0.9133
-13.2438 16.8123 3.2787 0.9170
-14.2167 14.4620 3.1067 0.9212
-4.0505 48.9372 6.3944 0.8203
-5.5299 46.2031 6.0595 0.8289
-7.5475 38.7839 5.1452 0.8527
-9.2815 29.8120 4.0659 0.8817
-13.4446 17.0673 2.8293 0.9161
-13.7396 16.1883 2.7650 0.9179
-12.1810 10.7025 2.1115 0.9367
-5.5319 46.2198 4.9986 0.8292
-6.1831 39.4000 4.2826 0.8518
-7.5039 38.5599 4.2183 0.8538
-8.2917 35.6147 3.9266 0.8632
-10.6708 27.1167 3.1292 0.8894
-11.1210 25.4867 2.9860 0.8942
-11.8963 22.6005 2.7425 0.9024
-12.2457 21.3350 2.6415 0.9058
-12.5707 20.1578 2.5510 0.9089
-13.7396 16.1883 2.2800 0.9181
-13.9838 15.3055 2.2262 0.9200
-14.9050 14.0933 2.2027 0.9208
-4.0589 49.0392 4.1655 0.8208
-5.4945 45.9076 3.9139 0.8306
-7.5040 38.5605 3.3255 0.8541
-8.2918 35.6151 3.0955 0.8635
-8.9895 33.0879 2.9025 0.8714
-9.6231 30.9094 2.7404 0.8781
-8.8493 22.4881 2.0458 0.9075
-11.1209 25.4866 2.3540 0.8944
-13.2130 18.0960 1.8968 0.9140
-13.6321 17.3052 1.8649 0.9154
-13.7396 16.1883 1.7974 0.9183
-14.6746 14.9279 1.7720 0.9194
-14.9313 14.1182 1.7395 0.9208
-14.6125 12.8388 1.6466 0.9249
-6.9013 29.6429 1.8873 0.8852
-10.3260 29.3439 1.9290 0.8828
-10.6707 27.1166 1.8070 0.8898
-11.8962 22.6005 1.5838 0.9027
-12.3928 21.5912 1.5437 0.9050
-12.5604 20.1414 1.4719 0.9093
-12.8745 19.0572 1.4261 0.9119
-13.2130 18.0960 1.3894 0.9141
-13.6551 17.3345 1.3684 0.9154
-13.9838 15.3055 1.2856 0.9203
-14.9313 14.1182 1.2743 0.9209
-5.5032 45.9795 1.8260 0.8308
-7.5738 38.9193 1.5634 0.8532
-6.9013 29.6429 1.2001 0.8853
-9.6509 30.9985 1.2802 0.8781
-10.3260 29.3439 1.2266 0.8829
-10.6641 27.0998 1.1483 0.8900
-9.4720 19.7100 0.8623 0.9162
-9.7271 18.4795 0.8234 0.9198
-10.0749 17.5529 0.7980 0.9222
-10.8338 14.8376 0.7244 0.9291
-11.0576 14.0370 0.7046 0.9310
-11.4715 12.5558 0.6706 0.9342
-12.0273 10.5674 0.6313 0.9379
-5.3868 34.3261 0.5869 0.8702
-6.8079 29.2417 0.5072 0.8868
-7.3842 27.1795 0.4758 0.8934
-7.8940 25.3556 0.4486 0.8992
-8.3493 23.7267 0.4249 0.9043
-9.1316 20.9276 0.3857 0.9127
-9.4720 19.7100 0.3694 0.9162
-9.7271 18.4795 0.3528 0.9198
-10.0749 17.5529 0.3419 0.9222
-10.3445 16.5881 0.3302 0.9248
-10.5967 15.6857 0.3198 0.9271
-11.0576 14.0370 0.3018 0.9310
-11.2028 13.1994 0.2924 0.9331
-11.8494 11.2041 0.2755 0.9368
-12.0273 10.5674 0.2704 0.9380
-3.8691 46.7457 -0.2641 0.8289
-5.4947 45.9085 -0.2603 0.8311
-6.1491 31.5986 -0.1812 0.8792
-7.3843 27.1795 -0.1586 0.8935
-8.7594 22.2595 -0.1347 0.9087
-9.1317 20.9276 -0.1286 0.9127
-9.4720 19.7100 -0.1231 0.9162
-9.7271 18.4795 -0.1176 0.9199
-10.0749 17.5529 -0.1139 0.9222
-10.3445 16.5881 -0.1101 0.9248
-11.2028 13.1994 -0.0975 0.9331
-11.4715 12.5558 -0.0958 0.9342
-11.6644 11.8658 -0.0937 0.9356
-11.8494 11.2041 -0.0918 0.9369
-12.0273 10.5674 -0.0901 0.9380
-2.1999 47.7486 -1.3460 0.8259
-5.4947 45.9084 -1.3019 0.8311
-6.8079 29.2416 -0.8454 0.8868
-7.3842 27.1795 -0.7931 0.8934
-9.4720 19.7100 -0.6158 0.9162
-10.0749 17.5529 -0.5699 0.9222
-10.3445 16.5881 -0.5505 0.9248
-10.8338 14.8376 -0.5173 0.9291
-11.2028 13.1994 -0.4875 0.9331
-11.8494 11.2041 -0.4592 0.9368
2.8900 28.7686 -1.4663 0.8907
1.8371 28.8552 -1.4663 0.8907
0.7817 28.9032 -1.4663 0.8907
-1.3307 28.8834 -1.4664 0.8906
-2.3850 28.8157 -1.4664 0.8906
-3.4361 28.7094 -1.4664 0.8906
-6.5564 28.1617 -1.4664 0.8906
-7.8940 25.3556 -1.3468 0.8991
-8.7594 22.2595 -1.2131 0.9086
-9.1316 20.9276 -1.1580 0.9126
-10.0749 17.5529 -1.0264 0.9221
-10.3445 16.5881 -0.9914 0.9247
-11.2028 13.1994 -0.8780 0.9330
-11.4715 12.5558 -0.8625 0.9342
-11.8493 11.2041 -0.8270 0.9368
-12.0273 10.5674 -0.8119 0.9379
1.9989 19.8981 -1.4663 0.9229
1.2706 19.9579 -1.4663 0.9229
-0.1900 19.9976 -1.4663 0.9229
-2.3766 19.8570 -1.4663 0.9229
-3.1005 19.7570 -1.4664 0.9229
-3.8201 19.6306 -1.4664 0.9229
-4.5348 19.4780 -1.4664 0.9229
-5.9449 19.0950 -1.4664 0.9229
-6.6386 18.8652 -1.4664 0.9229
-7.3233 18.6101 -1.4664 0.9229
-8.6627 18.0259 -1.4664 0.9229
-9.3154 17.6974 -1.4664 0.9229
-10.3445 16.5881 -1.4334 0.9246
-11.0575 14.0370 -1.3102 0.9308
-12.0273 10.5674 -1.1739 0.9378
1.5266 15.1969 -1.4663 0.9405
0.9704 15.2425 -1.4663 0.9405
-0.7029 15.2573 -1.4663 0.9405
-1.2599 15.2215 -1.4663 0.9405
-1.8151 15.1654 -1.4663 0.9405
-2.9175 14.9924 -1.4663 0.9405
-3.4633 14.8759 -1.4664 0.9405
-5.0700 14.4078 -1.4664 0.9405
-5.5930 14.2130 -1.4664 0.9405
-6.1085 13.9992 -1.4664 0.9405
-7.1144 13.5159 -1.4664 0.9405
-7.6034 13.2470 -1.4664 0.9405
-8.0823 12.9604 -1.4664 0.9405
-8.5504 12.6566 -1.4664 0.9405
1.2338 12.2824 -1.4663 0.9515
0.3337 12.3397 -1.4663 0.9515
-0.1173 12.3437 -1.4663 0.9515
-0.5681 12.3312 -1.4663 0.9515
-1.4670 12.2569 -1.4663 0.9515
-1.9138 12.1951 -1.4663 0.9515
-2.3580 12.1171 -1.4663 0.9515
-3.2365 11.9126 -1.4663 0.9515
-3.6694 11.7864 -1.4664 0.9515
-4.5203 11.4871 -1.4664 0.9515
-4.9369 11.3143 -1.4664 0.9515
-5.7499 10.9237 -1.4664 0.9515
-6.1452 10.7064 -1.4664 0.9515
-7.2796 9.9699 -1.4664 0.9515
-7.6390 9.6973 -1.4664 0.9515
-8.9699 8.4814 -1.4664 0.9515
1.0344 10.2970 -1.4663 0.9591
0.6575 10.3279 -1.4663 0.9591
0.2798 10.3451 -1.4663 0.9591
-0.0983 10.3484 -1.4663 0.9591
-0.4763 10.3379 -1.4663 0.9591
-1.2299 10.2756 -1.4663 0.9591
-1.6044 10.2238 -1.4663 0.9591
-1.9769 10.1584 -1.4663 0.9591
-2.3466 10.0794 -1.4663 0.9591
-3.0763 9.8812 -1.4663 0.9591
-3.4353 9.7622 -1.4663 0.9591
-4.1389 9.4854 -1.4664 0.9591
-4.8204 9.1579 -1.4664 0.9591
-5.4763 8.7815 -1.4664 0.9591
-5.7934 8.5756 -1.4664 0.9591
-6.1029 8.3583 -1.4664 0.9591
-6.4041 8.1297 -1.4664 0.9591
-6.6969 7.8904 -1.4664 0.9591
-6.9806 7.6405 -1.4664 0.9591
0.5655 8.8829 -1.4663 0.9646
-1.3799 8.7933 -1.4663 0.9646
-1.7002 8.7370 -1.4663 0.9646
-2.0183 8.6691 -1.4663 0.9646
-2.9546 8.3963 -1.4663 0.9646
-3.5598 8.1582 -1.4663 0.9646
-3.8554 8.0227 -1.4663 0.9646
-4.1460 7.8765 -1.4663 0.9646
-4.4309 7.7198 -1.4664 0.9646
-4.7100 7.5528 -1.4664 0.9646
-5.2489 7.1887 -1.4664 0.9646
-5.5080 6.9922 -1.4664 0.9646
-5.7598 6.7863 -1.4664 0.9646
-6.6868 5.8751 -1.4664 0.9646
0.7797 7.7621 -1.4663 0.9687
0.4957 7.7854 -1.4663 0.9687
-0.3591 7.7929 -1.4663 0.9687
-0.6435 7.7746 -1.4663 0.9687
-0.9271 7.7460 -1.4663 0.9687
-2.0453 7.5284 -1.4663 0.9687
-3.1200 7.1503 -1.4663 0.9687
-3.6337 6.9034 -1.4663 0.9687
-4.3672 6.4644 -1.4664 0.9687
-4.6004 6.3006 -1.4664 0.9687
-4.8275 6.1283 -1.4664 0.9687
-5.2621 5.7595 -1.4664 0.9687
-5.6686 5.3599 -1.4664 0.9687
0.6934 6.9021 -1.4663 0.9720
0.4407 6.9229 -1.4663 0.9720
0.1875 6.9343 -1.4663 0.9720
-0.3193 6.9296 -1.4663 0.9720
-0.5722 6.9133 -1.4663 0.9720
-0.8244 6.8878 -1.4663 0.9720
-1.8187 6.6943 -1.4663 0.9720
-3.6707 5.8863 -1.4663 0.9720
-3.8833 5.7482 -1.4663 0.9720
-4.0907 5.6025 -1.4663 0.9720
-4.2927 5.4493 -1.4663 0.9720
-4.4889 5.2889 -1.4663 0.9720
-4.6791 5.1214 -1.4664 0.9720
-4.8631 4.9470 -1.4664 0.9720
-5.0406 4.7661 -1.4664 0.9720
-5.2113 4.5787 -1.4664 0.9720
0.6236 6.2078 -1.4663 0.9747
0.3964 6.2264 -1.4663 0.9747
0.1687 6.2367 -1.4663 0.9747
-0.0593 6.2388 -1.4663 0.9747
-0.7414 6.1949 -1.4663 0.9747
-0.9673 6.1637 -1.4663 0.9747
-1.1918 6.1242 -1.4663 0.9747
-1.4147 6.0766 -1.4663 0.9747
-2.0710 5.8853 -1.4663 0.9747
-2.2846 5.8058 -1.4663 0.9747
-2.4952 5.7184 -1.4663 0.9747
-2.7024 5.6235 -1.4663 0.9747
-2.9061 5.5210 -1.4663 0.9747
-3.3014 5.2941 -1.4663 0.9747
-3.8608 4.9011 -1.4663 0.9747
-4.0373 4.7568 -1.4663 0.9747
-4.2084 4.6062 -1.4663 0.9747
-4.3738 4.4493 -1.4663 0.9747
-4.5335 4.2866 -1.4663 0.9747
-4.6870 4.1181 -1.4663 0.9747
0.5661 5.6349 -1.4663 0.9769
0.3598 5.6518 -1.4663 0.9769
-0.0538 5.6630 -1.4663 0.9769
-0.2606 5.6573 -1.4663 0.9769
-0.6730 5.6231 -1.4663 0.9769
-1.0818 5.5590 -1.4663 0.9769
-1.2842 5.5158 -1.4663 0.9769
-1.6835 5.4073 -1.4663 0.9769
-1.8799 5.3422 -1.4663 0.9769
-2.6379 5.0115 -1.4663 0.9769
-3.1703 4.6928 -1.4663 0.9769
-3.3396 4.5739 -1.4663 0.9769
-3.5045 4.4488 -1.4663 0.9769
-3.6647 4.3178 -1.4663 0.9769
-3.9702 4.0387 -1.4663 0.9769
-4.2839 3.7639 -1.4765 0.9767
0.3291 5.1692 -1.4663 0.9787
-0.0492 5.1794 -1.4663 0.9787
-0.2384 5.1741 -1.4663 0.9787
-0.4272 5.1620 -1.4663 0.9787
-0.9894 5.0843 -1.4663 0.9787
-1.1745 5.0448 -1.4663 0.9787
-1.5397 4.9455 -1.4663 0.9787
-1.8967 4.8199 -1.4663 0.9787
-2.0715 4.7474 -1.4663 0.9787
-2.5785 4.4923 -1.4663 0.9787
-2.7409 4.3951 -1.4663 0.9787
-3.0545 4.1833 -1.4663 0.9787
-3.2052 4.0689 -1.4663 0.9787
-3.5877 3.9268 -1.5058 0.9781
-4.2617 3.7444 -1.6060 0.9767
0.1366 5.0496 -1.5537 0.9791
-0.2273 4.9326 -1.5188 0.9795
-0.9159 4.7066 -1.4748 0.9801
-1.0835 4.6541 -1.4698 0.9802
-1.2504 4.6024 -1.4669 0.9802
-1.5840 4.5013 -1.4677 0.9802
-1.7505 4.4485 -1.4704 0.9802
-1.9175 4.3944 -1.4747 0.9801
-2.2576 4.2891 -1.4908 0.9799
-2.4307 4.2349 -1.5019 0.9798
0.4860 4.8383 -1.6164 0.9797
-0.0461 4.8525 -1.6131 0.9798
-0.5742 4.7973 -1.6060 0.9798
-0.7441 4.7415 -1.5954 0.9800
-1.0781 4.6307 -1.5804 0.9802
-1.9091 4.3753 -1.5868 0.9801
-2.0776 4.3232 -1.5944 0.9800
-2.4131 4.2042 -1.6114 0.9798
-2.5662 4.1151 -1.6121 0.9798
-2.7164 4.0209 -1.6130 0.9798
-3.2824 3.5926 -1.6176 0.9797
-3.5384 3.3458 -1.6187 0.9797
-3.6583 3.2143 -1.6187 0.9797
0.2876 4.5174 -1.6187 0.9810
-0.7005 4.4636 -1.6157 0.9810
-0.8629 4.4339 -1.6153 0.9810
-1.0241 4.3986 -1.6150 0.9810
-1.6538 4.2027 -1.6151 0.9810
-2.3933 3.8378 -1.6174 0.9810
-3.1733 3.2281 -1.6187 0.9810
-3.4005 2.9877 -1.6187 0.9810
0.4222 4.2029 -1.6187 0.9821
0.2684 4.2155 -1.6187 0.9821
0.1142 4.2225 -1.6187 0.9821
-0.0401 4.2238 -1.6187 0.9821
-0.1944 4.2195 -1.6187 0.9821
-0.3484 4.2096 -1.6187 0.9821
-0.5020 4.1941 -1.6187 0.9821
-0.6549 4.1730 -1.6187 0.9821
-0.8069 4.1462 -1.6187 0.9821
-0.9578 4.1140 -1.6187 0.9821
-1.1075 4.0763 -1.6187 0.9821
-1.2556 4.0331 -1.6187 0.9821
-1.4021 3.9845 -1.6187 0.9821
-1.6893 3.8715 -1.6187 0.9821
-2.2352 3.5842 -1.6187 0.9821
-2.4909 3.4115 -1.6187 0.9821
-2.8492 3.1185 -1.6187 0.9821
-2.9612 3.0123 -1.6187 0.9821
-3.0693 2.9021 -1.6187 0.9821
-3.1732 2.7880 -1.6187 0.9821
0.1069 3.9537 -1.6187 0.9831
-0.0376 3.9549 -1.6187 0.9831
-0.7555 3.8823 -1.6187 0.9831
-0.8968 3.8521 -1.6187 0.9831
-1.0370 3.8168 -1.6187 0.9831
-1.3129 3.7309 -1.6187 0.9831
-1.4483 3.6804 -1.6187 0.9831
-1.8422 3.4999 -1.6187 0.9831
-2.0929 3.3560 -1.6187 0.9831
-2.2140 3.2773 -1.6187 0.9831
-2.3323 3.1943 -1.6187 0.9831
-2.5593 3.0154 -1.6187 0.9831
-2.8738 2.7174 -1.6187 0.9831
0.1004 3.7129 -1.6187 0.9839
-0.5758 3.6693 -1.6187 0.9839
-0.7095 3.6458 -1.6187 0.9839
-0.8422 3.6175 -1.6187 0.9839
-1.1041 3.5463 -1.6187 0.9839
-1.3601 3.4563 -1.6187 0.9839
-1.4854 3.4043 -1.6187 0.9839
-1.6088 3.3477 -1.6187 0.9839
-1.7300 3.2867 -1.6187 0.9839
-1.9654 3.1516 -1.6187 0.9839
-2.0792 3.0777 -1.6187 0.9839
-2.7902 2.4516 -1.6187 0.9839
0.3495 3.4795 -1.6187 0.9847
-0.1609 3.4933 -1.6187 0.9847
-0.2885 3.4851 -1.6187 0.9847
-0.5421 3.4547 -1.6187 0.9847
-0.9168 3.3747 -1.6187 0.9847
-1.1608 3.2988 -1.6187 0.9847
-1.2805 3.2542 -1.6187 0.9847
-1.3986 3.2052 -1.6187 0.9847
-1.5147 3.1520 -1.6187 0.9847
-1.6289 3.0945 -1.6187 0.9847
-2.2629 2.6662 -1.6187 0.9847
-2.6271 2.3082 -1.6187 0.9847
0.3299 3.2835 -1.6187 0.9854
0.2097 3.2933 -1.6187 0.9854
0.0892 3.2988 -1.6187 0.9854
-0.1519 3.2965 -1.6187 0.9854
-1.0954 3.1129 -1.6187 0.9854
-1.3198 3.0246 -1.6187 0.9854
-1.5371 2.9202 -1.6187 0.9854
-1.6427 2.8621 -1.6187 0.9854
-1.8473 2.7345 -1.6187 0.9854
-2.0421 2.5923 -1.6187 0.9854
-2.1354 2.5160 -1.6187 0.9854
-2.2259 2.4363 -1.6187 0.9854
-2.4791 2.1781 -1.6187 0.9854
0.3119 3.1046 -1.6187 0.9860
0.1982 3.1139 -1.6187 0.9860
0.0844 3.1191 -1.6187 0.9860
-0.0297 3.1201 -1.6187 0.9860
-0.2574 3.1096 -1.6187 0.9860
-0.4837 3.0825 -1.6187 0.9860
-0.5960 3.0628 -1.6187 0.9860
-1.4533 2.7611 -1.6187 0.9860
-1.5533 2.7062 -1.6187 0.9860
-1.6511 2.6476 -1.6187 0.9860
-1.8400 2.5200 -1.6187 0.9860
-1.9308 2.4511 -1.6187 0.9860
-2.0191 2.3789 -1.6187 0.9860
-2.1047 2.3036 -1.6187 0.9860
-2.1874 2.2252 -1.6187 0.9860
-2.3440 2.0595 -1.6187 0.9860
0.1878 2.9495 -1.6187 0.9866
0.0799 2.9544 -1.6187 0.9866
-0.0281 2.9553 -1.6187 0.9866
-0.1360 2.9523 -1.6187 0.9866
-0.5646 2.9010 -1.6187 0.9866
-0.6702 2.8785 -1.6187 0.9866
-0.7749 2.8521 -1.6187 0.9866
-0.8785 2.8219 -1.6187 0.9866
-0.9810 2.7879 -1.6187 0.9866
-1.3766 2.6153 -1.6187 0.9866
-1.5639 2.5078 -1.6187 0.9866
-2.1475 2.0306 -1.6187 0.9866
-0.9988 0.8776 -0.7282 0.9940
0.0758 2.8027 -1.6187 0.9871
-0.1290 2.8007 -1.6187 0.9871
-0.3332 2.7838 -1.6187 0.9871
-0.5355 2.7521 -1.6187 0.9871
-0.6357 2.7307 -1.6187 0.9871
-0.7351 2.7056 -1.6187 0.9871
-0.8334 2.6770 -1.6187 0.9871
-0.9307 2.6447 -1.6187 0.9871
-1.0267 2.6090 -1.6187 0.9871
-1.1213 2.5697 -1.6187 0.9871
-1.4836 2.3790 -1.6187 0.9871
-1.6533 2.2644 -1.6187 0.9871
-1.7350 2.2025 -1.6187 0.9871
-1.8143 2.1376 -1.6187 0.9871
-1.9655 1.9994 -1.6187 0.9871
-0.9204 0.8703 -0.7313 0.9942
