ply
format ascii 1.0
element vertex 505
property float32 x
property float32 y
property float32 z
property float32 I
end_header
-20.1503 -38.6328 7.6829 0.8378
-18.6732 -39.1407 7.6467 0.8385
-17.1131 -39.4257 7.5785 0.8398
-15.6295 -39.8353 7.5453 0.8405
-14.9163 -42.4004 7.9255 0.8331
-11.8066 -43.1587 7.8897 0.8338
-8.3015 -41.8583 7.5245 0.8409
-6.8502 -42.4049 7.5741 0.8399
-5.3423 -42.6754 7.5836 0.8397
-20.1959 -38.7204 6.6901 0.8380
-18.6732 -39.1407 6.6436 0.8390
-17.1131 -39.4257 6.5842 0.8404
-14.9162 -42.4004 6.8857 0.8337
-13.3304 -42.6924 6.8516 0.8344
-11.8320 -43.2518 6.8694 0.8341
-8.3015 -41.8583 6.5374 0.8414
-6.8502 -42.4049 6.5804 0.8404
-5.3423 -42.6754 6.5887 0.8403
-2.3209 -43.5096 6.6749 0.8384
-0.7789 -44.0810 6.7540 0.8366
5.7155 -45.5518 7.0330 0.8305
11.1021 -47.0573 7.4068 0.8223
-18.5696 -38.9236 5.6159 0.8403
-12.6470 -40.5037 5.5256 0.8427
-11.1903 -40.9058 5.5225 0.8428
-3.7446 -15.8921 2.1262 0.9363
-8.2723 -41.7114 5.5375 0.8424
-6.8035 -42.1158 5.5555 0.8419
-5.3234 -42.5245 5.5808 0.8412
-3.8327 -42.9922 5.6207 0.8402
-2.3143 -43.3854 5.6577 0.8392
-0.7764 -43.9360 5.7223 0.8376
5.7155 -45.5518 5.9783 0.8309
7.4504 -46.0366 6.0729 0.8285
9.2433 -46.5377 6.1786 0.8258
12.3630 -45.1421 6.0949 0.8280
14.3879 -46.0331 6.2805 0.8232
-15.6295 -39.8352 4.5950 0.8419
-14.1569 -40.2418 4.5808 0.8423
-12.7046 -40.6883 4.5772 0.8424
-11.2297 -41.0499 4.5700 0.8426
-8.3015 -41.8583 4.5824 0.8423
-6.8346 -42.3078 4.6020 0.8416
-5.3422 -42.6742 4.6182 0.8411
-1.9796 -22.2050 2.3939 0.9142
-2.3208 -43.5083 4.6786 0.8392
-0.7789 -44.0798 4.7341 0.8375
4.0319 -45.0812 4.8602 0.8335
9.2433 -46.5377 5.0949 0.8262
11.1021 -47.0573 5.1918 0.8232
13.5930 -43.4898 4.8928 0.8325
15.6282 -44.3837 5.0528 0.8275
17.6476 -44.9412 5.1846 0.8235
21.2781 -40.7669 4.9380 0.8311
-20.0810 -38.5001 3.6758 0.8400
-12.4768 -26.1526 2.4529 0.8902
-17.0916 -39.3761 3.6338 0.8417
-12.6756 -40.5953 3.6001 0.8431
-3.7439 -15.8889 1.3819 0.9366
-8.2910 -41.8057 3.6079 0.8427
-6.8189 -42.2111 3.6196 0.8423
-5.3354 -42.6206 3.6361 0.8416
-2.3151 -43.4020 3.6793 0.8399
4.0319 -45.0812 3.8315 0.8339
9.2433 -46.5377 4.0165 0.8266
11.1020 -47.0573 4.0929 0.8236
13.1684 -42.1313 3.7367 0.8376
14.7219 -41.8096 3.7523 0.8370
16.7703 -42.7072 3.8840 0.8318
21.1216 -44.2404 4.1500 0.8214
21.2781 -40.7669 3.8928 0.8314
-20.1640 -38.6593 2.7038 0.8397
-17.1131 -39.4256 2.6652 0.8418
-15.6294 -39.8352 2.6535 0.8424
-14.1569 -40.2417 2.6453 0.8429
-12.6915 -40.6463 2.6405 0.8431
-11.2297 -41.0499 2.6390 0.8432
-3.7435 -15.8872 1.0121 0.9367
-8.3015 -41.8583 2.6462 0.8428
-5.3422 -42.6742 2.6669 0.8417
-3.8413 -43.0886 2.6825 0.8408
-0.7789 -44.0798 2.7338 0.8380
4.0319 -45.0812 2.8067 0.8341
9.2433 -46.5377 2.9422 0.8268
13.9450 -39.6034 2.6036 0.8451
21.2781 -40.7669 2.8516 0.8317
-15.6294 -39.8352 1.6873 0.8426
-14.0199 -39.8524 1.6658 0.8444
-12.6915 -40.6463 1.6790 0.8433
-8.3015 -41.8583 1.6827 0.8430
-3.8413 -43.0886 1.7058 0.8410
-2.3208 -43.5083 1.7180 0.8399
4.0319 -45.0812 1.7847 0.8343
5.7155 -45.5518 1.8102 0.8321
7.4503 -46.0366 1.8389 0.8297
9.2433 -46.5377 1.8709 0.8270
11.1021 -47.0573 1.9065 0.8240
12.3501 -45.0953 1.8436 0.8293
13.1684 -42.1313 1.7405 0.8380
15.1620 -38.6115 1.6357 0.8470
16.9922 -39.1168 1.6817 0.8431
18.9310 -39.6520 1.7326 0.8387
20.9934 -40.2214 1.7890 0.8339
23.4213 -41.2237 1.8695 0.8271
-17.1131 -39.4256 0.7260 0.8420
-13.2361 -37.6244 0.6737 0.8525
-11.2297 -41.0499 0.7189 0.8434
-5.3385 -42.6443 0.7260 0.8420
-2.3208 -43.5083 0.7360 0.8400
-0.7783 -44.0433 0.7441 0.8384
4.0319 -45.0812 0.7645 0.8344
5.7155 -45.5518 0.7755 0.8322
9.2433 -46.5377 0.8015 0.8271
12.3501 -45.0953 0.7898 0.8294
18.0182 -37.7401 0.7064 0.8459
-20.1958 -38.7203 -0.2459 0.8397
-15.6294 -39.8352 -0.2409 0.8427
-3.7422 -15.8820 -0.0919 0.9368
-6.8500 -42.4037 -0.2418 0.8421
-5.3384 -42.6443 -0.2420 0.8421
-3.8413 -43.0886 -0.2436 0.8411
-2.3208 -43.5084 -0.2453 0.8401
5.7156 -45.5518 -0.2585 0.8322
9.2433 -46.5377 -0.2671 0.8271
11.1021 -47.0573 -0.2722 0.8242
12.3502 -45.0953 -0.2632 0.8294
13.1684 -42.1313 -0.2485 0.8381
14.5620 -37.0836 -0.2243 0.8527
17.1054 -35.8283 -0.2235 0.8532
18.9690 -36.3428 -0.2308 0.8488
-15.6295 -39.8352 -1.2049 0.8426
-14.2036 -40.3746 -1.2052 0.8426
-8.0642 -25.8268 -0.7619 0.8974
-1.6610 -13.2687 -0.3765 0.9479
-1.1827 -13.2661 -0.3750 0.9481
-2.3208 -43.5083 -1.2268 0.8400
4.0319 -45.0812 -1.2745 0.8343
11.1021 -47.0573 -1.3614 0.8241
12.3502 -45.0953 -1.3165 0.8294
14.5620 -37.0836 -1.1218 0.8526
16.3752 -34.2988 -1.0702 0.8589
20.0658 -35.3177 -1.1438 0.8500
-7.2139 -13.8307 -0.7911 0.9394
-6.5819 -13.7963 -0.7752 0.9406
-10.0321 -28.5169 -1.5331 0.8860
-8.0648 -25.8285 -1.3722 0.8973
-3.8041 -13.9057 -0.7311 0.9439
-3.2335 -13.7231 -0.7150 0.9451
-2.8396 -14.3182 -0.7403 0.9432
-0.2534 -14.3393 -0.7273 0.9442
0.5352 -29.7225 -1.5076 0.8878
1.5897 -29.6491 -1.5058 0.8879
2.6425 -29.5465 -1.5044 0.8880
3.6914 -29.4191 -1.5037 0.8880
4.7423 -29.3030 -1.5054 0.8879
6.8076 -28.8547 -1.5035 0.8880
7.8241 -28.5691 -1.5022 0.8881
8.8297 -28.2498 -1.5010 0.8882
10.8212 -27.5570 -1.5014 0.8882
12.7330 -26.6701 -1.4988 0.8884
13.6718 -26.1941 -1.4985 0.8884
-7.2080 -13.8195 -1.1428 0.9394
-6.6532 -13.9456 -1.1329 0.9399
-5.9777 -13.7715 -1.1008 0.9416
-6.6367 -18.8652 -1.4663 0.9229
-3.1610 -13.4155 -1.0106 0.9462
-1.6334 -13.0475 -0.9641 0.9486
-1.1467 -12.8631 -0.9469 0.9495
-0.6792 -12.7322 -0.9349 0.9501
0.2407 -13.4070 -0.9832 0.9476
1.0709 -19.9691 -1.4663 0.9229
2.4897 -19.8421 -1.4663 0.9229
3.1948 -19.7407 -1.4663 0.9229
3.8958 -19.6144 -1.4663 0.9229
4.5919 -19.4631 -1.4663 0.9229
5.2821 -19.2871 -1.4663 0.9229
5.9657 -19.0867 -1.4662 0.9229
6.6416 -18.8621 -1.4662 0.9229
7.3092 -18.6135 -1.4662 0.9229
8.6156 -18.0459 -1.4662 0.9229
9.2528 -17.7275 -1.4662 0.9229
9.8783 -17.3867 -1.4662 0.9229
-6.7076 -15.4531 -1.6173 0.9345
-6.1366 -15.6406 -1.6130 0.9347
-4.8670 -15.5872 -1.5677 0.9365
-2.1364 -13.2248 -1.2861 0.9476
-1.6393 -13.0949 -1.2670 0.9484
-1.1501 -12.9010 -1.2435 0.9493
-0.6819 -12.7828 -1.2290 0.9499
1.9015 -15.1542 -1.4663 0.9405
2.9754 -14.9803 -1.4663 0.9405
3.5070 -14.8648 -1.4663 0.9405
5.0725 -14.4058 -1.4663 0.9405
6.5801 -13.7824 -1.4662 0.9405
7.0668 -13.5393 -1.4662 0.9405
7.5445 -13.2790 -1.4662 0.9405
-5.8677 -12.2994 -1.6187 0.9466
-5.4260 -12.5005 -1.6187 0.9466
-4.5223 -12.8550 -1.6187 0.9466
-3.5957 -13.1443 -1.6187 0.9466
-3.1253 -13.2640 -1.6187 0.9466
-2.6509 -13.3668 -1.6187 0.9466
-1.6927 -13.5216 -1.6187 0.9466
-1.2100 -13.5732 -1.6187 0.9466
-0.6822 -12.7902 -1.5215 0.9497
-0.2407 -13.6249 -1.6187 0.9466
0.7297 -13.6074 -1.6187 0.9466
1.2139 -13.5727 -1.6187 0.9466
1.6965 -13.5209 -1.6187 0.9466
2.1770 -13.4519 -1.6187 0.9466
3.1290 -13.2627 -1.6187 0.9466
4.0652 -13.0062 -1.6187 0.9466
4.5258 -12.8532 -1.6187 0.9466
5.4293 -12.4984 -1.6187 0.9466
5.8710 -12.2971 -1.6187 0.9466
6.7314 -11.8479 -1.6186 0.9466
-5.2834 -10.1295 -1.6187 0.9549
-4.9192 -10.3112 -1.6187 0.9549
-4.1727 -10.6352 -1.6187 0.9549
-3.4051 -10.9052 -1.6187 0.9549
-2.6201 -11.1199 -1.6187 0.9549
-2.2224 -11.2061 -1.6187 0.9549
-1.8219 -11.2782 -1.6187 0.9549
-1.4191 -11.3359 -1.6187 0.9549
-1.0144 -11.3792 -1.6187 0.9549
-0.6085 -11.4081 -1.6187 0.9549
-0.2018 -11.4225 -1.6187 0.9549
0.2051 -11.4224 -1.6187 0.9549
0.6118 -11.4078 -1.6187 0.9549
1.0177 -11.3788 -1.6187 0.9549
1.4223 -11.3353 -1.6187 0.9549
1.8251 -11.2775 -1.6187 0.9549
2.6232 -11.1189 -1.6187 0.9549
4.1756 -10.6336 -1.6187 0.9549
4.5517 -10.4781 -1.6187 0.9549
4.9220 -10.3093 -1.6187 0.9549
5.2860 -10.1275 -1.6187 0.9549
5.6433 -9.9328 -1.6187 0.9549
-4.5441 -8.7122 -1.6187 0.9609
-4.2309 -8.8685 -1.6187 0.9609
-3.5889 -9.1471 -1.6187 0.9609
-2.9286 -9.3794 -1.6187 0.9609
-2.5927 -9.4777 -1.6187 0.9609
-2.2535 -9.5640 -1.6187 0.9609
-1.5670 -9.7002 -1.6187 0.9609
-0.8725 -9.7871 -1.6187 0.9609
-0.5234 -9.8119 -1.6187 0.9609
-0.1736 -9.8243 -1.6187 0.9609
0.1764 -9.8242 -1.6187 0.9609
0.8753 -9.7867 -1.6187 0.9609
1.2233 -9.7493 -1.6187 0.9610
1.5697 -9.6996 -1.6187 0.9610
3.5914 -9.1458 -1.6187 0.9610
3.9148 -9.0121 -1.6187 0.9610
4.8537 -8.5430 -1.6187 0.9610
-3.7082 -7.7728 -1.6187 0.9656
-3.4291 -7.8999 -1.6187 0.9656
-3.1455 -8.0170 -1.6187 0.9656
-2.8580 -8.1240 -1.6187 0.9656
-2.2724 -8.3068 -1.6187 0.9656
-1.9751 -8.3824 -1.6187 0.9656
-1.6753 -8.4475 -1.6187 0.9656
-1.3734 -8.5017 -1.6187 0.9656
-0.7647 -8.5779 -1.6187 0.9656
-0.1522 -8.6106 -1.6187 0.9656
0.7672 -8.5776 -1.6187 0.9656
1.0722 -8.5449 -1.6187 0.9656
1.3758 -8.5012 -1.6187 0.9656
1.6777 -8.4469 -1.6187 0.9656
2.2747 -8.3060 -1.6187 0.9656
3.1477 -8.0159 -1.6187 0.9656
3.4312 -7.8987 -1.6187 0.9656
-3.0491 -7.0247 -1.6187 0.9692
-2.5413 -7.2239 -1.6187 0.9692
-2.2824 -7.3098 -1.6187 0.9692
-2.0206 -7.3864 -1.6187 0.9692
-1.7563 -7.4537 -1.6187 0.9692
-1.4897 -7.5115 -1.6187 0.9692
-0.6800 -7.6276 -1.6187 0.9692
-0.4079 -7.6469 -1.6187 0.9692
-0.1353 -7.6566 -1.6187 0.9692
0.1375 -7.6565 -1.6187 0.9692
1.7584 -7.4531 -1.6187 0.9692
2.0227 -7.3858 -1.6187 0.9692
2.5433 -7.2230 -1.6187 0.9692
3.7828 -6.6581 -1.6187 0.9692
-3.1852 -6.1067 -1.6187 0.9721
-2.5156 -6.4117 -1.6187 0.9721
-2.0528 -6.5744 -1.6187 0.9721
-1.3398 -6.7559 -1.6187 0.9721
-1.0984 -6.7993 -1.6187 0.9721
0.3688 -6.8775 -1.6187 0.9721
0.6135 -6.8600 -1.6187 0.9721
1.1003 -6.7989 -1.6187 0.9721
1.3418 -6.7554 -1.6187 0.9721
2.2875 -6.4964 -1.6187 0.9721
2.7441 -6.3171 -1.6187 0.9721
2.9674 -6.2153 -1.6187 0.9721
-2.8912 -5.5432 -1.6187 0.9745
-2.4893 -5.7349 -1.6187 0.9745
-2.2835 -5.8199 -1.6187 0.9745
-1.6496 -6.0303 -1.6187 0.9745
-1.2162 -6.1324 -1.6187 0.9745
-0.9970 -6.1718 -1.6187 0.9745
-0.5551 -6.2271 -1.6187 0.9745
0.1123 -6.2508 -1.6187 0.9745
0.5569 -6.2269 -1.6187 0.9745
0.7783 -6.2031 -1.6187 0.9745
0.9988 -6.1715 -1.6187 0.9745
1.2179 -6.1320 -1.6187 0.9745
1.6513 -6.0297 -1.6187 0.9745
1.8650 -5.9671 -1.6187 0.9745
2.2851 -5.8192 -1.6187 0.9745
2.4909 -5.7341 -1.6187 0.9745
-2.6443 -5.0698 -1.6187 0.9765
-2.4621 -5.1608 -1.6187 0.9765
-2.2767 -5.2452 -1.6187 0.9765
-1.8975 -5.3939 -1.6187 0.9765
-1.3114 -5.5655 -1.6187 0.9765
-0.5077 -5.6953 -1.6187 0.9765
-0.3046 -5.7098 -1.6187 0.9765
0.3062 -5.7097 -1.6187 0.9765
0.5094 -5.6952 -1.6187 0.9765
0.7119 -5.6734 -1.6187 0.9765
0.9135 -5.6445 -1.6187 0.9765
1.5103 -5.5148 -1.6187 0.9765
1.8991 -5.3933 -1.6187 0.9765
2.0899 -5.3222 -1.6187 0.9765
2.4635 -5.1600 -1.6187 0.9765
2.8246 -4.9715 -1.6187 0.9765
-2.2661 -4.7499 -1.6187 0.9782
-2.0955 -4.8276 -1.6187 0.9782
-1.9222 -4.8992 -1.6187 0.9782
-1.5686 -5.0236 -1.6187 0.9782
-1.2070 -5.1225 -1.6187 0.9782
-0.0930 -5.2619 -1.6187 0.9782
0.4688 -5.2418 -1.6187 0.9782
0.6552 -5.2218 -1.6187 0.9782
0.8408 -5.1951 -1.6187 0.9782
1.5700 -5.0231 -1.6187 0.9782
1.7479 -4.9640 -1.6187 0.9782
1.9236 -4.8985 -1.6187 0.9782
2.5997 -4.5757 -1.6187 0.9782
-1.7786 -4.5333 -1.6187 0.9797
-1.4514 -4.6484 -1.6187 0.9797
-0.9473 -4.7767 -1.6187 0.9797
-0.6049 -4.8320 -1.6187 0.9797
-0.2594 -4.8628 -1.6187 0.9797
-0.0861 -4.8689 -1.6187 0.9797
0.2608 -4.8627 -1.6187 0.9797
0.4338 -4.8503 -1.6187 0.9797
0.9487 -4.7763 -1.6187 0.9797
1.1182 -4.7395 -1.6187 0.9797
1.4527 -4.6479 -1.6187 0.9797
2.0981 -4.3945 -1.6187 0.9797
2.2532 -4.3170 -1.6187 0.9797
2.4055 -4.2340 -1.6187 0.9797
-2.0933 -4.0134 -1.6187 0.9810
-1.8023 -4.1522 -1.6187 0.9810
-1.6533 -4.2138 -1.6187 0.9810
-1.5022 -4.2700 -1.6187 0.9810
-1.0381 -4.4059 -1.6187 0.9810
-0.8806 -4.4400 -1.6187 0.9810
-0.4019 -4.5086 -1.6187 0.9810
-0.2411 -4.5201 -1.6187 0.9810
0.0813 -4.5258 -1.6187 0.9810
0.4032 -4.5085 -1.6187 0.9810
0.5635 -4.4913 -1.6187 0.9810
0.8818 -4.4397 -1.6187 0.9810
1.0394 -4.4055 -1.6187 0.9810
1.5033 -4.2695 -1.6187 0.9810
1.8035 -4.1517 -1.6187 0.9810
-1.9534 -3.7452 -1.6187 0.9821
-1.5428 -3.9322 -1.6187 0.9821
-1.1146 -4.0743 -1.6187 0.9821
-0.9688 -4.1114 -1.6187 0.9821
-0.8217 -4.1433 -1.6187 0.9821
-0.6736 -4.1699 -1.6187 0.9821
-0.5247 -4.1913 -1.6187 0.9821
-0.3751 -4.2073 -1.6187 0.9821
-0.2250 -4.2180 -1.6187 0.9821
-0.0746 -4.2233 -1.6187 0.9821
0.0758 -4.2233 -1.6187 0.9821
0.2262 -4.2179 -1.6187 0.9821
0.3763 -4.2072 -1.6187 0.9821
0.8229 -4.1430 -1.6187 0.9821
0.9699 -4.1111 -1.6187 0.9821
1.1157 -4.0739 -1.6187 0.9821
1.2601 -4.0316 -1.6187 0.9821
1.8199 -3.8118 -1.6187 0.9821
-1.8291 -3.5068 -1.6187 0.9831
-1.4446 -3.6818 -1.6187 0.9831
-1.0436 -3.8149 -1.6187 0.9831
-0.4913 -3.9244 -1.6187 0.9831
-0.2107 -3.9494 -1.6187 0.9831
-0.0699 -3.9544 -1.6187 0.9831
0.0710 -3.9544 -1.6187 0.9831
0.2118 -3.9494 -1.6187 0.9831
0.3523 -3.9393 -1.6187 0.9831
0.4924 -3.9243 -1.6187 0.9831
0.6318 -3.9042 -1.6187 0.9831
0.7705 -3.8793 -1.6187 0.9831
1.0447 -3.8146 -1.6187 0.9831
1.1799 -3.7749 -1.6187 0.9831
1.3136 -3.7305 -1.6187 0.9831
1.4456 -3.6814 -1.6187 0.9831
1.5758 -3.6276 -1.6187 0.9831
1.7040 -3.5691 -1.6187 0.9831
-1.7177 -3.2932 -1.6187 0.9839
-1.5993 -3.3523 -1.6187 0.9839
-1.4789 -3.4071 -1.6187 0.9839
-1.3566 -3.4576 -1.6187 0.9839
-1.2326 -3.5037 -1.6187 0.9839
-1.1070 -3.5454 -1.6187 0.9839
-0.7225 -3.6432 -1.6187 0.9839
-0.5923 -3.6667 -1.6187 0.9839
-0.4614 -3.6854 -1.6187 0.9839
-0.3298 -3.6995 -1.6187 0.9839
0.0667 -3.7136 -1.6187 0.9839
0.1989 -3.7088 -1.6187 0.9839
0.3308 -3.6994 -1.6187 0.9839
0.7236 -3.6430 -1.6187 0.9839
1.2336 -3.5033 -1.6187 0.9839
1.3576 -3.4572 -1.6187 0.9839
1.6002 -3.3518 -1.6187 0.9839
1.7186 -3.2926 -1.6187 0.9839
1.8348 -3.2293 -1.6187 0.9839
-1.6172 -3.1006 -1.6187 0.9847
-1.5058 -3.1562 -1.6187 0.9847
-1.2773 -3.2554 -1.6187 0.9847
-1.0423 -3.3381 -1.6187 0.9847
-0.9227 -3.3731 -1.6187 0.9847
-0.6803 -3.4302 -1.6187 0.9847
-0.5577 -3.4522 -1.6187 0.9847
-0.4344 -3.4699 -1.6187 0.9847
0.1873 -3.4920 -1.6187 0.9847
0.3115 -3.4831 -1.6187 0.9847
0.4354 -3.4698 -1.6187 0.9847
0.6813 -3.4300 -1.6187 0.9847
0.8030 -3.4035 -1.6187 0.9847
1.1615 -3.2985 -1.6187 0.9847
1.2782 -3.2550 -1.6187 0.9847
1.5067 -3.1558 -1.6187 0.9847
1.6181 -3.1001 -1.6187 0.9847
1.7275 -3.0405 -1.6187 0.9847
-1.5261 -2.9259 -1.6187 0.9854
-1.3139 -3.0271 -1.6187 0.9854
-1.2053 -3.0720 -1.6187 0.9854
-1.0951 -3.1130 -1.6187 0.9854
-0.7568 -3.2120 -1.6187 0.9854
-0.6419 -3.2369 -1.6187 0.9854
-0.5263 -3.2577 -1.6187 0.9854
-0.2930 -3.2869 -1.6187 0.9854
-0.0583 -3.2994 -1.6187 0.9854
0.2940 -3.2868 -1.6187 0.9854
0.7577 -3.2118 -1.6187 0.9854
0.8717 -3.1827 -1.6187 0.9854
-1.3435 -2.8162 -1.6187 0.9860
-1.1396 -2.9047 -1.6187 0.9860
-0.9300 -2.9784 -1.6187 0.9860
-0.8233 -3.0097 -1.6187 0.9860
-0.4976 -3.0803 -1.6187 0.9860
-0.3876 -3.0961 -1.6187 0.9860
-0.1662 -3.1158 -1.6187 0.9860
-0.0551 -3.1197 -1.6187 0.9860
0.1671 -3.1157 -1.6187 0.9860
0.2779 -3.1078 -1.6187 0.9860
0.3885 -3.0959 -1.6187 0.9860
0.4985 -3.0801 -1.6187 0.9860
0.9308 -2.9781 -1.6187 0.9860
1.0363 -2.9431 -1.6187 0.9860
1.1405 -2.9043 -1.6187 0.9860
1.3443 -2.8158 -1.6187 0.9860
1.4438 -2.7661 -1.6187 0.9860
1.5414 -2.7129 -1.6187 0.9860
-1.3668 -2.6204 -1.6187 0.9866
-1.2726 -2.6675 -1.6187 0.9866
-1.0795 -2.7513 -1.6187 0.9866
-0.9808 -2.7880 -1.6187 0.9866
-0.8809 -2.8211 -1.6187 0.9866
-0.6778 -2.8767 -1.6187 0.9866
-0.4713 -2.9176 -1.6187 0.9866
-0.0522 -2.9550 -1.6187 0.9866
0.0531 -2.9550 -1.6187 0.9866
0.1583 -2.9512 -1.6187 0.9866
0.2633 -2.9437 -1.6187 0.9866
1.2733 -2.6671 -1.6187 0.9866
1.3675 -2.6200 -1.6187 0.9866
1.4600 -2.5696 -1.6187 0.9866
-1.2966 -2.4859 -1.6187 0.9871
-1.2072 -2.5305 -1.6187 0.9871
-0.8357 -2.6763 -1.6187 0.9871
-0.7398 -2.7043 -1.6187 0.9871
-0.6430 -2.7290 -1.6187 0.9871
-0.1493 -2.7997 -1.6187 0.9871
0.0503 -2.8032 -1.6187 0.9871
0.1501 -2.7996 -1.6187 0.9871
0.2498 -2.7925 -1.6187 0.9871
0.3490 -2.7819 -1.6187 0.9871
0.5462 -2.7500 -1.6187 0.9871
0.6438 -2.7287 -1.6187 0.9871
0.7406 -2.7041 -1.6187 0.9871
0.9312 -2.6445 -1.6187 0.9871
1.2079 -2.5301 -1.6187 0.9871
1.3850 -2.4377 -1.6187 0.9871
