ply
format ascii 1.0
element vertex 421
property float32 x
property float32 y
property float32 z
property float32 I
end_header
-36.1173 -17.7236 7.0939 0.8492
-36.0244 -19.3168 7.2077 0.8470
-34.4067 -20.0762 7.0241 0.8506
-35.0793 -24.0091 7.4954 0.8414
-35.3725 -26.1276 7.7541 0.8364
-37.1548 -18.2327 6.3403 0.8458
-35.3524 -20.6280 6.2703 0.8474
-34.6536 -23.7177 6.4331 0.8437
-38.2748 -28.2714 7.2896 0.8248
-36.0845 -17.7075 5.2342 0.8503
-35.5277 -19.0504 5.2496 0.8499
-35.9347 -19.2687 4.3785 0.8487
-36.0655 -21.0441 4.4838 0.8454
-36.8121 -27.1910 4.9144 0.8318
-23.8025 -23.5558 2.0766 0.8744
-39.1656 -22.8530 0.7660 0.8341
-31.2911 -19.8013 0.6255 0.8623
-39.6371 -29.2778 0.8324 0.8211
-43.8097 -15.9026 -0.2624 0.8299
-41.1600 -16.6406 -0.2500 0.8373
-38.7471 -17.3126 -0.2389 0.8439
-31.9121 -21.8413 -0.2177 0.8567
-32.4447 -23.9650 -0.2271 0.8510
-33.1845 -26.4091 -0.2388 0.8440
-34.7362 -31.9851 -0.2659 0.8279
-43.9994 -15.9714 -1.3180 0.8292
-41.5771 -16.8093 -1.2628 0.8357
-38.8630 -17.3644 -1.1986 0.8434
-32.7684 -19.1203 -1.0683 0.8591
-31.2837 -19.7966 -1.0424 0.8623
-32.1231 -21.9857 -1.0961 0.8558
-33.4131 -26.5911 -1.2024 0.8429
-24.3426 -20.8467 -0.9024 0.8796
-25.3855 -26.9989 -1.0435 0.8622
-26.1986 -29.9545 -1.1205 0.8528
-28.7120 -38.0356 -1.3419 0.8264
-2.9824 0.2505 -0.1518 0.9881
-2.9642 0.1417 -0.1505 0.9882
-2.9504 -0.0714 -0.1497 0.9882
-2.9707 -0.1791 -0.1509 0.9882
-31.4722 -5.3443 -1.6189 0.8800
-31.0062 -7.5945 -1.6189 0.8800
-30.7127 -8.7055 -1.6189 0.8800
-30.3793 -9.8052 -1.6189 0.8800
-30.0066 -10.8922 -1.6189 0.8800
-29.1453 -13.0224 -1.6189 0.8800
-27.0521 -14.5057 -1.5567 0.8843
-25.4991 -14.8787 -1.4972 0.8885
-24.4349 -15.4627 -1.4665 0.8906
-23.8625 -16.3320 -1.4665 0.8906
-23.2591 -17.1802 -1.4665 0.8906
-21.2716 -19.5869 -1.4664 0.8906
-19.8073 -21.0662 -1.4664 0.8906
-18.2669 -22.4688 -1.4685 0.8905
-17.5034 -23.1873 -1.4733 0.8902
-16.7158 -23.8846 -1.4785 0.8898
-2.4102 0.2901 -0.1780 0.9903
-2.4094 0.2024 -0.1773 0.9903
-2.4032 0.0283 -0.1762 0.9904
-2.4083 -0.1452 -0.1769 0.9904
-2.4098 -0.2326 -0.1775 0.9903
-2.5038 -0.5185 -0.1875 0.9898
-20.7537 -7.5334 -1.6189 0.9153
-20.4691 -8.2755 -1.6189 0.9153
-19.0695 -11.1270 -1.6188 0.9153
-17.7590 -13.1176 -1.6188 0.9153
-17.2753 -13.7482 -1.6188 0.9153
-16.7693 -14.3610 -1.6188 0.9153
-15.6926 -15.5300 -1.6188 0.9153
-13.1657 -16.1942 -1.5303 0.9197
-12.2243 -16.1938 -1.4877 0.9218
-11.4669 -16.3852 -1.4664 0.9229
-9.0500 -13.9768 -1.2209 0.9354
-2.1569 0.2596 -0.2086 0.9913
-2.1546 0.1030 -0.2071 0.9914
-2.1516 0.0254 -0.2066 0.9914
-2.1528 -0.0521 -0.2067 0.9914
-2.1554 -0.1299 -0.2073 0.9914
-2.1567 -0.2081 -0.2080 0.9913
-2.1567 -0.2868 -0.2089 0.9913
-2.1994 -0.4555 -0.2156 0.9910
-16.0468 -5.1792 -1.6188 0.9345
-15.8500 -5.7534 -1.6188 0.9345
-15.3950 -6.8786 -1.6188 0.9345
-15.1374 -7.4283 -1.6188 0.9345
-14.2485 -9.0166 -1.6188 0.9345
-13.9147 -9.5235 -1.6188 0.9345
-13.5629 -10.0181 -1.6188 0.9345
-11.1005 -12.6920 -1.6188 0.9345
-10.6365 -13.0832 -1.6188 0.9345
-2.0065 0.1685 -0.2392 0.9919
-1.9979 0.0235 -0.2373 0.9920
-2.0041 -0.1208 -0.2385 0.9919
-2.0077 -0.1938 -0.2396 0.9919
-2.0305 -0.4205 -0.2463 0.9917
-2.0473 -0.5014 -0.2504 0.9915
-2.0639 -0.5850 -0.2548 0.9914
-2.0804 -0.6714 -0.2597 0.9912
-12.8100 -4.6499 -1.6188 0.9466
-12.4423 -5.5594 -1.6188 0.9466
-12.2342 -6.0036 -1.6188 0.9466
-11.5157 -7.2873 -1.6188 0.9466
-10.6631 -8.4860 -1.6188 0.9466
-9.3350 -9.9283 -1.6188 0.9466
-8.5965 -10.5740 -1.6188 0.9466
-8.2104 -10.8765 -1.6188 0.9466
-7.4067 -11.4389 -1.6188 0.9466
-1.9181 0.2309 -0.2737 0.9922
-1.9061 0.0225 -0.2701 0.9923
-1.9082 -0.0462 -0.2705 0.9923
-1.9135 -0.1154 -0.2716 0.9923
-1.9165 -0.1850 -0.2728 0.9923
-1.9189 -0.2552 -0.2743 0.9922
-1.9423 -0.4757 -0.2833 0.9920
-10.7393 -3.8983 -1.6188 0.9549
-10.4310 -4.6607 -1.6188 0.9549
-9.8678 -5.7579 -1.6188 0.9549
-9.6542 -6.1093 -1.6188 0.9549
-9.4280 -6.4528 -1.6188 0.9549
-8.9394 -7.1142 -1.6188 0.9549
-8.6776 -7.4314 -1.6188 0.9549
-8.4045 -7.7388 -1.6188 0.9549
-7.2069 -8.8647 -1.6188 0.9549
-6.8832 -9.1184 -1.6188 0.9549
-6.2094 -9.5898 -1.6187 0.9549
-1.8272 0.0874 -0.3014 0.9926
-1.8218 0.0215 -0.3001 0.9926
-1.8289 -0.1103 -0.3018 0.9926
-1.8328 -0.1769 -0.3033 0.9926
-1.8346 -0.2440 -0.3049 0.9925
-1.8404 -0.3811 -0.3096 0.9924
-1.8499 -0.4531 -0.3138 0.9923
-1.8809 -0.6828 -0.3296 0.9919
-9.1099 -3.6830 -1.6188 0.9609
-8.9715 -4.0085 -1.6188 0.9609
-8.8214 -4.3288 -1.6188 0.9609
-8.4871 -4.9522 -1.6188 0.9609
-8.3034 -5.2544 -1.6188 0.9609
-8.1088 -5.5499 -1.6188 0.9609
-7.6886 -6.1188 -1.6188 0.9609
-7.4634 -6.3915 -1.6188 0.9609
-6.9843 -6.9118 -1.6188 0.9609
-6.4689 -7.3963 -1.6188 0.9609
-6.1985 -7.6244 -1.6187 0.9609
-5.9201 -7.8425 -1.6187 0.9609
-5.3406 -8.2480 -1.6187 0.9609
-1.7564 0.2114 -0.3325 0.9928
-1.7531 0.1472 -0.3307 0.9929
-1.7490 0.0836 -0.3291 0.9929
-1.7441 0.0206 -0.3279 0.9929
-1.7459 -0.0423 -0.3283 0.9929
-1.7505 -0.1055 -0.3296 0.9929
-1.7574 -0.2984 -0.3351 0.9928
-1.7661 -0.4326 -0.3418 0.9926
-1.7802 -0.5746 -0.3516 0.9924
-7.5899 -4.0698 -1.6188 0.9656
-7.4385 -4.3404 -1.6188 0.9656
-7.2775 -4.6053 -1.6188 0.9656
-7.1070 -4.8642 -1.6188 0.9656
-6.5413 -5.6019 -1.6188 0.9656
-6.3354 -5.8337 -1.6188 0.9656
-5.8993 -6.2743 -1.6187 0.9656
-4.9379 -7.0559 -1.6187 0.9656
-4.6808 -7.2290 -1.6187 0.9656
-1.6831 0.2026 -0.3583 0.9931
-1.6802 0.1411 -0.3564 0.9931
-1.6738 -0.0405 -0.3539 0.9932
-1.6813 -0.1623 -0.3570 0.9931
-1.6839 -0.2239 -0.3591 0.9931
-1.6850 -0.2861 -0.3613 0.9930
-1.6844 -0.3488 -0.3636 0.9930
-1.6949 -0.4804 -0.3724 0.9928
-1.7002 -0.5488 -0.3776 0.9927
-6.9919 -3.1240 -1.6188 0.9692
-6.8749 -3.3737 -1.6188 0.9692
-6.6144 -3.8595 -1.6188 0.9692
-6.3196 -4.3253 -1.6188 0.9692
-5.9921 -4.7687 -1.6188 0.9692
-5.8166 -4.9812 -1.6187 0.9692
-5.4432 -5.3867 -1.6187 0.9692
-5.2457 -5.5791 -1.6187 0.9692
-4.8308 -5.9420 -1.6187 0.9692
-4.6138 -6.1120 -1.6187 0.9692
-4.3908 -6.2741 -1.6187 0.9692
-4.1622 -6.4281 -1.6187 0.9692
-1.6149 0.1944 -0.3823 0.9933
-1.6094 0.0770 -0.3787 0.9934
-1.6054 0.0189 -0.3773 0.9934
-1.6068 -0.0389 -0.3778 0.9934
-1.6105 -0.0971 -0.3792 0.9934
-1.6168 -0.2746 -0.3854 0.9933
-1.6224 -0.4599 -0.3963 0.9931
-1.6297 -0.5916 -0.4075 0.9929
-6.0700 -3.2548 -1.6188 0.9721
-5.2314 -4.4801 -1.6187 0.9721
-5.0668 -4.6655 -1.6187 0.9721
-4.8955 -4.8448 -1.6187 0.9721
-4.7180 -5.0179 -1.6187 0.9721
-4.5343 -5.1844 -1.6187 0.9721
-3.9491 -5.6430 -1.6187 0.9721
-1.5514 0.1867 -0.4046 0.9936
-1.5430 0.0182 -0.3995 0.9936
-1.5477 -0.0933 -0.4015 0.9936
-1.5528 -0.2637 -0.4078 0.9935
-1.5513 -0.3800 -0.4135 0.9934
-1.5583 -0.5030 -0.4240 0.9933
-1.5633 -0.5675 -0.4306 0.9932
-1.5676 -0.6338 -0.4378 0.9930
-1.5713 -0.7021 -0.4456 0.9929
-5.5098 -2.9545 -1.6187 0.9745
-5.3999 -3.1508 -1.6187 0.9745
-5.0288 -3.7145 -1.6187 0.9745
-4.4437 -4.3977 -1.6187 0.9745
-4.2826 -4.5548 -1.6187 0.9745
-3.9439 -4.8511 -1.6187 0.9745
-3.5847 -5.1222 -1.6187 0.9745
-1.4936 0.1798 -0.4259 0.9938
-1.4873 -0.0360 -0.4212 0.9938
-1.4949 -0.2539 -0.4293 0.9937
-1.4943 -0.3660 -0.4355 0.9936
-1.4972 -0.4244 -0.4405 0.9936
-1.5019 -0.4847 -0.4468 0.9935
-1.5058 -0.5466 -0.4535 0.9934
-1.5091 -0.6101 -0.4608 0.9933
-5.0393 -2.7021 -1.6187 0.9765
-1.6430 -0.9587 -0.5385 0.9921
-4.7187 -3.2296 -1.6187 0.9765
-4.4742 -3.5606 -1.6187 0.9765
-4.3431 -3.7194 -1.6187 0.9765
-3.7644 -4.3041 -1.6187 0.9765
-3.4450 -4.5637 -1.6187 0.9765
-1.4436 0.1212 -0.4456 0.9940
-1.4354 0.0169 -0.4415 0.9940
-1.4385 -0.0348 -0.4426 0.9940
-1.4454 -0.1922 -0.4485 0.9939
-1.4452 -0.4097 -0.4620 0.9937
-1.4487 -0.4676 -0.4682 0.9936
-1.4517 -0.5270 -0.4750 0.9936
-1.4555 -0.6503 -0.4903 0.9934
-1.4561 -0.7146 -0.4989 0.9932
-1.5483 -0.9035 -0.5514 0.9925
-4.3430 -2.9725 -1.6187 0.9782
-4.1180 -3.2772 -1.6187 0.9782
-3.8715 -3.5649 -1.6187 0.9782
-3.7407 -3.7019 -1.6187 0.9782
-3.3199 -4.0836 -1.6187 0.9782
-2.8604 -4.4176 -1.6187 0.9782
-1.3977 0.1174 -0.4663 0.9941
-1.3945 0.0667 -0.4641 0.9941
-1.3863 0.0163 -0.4608 0.9942
-1.3983 -0.1350 -0.4669 0.9941
-1.3993 -0.1861 -0.4692 0.9941
-1.3989 -0.2897 -0.4749 0.9940
-1.3988 -0.4515 -0.4886 0.9938
-1.4021 -0.5669 -0.5027 0.9936
-1.4027 -0.6268 -0.5107 0.9935
-1.4025 -0.6882 -0.5193 0.9934
-1.5957 -1.0097 -0.6277 0.9921
-3.6988 -3.1676 -1.6187 0.9797
-3.5824 -3.2987 -1.6187 0.9797
-3.2059 -3.6656 -1.6187 0.9797
-3.0719 -3.7786 -1.6187 0.9797
-2.7922 -3.9897 -1.6187 0.9797
-1.3551 0.1631 -0.4881 0.9942
-1.3541 0.1137 -0.4859 0.9942
-1.3474 0.0644 -0.4824 0.9943
-1.3398 0.0158 -0.4791 0.9943
-1.3545 -0.1307 -0.4866 0.9942
-1.3545 -0.2805 -0.4946 0.9941
-1.3531 -0.5471 -0.5219 0.9938
-1.3530 -0.6045 -0.5299 0.9937
-3.8250 -2.4205 -1.6187 0.9810
-3.2174 -3.1840 -1.6187 0.9810
-2.9800 -3.4072 -1.6187 0.9810
-2.7272 -3.6128 -1.6187 0.9810
-2.4602 -3.7996 -1.6187 0.9810
-1.3132 0.1581 -0.5069 0.9943
-1.3091 0.1099 -0.5034 0.9944
-1.3027 0.0623 -0.4998 0.9944
-1.2981 -0.0314 -0.4976 0.9945
-1.3131 -0.2230 -0.5104 0.9943
-1.3121 -0.2717 -0.5135 0.9943
-1.3102 -0.3209 -0.5169 0.9942
-1.3071 -0.4219 -0.5263 0.9941
-1.3075 -0.4746 -0.5331 0.9941
-1.3014 -0.6978 -0.5659 0.9937
-1.2976 -0.7572 -0.5757 0.9936
-3.4858 -2.3858 -1.6187 0.9821
-3.3977 -2.5097 -1.6187 0.9821
-3.2083 -2.7476 -1.6187 0.9821
-3.1074 -2.8613 -1.6187 0.9821
-2.8935 -3.0774 -1.6187 0.9821
-2.7809 -3.1795 -1.6187 0.9821
-2.6646 -3.2775 -1.6187 0.9821
-2.4219 -3.4607 -1.6187 0.9821
-1.2711 0.1530 -0.5240 0.9945
-1.2601 0.0603 -0.5163 0.9946
-1.2559 -0.0304 -0.5142 0.9946
-1.2678 -0.1224 -0.5213 0.9945
-1.2727 -0.1692 -0.5255 0.9945
-1.2716 -0.2633 -0.5315 0.9944
-1.2695 -0.3109 -0.5349 0.9944
-1.2645 -0.4590 -0.5506 0.9942
-1.2635 -0.5108 -0.5578 0.9941
-1.2589 -0.6178 -0.5740 0.9940
-1.2511 -0.7300 -0.5928 0.9938
-3.2639 -2.2339 -1.6187 0.9831
-3.0947 -2.4629 -1.6187 0.9831
-3.0041 -2.5726 -1.6187 0.9831
-2.8112 -2.7821 -1.6187 0.9831
-2.3829 -3.1567 -1.6187 0.9831
-2.2677 -3.2404 -1.6187 0.9831
-2.1496 -3.3199 -1.6187 0.9831
-1.2250 0.1029 -0.5357 0.9947
-1.2134 0.0143 -0.5289 0.9947
-1.2266 -0.1184 -0.5371 0.9946
-1.2310 -0.1637 -0.5412 0.9946
-1.2342 -0.2096 -0.5456 0.9946
-1.2328 -0.2553 -0.5487 0.9945
-1.2306 -0.3014 -0.5522 0.9945
-1.2240 -0.3950 -0.5605 0.9944
-1.2197 -0.5450 -0.5822 0.9942
-1.2121 -0.6500 -0.5994 0.9940
-1.2070 -0.7043 -0.6090 0.9939
-3.0651 -2.0978 -1.6187 0.9839
-2.7323 -2.5159 -1.6187 0.9839
-2.5443 -2.7060 -1.6187 0.9839
-2.4452 -2.7958 -1.6187 0.9839
-2.2378 -2.9644 -1.6187 0.9839
-2.0187 -3.1177 -1.6187 0.9839
-1.1899 0.1432 -0.5548 0.9947
-1.1857 0.0996 -0.5508 0.9948
-1.1771 -0.0285 -0.5450 0.9948
-1.1826 -0.0713 -0.5484 0.9948
-1.1873 -0.1146 -0.5521 0.9948
-1.1943 -0.2028 -0.5607 0.9947
-1.1859 -0.3828 -0.5768 0.9945
-1.1823 -0.4780 -0.5903 0.9944
-1.1759 -0.5770 -0.6063 0.9942
-1.1654 -0.6800 -0.6246 0.9941
-1.1586 -0.7332 -0.6347 0.9940
-1.2497 -0.8553 -0.7010 0.9933
-2.4856 -2.4599 -1.6187 0.9847
-2.3022 -2.6323 -1.6187 0.9847
-2.1069 -2.7911 -1.6187 0.9847
-2.0051 -2.8651 -1.6187 0.9847
-1.1482 0.0964 -0.5652 0.9949
-1.1496 -0.1109 -0.5665 0.9949
-1.1531 -0.1534 -0.5706 0.9948
-1.1574 -0.2835 -0.5845 0.9947
-1.1541 -0.3271 -0.5884 0.9947
-1.1498 -0.3711 -0.5927 0.9946
-1.1467 -0.4162 -0.5984 0.9946
-1.1372 -0.5580 -0.6214 0.9944
-1.1188 -0.7080 -0.6494 0.9941
-1.1104 -0.7600 -0.6601 0.9940
-2.5065 -2.1465 -1.6187 0.9854
-2.4276 -2.2353 -1.6187 0.9854
-2.3456 -2.3213 -1.6187 0.9854
-2.1725 -2.4840 -1.6187 0.9854
-1.8921 -2.7037 -1.6187 0.9854
-1.7936 -2.7700 -1.6187 0.9854
-1.1122 0.0934 -0.5790 0.9950
-1.1190 -0.1900 -0.5888 0.9949
-1.1205 -0.2321 -0.5937 0.9949
-1.1213 -0.2746 -0.5989 0.9948
-1.1195 -0.3173 -0.6036 0.9948
-1.1151 -0.3599 -0.6079 0.9947
-1.1107 -0.4032 -0.6130 0.9947
-1.1081 -0.4480 -0.6201 0.9946
-1.1002 -0.5399 -0.6358 0.9945
-1.0947 -0.5870 -0.6444 0.9944
-1.0429 -0.7704 -0.6726 0.9942
-1.0681 -0.8500 -0.7082 0.9939
-2.3700 -2.0296 -1.6187 0.9860
-2.2954 -2.1136 -1.6187 0.9860
-2.0542 -2.3487 -1.6187 0.9860
-1.7891 -2.5564 -1.6187 0.9860
-1.0808 0.1301 -0.5962 0.9950
-1.0738 0.0514 -0.5888 0.9951
-1.0691 0.0126 -0.5856 0.9951
-1.0837 -0.1840 -0.6020 0.9950
-1.0849 -0.2247 -0.6068 0.9950
-1.0848 -0.3075 -0.6175 0.9949
-1.0817 -0.3491 -0.6225 0.9948
-1.0764 -0.3907 -0.6272 0.9948
-1.0732 -0.4339 -0.6340 0.9947
-1.0694 -0.4778 -0.6415 0.9947
-1.0647 -0.5225 -0.6496 0.9946
-1.0590 -0.5678 -0.6581 0.9945
-1.0499 -0.6126 -0.6658 0.9945
-1.0016 -0.8578 -0.7223 0.9940
-2.1742 -2.0019 -1.6187 0.9866
-2.1007 -2.0789 -1.6187 0.9866
-2.0245 -2.1532 -1.6187 0.9866
-1.9457 -2.2246 -1.6187 0.9866
-1.8644 -2.2932 -1.6187 0.9866
-1.7806 -2.3588 -1.6187 0.9866
-1.6946 -2.4214 -1.6187 0.9866
-1.6063 -2.4808 -1.6187 0.9866
-1.0472 0.1260 -0.6089 0.9951
-1.0444 0.0877 -0.6051 0.9952
-1.0408 0.0498 -0.6016 0.9952
-1.0479 -0.1394 -0.6104 0.9951
-1.0496 -0.1782 -0.6147 0.9951
-1.0506 -0.2176 -0.6194 0.9951
-1.0506 -0.2574 -0.6245 0.9950
-1.0440 -0.3790 -0.6413 0.9949
-1.0397 -0.4203 -0.6475 0.9948
-1.0356 -0.4627 -0.6549 0.9948
-1.0306 -0.5058 -0.6628 0.9947
-1.0179 -0.5458 -0.6669 0.9947
-1.0025 -0.5850 -0.6701 0.9947
-0.9858 -0.6238 -0.6735 0.9946
-0.9678 -0.6624 -0.6771 0.9946
-0.9484 -0.7006 -0.6808 0.9946
-0.9278 -0.7384 -0.6846 0.9945
-1.9928 -1.9722 -1.6187 0.9871
-1.9206 -2.0426 -1.6187 0.9871
-1.7686 -2.1755 -1.6187 0.9871
-1.5238 -2.3534 -1.6187 0.9871
