ply
format ascii 1.0
element vertex 443
property float32 x
property float32 y
property float32 z
property float32 I
end_header
-6.6514 41.3202 7.3797 0.8437
-8.4515 31.0759 5.6786 0.8774
-9.2946 29.9564 5.5305 0.8804
-9.8269 25.2255 4.7735 0.8959
-10.8126 25.0978 4.8186 0.8949
-11.8249 22.8577 4.5378 0.9007
-12.3235 21.8913 4.4296 0.9030
-12.4875 20.4577 4.2262 0.9072
-12.7867 19.3749 4.0932 0.9100
2.8488 6.6381 1.1066 0.9712
-8.4593 31.1048 4.9381 0.8777
-9.3035 29.9851 4.8096 0.8807
-10.7433 24.9369 4.1596 0.8959
-11.8249 22.8577 3.9425 0.9011
-4.3587 48.8571 6.3875 0.8205
-6.3792 39.6296 5.2270 0.8505
-7.6549 38.7746 5.1467 0.8526
-8.3219 35.5055 4.7489 0.8632
-8.3933 30.8619 4.1648 0.8790
-9.2521 29.8196 4.0657 0.8817
-9.8151 25.1952 3.5211 0.8967
-11.4433 24.1752 3.4830 0.8977
-12.4878 20.4581 3.1212 0.9078
-7.5672 38.3304 4.1954 0.8546
-8.3219 35.5054 3.9159 0.8635
-9.2822 29.9165 3.3636 0.8816
-10.6263 27.2776 3.1435 0.8889
-11.0660 25.6859 3.0033 0.8936
-11.4685 24.2285 2.8784 0.8978
-11.8251 22.8581 2.7635 0.9016
-12.1682 21.6154 2.6636 0.9050
-12.4878 20.4581 2.5738 0.9081
2.8477 6.6355 0.6113 0.9714
-5.6604 45.3070 3.8652 0.8325
-6.3620 39.5224 3.3887 0.8515
-7.5673 38.3309 3.3074 0.8548
-10.2458 29.3218 2.6293 0.8828
-8.8117 22.6194 2.0550 0.9071
-11.0659 25.6858 2.3676 0.8938
-11.6041 24.5150 2.2960 0.8968
-12.3144 21.8751 2.1250 0.9041
-12.4878 20.4581 2.0290 0.9083
-12.9404 19.6077 1.9887 0.9100
-5.6605 45.3080 2.8314 0.8328
-5.5307 34.3587 2.1580 0.8698
-6.2823 31.8220 2.0114 0.8781
-8.9941 33.0712 2.1252 0.8717
-10.2458 29.3218 1.9261 0.8830
-10.6263 27.2775 1.8153 0.8893
-11.6041 24.5150 1.6819 0.8970
-12.3144 21.8751 1.5566 0.9043
-12.9404 19.6077 1.4568 0.9101
2.8471 6.6340 0.2847 0.9715
-5.7284 45.8512 1.8220 0.8311
-7.6898 38.9513 1.5655 0.8531
-8.4220 35.9326 1.4553 0.8627
-8.9941 33.0711 1.3514 0.8718
-9.7580 31.4502 1.2984 0.8765
-10.2458 29.3218 1.2247 0.8831
-11.0658 25.6856 1.1028 0.8941
-9.6684 18.6893 0.8297 0.9192
-6.2013 31.4118 0.5408 0.8798
-7.8812 25.4013 0.4493 0.8991
-9.4192 19.8990 0.3719 0.9157
-9.6684 18.6893 0.3554 0.9193
-10.0106 17.7828 0.3447 0.9216
-10.5239 15.9462 0.3227 0.9264
2.8464 6.6325 -0.0406 0.9715
-5.6605 45.3079 -0.2571 0.8331
-5.4748 34.0112 -0.1940 0.8713
-6.8328 29.1525 -0.1686 0.8871
-7.8812 25.4013 -0.1497 0.8991
-8.7226 22.3909 -0.1353 0.9084
-9.0861 21.0905 -0.1293 0.9122
-9.6684 18.6893 -0.1185 0.9193
-10.0106 17.7828 -0.1149 0.9216
-10.5239 15.9462 -0.1076 0.9264
2.8461 6.6317 -0.2032 0.9715
-4.1197 46.1774 -1.3054 0.8307
-4.7588 38.0903 -1.0809 0.8576
-5.4748 34.0112 -0.9700 0.8712
-6.2013 31.4118 -0.9016 0.8797
-7.3881 27.1659 -0.7927 0.8935
-9.6684 18.6893 -0.5925 0.9192
-10.0106 17.7828 -0.5746 0.9216
-10.5239 15.9462 -0.5380 0.9264
12.3332 26.1495 -1.4662 0.8907
10.4573 26.9548 -1.4663 0.8907
9.4992 27.3073 -1.4663 0.8907
8.5292 27.6259 -1.4663 0.8907
7.5486 27.9099 -1.4663 0.8907
6.5586 28.1591 -1.4663 0.8907
4.5552 28.5521 -1.4663 0.8907
3.5444 28.6953 -1.4663 0.8907
-1.5509 28.8724 -1.4664 0.8906
-2.5694 28.7998 -1.4664 0.8906
-3.5845 28.6912 -1.4664 0.8906
-4.5953 28.5470 -1.4664 0.8906
-6.5983 28.1519 -1.4664 0.8906
-7.3881 27.1658 -1.4277 0.8934
-9.4191 19.8990 -1.1165 0.9156
-10.2757 16.8342 -1.0002 0.9240
8.5305 18.0869 -1.4663 0.9229
6.5703 18.8876 -1.4663 0.9229
5.2211 19.3043 -1.4663 0.9229
4.5364 19.4767 -1.4663 0.9229
3.8459 19.6248 -1.4663 0.9229
1.7493 19.9216 -1.4663 0.9229
0.3391 19.9956 -1.4663 0.9229
-1.0728 19.9698 -1.4663 0.9229
-1.7771 19.9195 -1.4663 0.9229
-3.8734 19.6202 -1.4664 0.9229
-5.2483 19.2981 -1.4664 0.9229
-5.9264 19.1008 -1.4664 0.9229
-8.5565 18.0765 -1.4664 0.9229
-9.8108 17.4277 -1.4664 0.9229
-10.2757 16.8342 -1.4461 0.9239
2.8451 6.6295 -0.6926 0.9714
5.0180 14.4252 -1.4663 0.9405
2.9373 14.9881 -1.4663 0.9405
2.4063 15.0825 -1.4663 0.9405
1.3360 15.2148 -1.4663 0.9405
0.7980 15.2525 -1.4663 0.9405
0.2590 15.2712 -1.4663 0.9405
-1.3572 15.2131 -1.4663 0.9405
-1.8935 15.1558 -1.4663 0.9405
-2.9582 14.9845 -1.4663 0.9405
-3.4854 14.8707 -1.4664 0.9405
-4.5261 14.5878 -1.4664 0.9405
-5.5443 14.2321 -1.4664 0.9405
-6.0433 14.0275 -1.4664 0.9405
-6.5348 13.8054 -1.4664 0.9405
-7.4927 13.3100 -1.4664 0.9405
-7.9579 13.0371 -1.4664 0.9405
-8.4133 12.7481 -1.4664 0.9405
4.4647 11.5083 -1.4663 0.9515
2.8001 12.0223 -1.4663 0.9515
2.3740 12.1137 -1.4663 0.9515
1.9448 12.1900 -1.4663 0.9515
0.2093 12.3425 -1.4663 0.9515
-0.2265 12.3422 -1.4663 0.9515
-1.0969 12.2955 -1.4663 0.9515
-1.9618 12.1875 -1.4663 0.9515
-2.3909 12.1107 -1.4663 0.9515
-3.2395 11.9118 -1.4663 0.9515
-4.0721 11.6535 -1.4664 0.9515
2.7909 6.5032 -1.0027 0.9718
3.4000 9.7742 -1.4663 0.9591
2.7019 9.9898 -1.4663 0.9591
2.3475 10.0790 -1.4663 0.9591
1.6304 10.2195 -1.4663 0.9591
1.2686 10.2707 -1.4663 0.9591
0.9052 10.3091 -1.4663 0.9591
0.5407 10.3347 -1.4663 0.9591
0.1755 10.3474 -1.4663 0.9591
-0.1899 10.3471 -1.4663 0.9591
-0.9196 10.3080 -1.4663 0.9591
-1.2829 10.2691 -1.4663 0.9591
-1.6447 10.2174 -1.4663 0.9591
-2.0044 10.1530 -1.4663 0.9591
-2.3616 10.0759 -1.4663 0.9591
-2.7159 9.9863 -1.4663 0.9591
-4.0947 9.5046 -1.4664 0.9591
-4.7552 9.1919 -1.4664 0.9591
-5.7005 8.6376 -1.4664 0.9591
3.7968 8.0502 -1.4663 0.9646
3.2193 8.2981 -1.4663 0.9646
2.3238 8.5920 -1.4663 0.9646
1.4023 8.7896 -1.4663 0.9646
0.7786 8.8667 -1.4663 0.9646
0.4650 8.8887 -1.4663 0.9646
0.1509 8.8996 -1.4663 0.9646
-0.1634 8.8994 -1.4663 0.9646
-0.4774 8.8881 -1.4663 0.9646
-1.4146 8.7878 -1.4663 0.9646
-1.7240 8.7324 -1.4663 0.9646
-2.3359 8.5890 -1.4663 0.9646
-3.5218 8.1747 -1.4663 0.9646
-4.6376 7.5975 -1.4664 0.9646
2.8216 7.2729 -1.4663 0.9687
2.3013 7.4539 -1.4663 0.9687
2.0367 7.5305 -1.4663 0.9687
1.7696 7.5978 -1.4663 0.9687
1.5003 7.6555 -1.4663 0.9687
1.2291 7.7037 -1.4663 0.9687
0.6824 7.7713 -1.4663 0.9687
0.1323 7.8001 -1.4663 0.9687
-0.4185 7.7900 -1.4663 0.9687
-0.6932 7.7704 -1.4663 0.9687
-1.2398 7.7021 -1.4663 0.9687
-2.3118 7.4509 -1.4663 0.9687
-3.0867 7.1647 -1.4663 0.9687
-3.3377 7.0513 -1.4663 0.9687
-3.5846 6.9290 -1.4663 0.9687
-3.8270 6.7982 -1.4663 0.9687
-4.0646 6.6588 -1.4663 0.9687
2.7357 6.3745 -1.4663 0.9720
1.8111 6.6962 -1.4663 0.9720
1.3341 6.8073 -1.4663 0.9720
1.0929 6.8502 -1.4663 0.9720
0.8504 6.8845 -1.4663 0.9720
0.1176 6.9359 -1.4663 0.9720
-0.1273 6.9357 -1.4663 0.9720
-0.6164 6.9095 -1.4663 0.9720
-1.1025 6.8488 -1.4663 0.9720
-1.3436 6.8056 -1.4663 0.9720
-1.5830 6.7539 -1.4663 0.9720
-2.0556 6.6254 -1.4663 0.9720
-2.7447 6.3709 -1.4663 0.9720
-3.1874 6.1613 -1.4663 0.9720
-3.8210 5.7898 -1.4663 0.9720
2.0498 5.8926 -1.4663 0.9747
1.4152 6.0764 -1.4663 0.9747
0.9829 6.1611 -1.4663 0.9747
0.7648 6.1920 -1.4663 0.9747
0.3260 6.2305 -1.4663 0.9747
0.1058 6.2381 -1.4663 0.9747
-0.7734 6.1909 -1.4663 0.9747
-1.6373 6.0204 -1.4663 0.9747
-1.8488 5.9589 -1.4663 0.9747
-2.0581 5.8899 -1.4663 0.9747
-2.2647 5.8136 -1.4663 0.9747
-2.4686 5.7300 -1.4663 0.9747
-2.8668 5.5415 -1.4663 0.9747
-3.2507 5.3254 -1.4663 0.9747
2.4595 5.7310 -1.6147 0.9746
2.2521 5.8051 -1.6122 0.9746
2.0106 5.7798 -1.5845 0.9750
1.7537 5.6801 -1.5392 0.9757
1.2846 5.5156 -1.4663 0.9769
1.0891 5.5575 -1.4663 0.9769
0.8922 5.5925 -1.4663 0.9769
0.6942 5.6205 -1.4663 0.9769
0.2959 5.6555 -1.4663 0.9769
0.0960 5.6624 -1.4663 0.9769
-0.1039 5.6623 -1.4663 0.9769
-0.7021 5.6196 -1.4663 0.9769
-1.2924 5.5139 -1.4663 0.9769
-1.8681 5.3463 -1.4663 0.9769
-2.2408 5.2012 -1.4663 0.9769
-2.7782 4.9351 -1.4663 0.9769
2.4391 5.1716 -1.6187 0.9765
2.0677 5.3298 -1.6184 0.9765
1.8757 5.3920 -1.6162 0.9765
1.6819 5.4476 -1.6140 0.9766
1.4867 5.4967 -1.6120 0.9766
1.0582 5.3997 -1.5577 0.9774
0.6491 5.2552 -1.4990 0.9782
0.4554 5.1863 -1.4738 0.9786
0.2706 5.1726 -1.4663 0.9787
-0.2778 5.1722 -1.4663 0.9787
-0.4603 5.1592 -1.4663 0.9787
-0.8232 5.1138 -1.4663 0.9787
-1.0032 5.0816 -1.4663 0.9787
-1.1820 5.0430 -1.4663 0.9787
-1.3593 4.9981 -1.4663 0.9787
-1.7086 4.8897 -1.4663 0.9787
-1.8802 4.8264 -1.4663 0.9787
-2.0494 4.7570 -1.4663 0.9787
-2.2161 4.6817 -1.4663 0.9787
-2.5409 4.5137 -1.4663 0.9787
-2.6987 4.4211 -1.4663 0.9787
-2.8531 4.3231 -1.4663 0.9787
2.0755 4.8362 -1.6187 0.9782
1.9035 4.9064 -1.6187 0.9782
1.7291 4.9706 -1.6187 0.9782
1.3733 5.0778 -1.6179 0.9782
0.8262 5.1788 -1.6130 0.9783
0.6423 5.2000 -1.6116 0.9783
0.4532 5.1617 -1.5937 0.9785
-0.4341 4.8653 -1.5024 0.9798
-0.6010 4.8107 -1.4912 0.9799
-0.9283 4.7025 -1.4743 0.9801
-1.2516 4.6021 -1.4669 0.9802
-1.4129 4.5539 -1.4666 0.9802
-1.5740 4.5044 -1.4676 0.9802
-2.0594 4.3507 -1.4805 0.9801
-2.2242 4.2995 -1.4889 0.9799
-2.3910 4.2474 -1.4992 0.9798
-2.5603 4.1944 -1.5114 0.9796
-2.7358 4.1454 -1.5277 0.9794
1.7613 4.5400 -1.6187 0.9797
1.5999 4.5993 -1.6187 0.9797
1.1046 4.7427 -1.6187 0.9797
-0.0891 4.8513 -1.6129 0.9798
-0.2601 4.8427 -1.6121 0.9798
-0.4307 4.8284 -1.6114 0.9798
-0.7623 4.7355 -1.5944 0.9800
-0.9243 4.6819 -1.5863 0.9801
-1.2448 4.5769 -1.5767 0.9802
-1.5655 4.4803 -1.5776 0.9802
-1.7263 4.4314 -1.5808 0.9802
-1.8878 4.3819 -1.5860 0.9801
-2.0504 4.3316 -1.5930 0.9800
-2.2144 4.2806 -1.6020 0.9799
1.9309 4.0940 -1.6187 0.9810
1.6372 4.2200 -1.6187 0.9810
1.4872 4.2752 -1.6187 0.9810
0.8705 4.4420 -1.6187 0.9810
0.3959 4.5092 -1.6187 0.9810
0.0768 4.5259 -1.6187 0.9810
-0.0830 4.5242 -1.6181 0.9810
-0.4017 4.5031 -1.6167 0.9810
-0.5603 4.4846 -1.6162 0.9810
-1.0306 4.3970 -1.6150 0.9810
-1.6394 4.2083 -1.6151 0.9810
-1.7872 4.1484 -1.6153 0.9810
-2.4921 3.7761 -1.6180 0.9810
1.8019 3.8204 -1.6187 0.9821
1.6659 3.8816 -1.6187 0.9821
1.2461 4.0360 -1.6187 0.9821
1.1028 4.0775 -1.6187 0.9821
0.9582 4.1139 -1.6187 0.9821
0.8123 4.1451 -1.6187 0.9821
0.6655 4.1712 -1.6187 0.9821
-0.3753 4.2073 -1.6187 0.9821
-0.5236 4.1914 -1.6187 0.9821
-0.6713 4.1703 -1.6187 0.9821
-1.1085 4.0760 -1.6187 0.9821
-1.2517 4.0343 -1.6187 0.9821
-1.5333 3.9359 -1.6187 0.9821
-1.6713 3.8793 -1.6187 0.9821
-1.8072 3.8179 -1.6187 0.9821
-2.0721 3.6809 -1.6187 0.9821
-2.3267 3.5255 -1.6187 0.9821
1.6872 3.5771 -1.6187 0.9831
1.4305 3.6873 -1.6187 0.9831
0.8972 3.8520 -1.6187 0.9831
0.4848 3.9253 -1.6187 0.9831
0.2067 3.9497 -1.6187 0.9831
0.0671 3.9545 -1.6187 0.9831
-0.4903 3.9246 -1.6187 0.9831
-0.6285 3.9048 -1.6187 0.9831
-0.7660 3.8802 -1.6187 0.9831
-1.0379 3.8165 -1.6187 0.9831
-1.1720 3.7775 -1.6187 0.9831
-1.3047 3.7337 -1.6187 0.9831
-1.8173 3.5129 -1.6187 0.9831
-2.0607 3.3759 -1.6187 0.9831
-2.1785 3.3010 -1.6187 0.9831
1.5844 3.3593 -1.6187 0.9839
1.4648 3.4131 -1.6187 0.9839
1.2203 3.5080 -1.6187 0.9839
0.9697 3.5854 -1.6187 0.9839
0.5852 3.6678 -1.6187 0.9839
0.4553 3.6862 -1.6187 0.9839
0.1940 3.7092 -1.6187 0.9839
0.0630 3.7137 -1.6187 0.9839
-0.0682 3.7136 -1.6187 0.9839
-0.1992 3.7089 -1.6187 0.9839
-0.3300 3.6995 -1.6187 0.9839
-0.4604 3.6856 -1.6187 0.9839
-0.5903 3.6670 -1.6187 0.9839
-0.7194 3.6439 -1.6187 0.9839
-1.1006 3.5474 -1.6187 0.9839
-1.3482 3.4609 -1.6187 0.9839
-1.4696 3.4112 -1.6187 0.9839
-1.7066 3.2989 -1.6187 0.9839
-1.9352 3.1703 -1.6187 0.9839
1.4917 3.1629 -1.6187 0.9847
1.3792 3.2136 -1.6187 0.9847
1.2648 3.2602 -1.6187 0.9847
0.7933 3.4058 -1.6187 0.9847
0.4287 3.4707 -1.6187 0.9847
0.0593 3.4965 -1.6187 0.9847
-0.0642 3.4964 -1.6187 0.9847
-0.1876 3.4920 -1.6187 0.9847
-0.3107 3.4832 -1.6187 0.9847
-0.4335 3.4700 -1.6187 0.9847
-0.5558 3.4526 -1.6187 0.9847
-0.6773 3.4308 -1.6187 0.9847
-0.9177 3.3745 -1.6187 0.9847
-1.0363 3.3400 -1.6187 0.9847
-1.1536 3.3013 -1.6187 0.9847
-1.4962 3.1608 -1.6187 0.9847
-1.6068 3.1060 -1.6187 0.9847
1.3014 3.0325 -1.6187 0.9854
1.1936 3.0766 -1.6187 0.9854
1.0842 3.1168 -1.6187 0.9854
0.5199 3.2587 -1.6187 0.9854
0.4045 3.2751 -1.6187 0.9854
0.1724 3.2955 -1.6187 0.9854
0.0560 3.2995 -1.6187 0.9854
-0.0606 3.2994 -1.6187 0.9854
-0.2932 3.2869 -1.6187 0.9854
-0.4091 3.2745 -1.6187 0.9854
-0.5245 3.2581 -1.6187 0.9854
-0.6391 3.2375 -1.6187 0.9854
-0.8660 3.1843 -1.6187 0.9854
-1.1979 3.0749 -1.6187 0.9854
-1.6188 2.8757 -1.6187 0.9854
-1.7194 2.8167 -1.6187 0.9854
-1.8177 2.7543 -1.6187 0.9854
1.2305 2.8673 -1.6187 0.9860
1.1286 2.9090 -1.6187 0.9860
1.0252 2.9470 -1.6187 0.9860
0.9205 2.9814 -1.6187 0.9860
0.8146 3.0120 -1.6187 0.9860
0.4916 3.0813 -1.6187 0.9860
-0.3868 3.0962 -1.6187 0.9860
-0.4959 3.0806 -1.6187 0.9860
-0.7120 3.0379 -1.6187 0.9860
-0.9246 2.9801 -1.6187 0.9860
-1.0293 2.9456 -1.6187 0.9860
-1.2346 2.8656 -1.6187 0.9860
-1.4337 2.7714 -1.6187 0.9860
-1.5307 2.7190 -1.6187 0.9860
-1.6257 2.6633 -1.6187 0.9860
-1.7187 2.6042 -1.6187 0.9860
1.2607 2.6731 -1.6187 0.9866
1.1656 2.7159 -1.6187 0.9866
1.0690 2.7553 -1.6187 0.9866
0.5684 2.9003 -1.6187 0.9866
0.3623 2.9332 -1.6187 0.9866
0.2585 2.9441 -1.6187 0.9866
0.0501 2.9550 -1.6187 0.9866
-0.1585 2.9512 -1.6187 0.9866
-0.3664 2.9327 -1.6187 0.9866
-0.4697 2.9179 -1.6187 0.9866
-0.6744 2.8775 -1.6187 0.9866
-0.7756 2.8519 -1.6187 0.9866
-0.8758 2.8227 -1.6187 0.9866
-1.0728 2.7539 -1.6187 0.9866
-1.2645 2.6713 -1.6187 0.9866
-1.3580 2.6250 -1.6187 0.9866
-1.4498 2.5754 -1.6187 0.9866
-1.5398 2.5226 -1.6187 0.9866
1.1057 2.5764 -1.6187 0.9871
0.9212 2.6480 -1.6187 0.9871
0.4417 2.7687 -1.6187 0.9871
0.2452 2.7929 -1.6187 0.9871
0.0475 2.8033 -1.6187 0.9871
-0.1504 2.7997 -1.6187 0.9871
-0.2491 2.7926 -1.6187 0.9871
-0.5430 2.7506 -1.6187 0.9871
-0.6398 2.7297 -1.6187 0.9871
-0.7358 2.7055 -1.6187 0.9871
-0.8308 2.6778 -1.6187 0.9871
-1.1093 2.5749 -1.6187 0.9871
-1.1995 2.5342 -1.6187 0.9871
-1.2883 2.4902 -1.6187 0.9871
-1.3754 2.4432 -1.6187 0.9871
-1.5443 2.3400 -1.6187 0.9871
