ply
format ascii 1.0
element vertex 467
property float32 x
property float32 y
property float32 z
property float32 I
end_header
6.7775 -46.1340 8.2220 0.8275
1.7318 -45.4075 6.9612 0.8320
3.3292 -44.8848 6.8950 0.8335
8.5168 -46.3347 7.2171 0.8264
3.3291 -44.8848 5.8610 0.8340
8.5168 -46.3347 6.1348 0.8269
10.3635 -46.8509 6.2484 0.8240
13.5451 -45.4684 6.1781 0.8258
15.6512 -46.3819 6.3745 0.8208
3.3291 -44.8847 4.8330 0.8344
5.0069 -45.3537 4.8997 0.8323
8.5168 -46.3347 5.0589 0.8274
12.0088 -46.3314 5.1395 0.8249
19.1725 -45.6942 5.3211 0.8193
6.7338 -45.8363 3.9218 0.8303
8.5168 -46.3347 3.9881 0.8277
10.3635 -46.8509 4.0619 0.8248
18.0698 -43.0659 3.9536 0.8290
5.0069 -45.3537 2.8295 0.8329
6.7338 -45.8364 2.8728 0.8305
10.3635 -46.8509 2.9755 0.8251
12.8714 -43.2071 2.7956 0.8347
11.6456 -34.5115 2.2586 0.8642
15.2276 -40.2894 2.6709 0.8415
17.1245 -40.8131 2.7446 0.8375
21.4608 -42.3423 2.9437 0.8268
23.9759 -43.3686 3.0729 0.8199
5.0068 -45.3537 1.7992 0.8331
6.7338 -45.8363 1.8268 0.8307
8.5168 -46.3347 1.8576 0.8281
12.8714 -43.2072 1.7777 0.8349
14.3871 -38.0656 1.6046 0.8497
18.2518 -39.4645 1.7145 0.8402
22.6764 -41.0180 1.8481 0.8289
25.0300 -41.6678 1.9166 0.8232
3.3292 -44.8847 0.7603 0.8352
5.0069 -45.3537 0.7708 0.8331
8.5168 -46.3347 0.7958 0.8282
12.0088 -46.3314 0.8085 0.8257
12.8714 -43.2072 0.7615 0.8350
17.3718 -37.5617 0.6991 0.8474
19.3089 -38.0965 0.7215 0.8429
23.5956 -39.2800 0.7740 0.8325
25.9884 -39.9406 0.8049 0.8264
3.3292 -44.8847 -0.2534 0.8352
5.0069 -45.3537 -0.2569 0.8332
6.7338 -45.8364 -0.2608 0.8308
8.5168 -46.3347 -0.2652 0.8282
13.6403 -40.4224 -0.2402 0.8431
20.2940 -36.7086 -0.2362 0.8455
22.4003 -37.2901 -0.2449 0.8403
3.3292 -44.8847 -1.2673 0.8352
8.5168 -46.3347 -1.3266 0.8282
12.8714 -43.2072 -1.2695 0.8349
13.6402 -40.4224 -1.2013 0.8431
19.4276 -35.1415 -1.1307 0.8516
21.4440 -35.6982 -1.1726 0.8465
23.3554 -35.8939 -1.2058 0.8425
25.6878 -36.5378 -1.2576 0.8363
28.2331 -37.2406 -1.3159 0.8294
15.0905 -10.2991 -0.5144 0.9295
2.1949 -29.5941 -1.5050 0.8879
5.3671 -29.1986 -1.5056 0.8879
6.4054 -28.9572 -1.5040 0.8880
7.4347 -28.6832 -1.5027 0.8881
9.4591 -28.0320 -1.5004 0.8883
10.4703 -27.7024 -1.5019 0.8882
11.4476 -27.2837 -1.5005 0.8882
12.4093 -26.8316 -1.4992 0.8883
13.3535 -26.3466 -1.4980 0.8884
16.0892 -24.7269 -1.4961 0.8886
16.9719 -24.1406 -1.4966 0.8885
17.8099 -23.4919 -1.4950 0.8886
18.6236 -22.8148 -1.4936 0.8887
12.4303 -12.2588 -0.8854 0.9325
13.8069 -10.9545 -0.8938 0.9318
13.9982 -10.3094 -0.8817 0.9327
0.7622 -19.9833 -1.4663 0.9229
1.4792 -19.9430 -1.4663 0.9229
2.1943 -19.8769 -1.4663 0.9229
2.9067 -19.7852 -1.4663 0.9229
4.3191 -19.5255 -1.4663 0.9229
5.7093 -19.1650 -1.4662 0.9229
6.3937 -18.9476 -1.4662 0.9229
7.7370 -18.4397 -1.4662 0.9229
8.3942 -18.1500 -1.4662 0.9229
10.2972 -17.1419 -1.4662 0.9229
11.5008 -16.3586 -1.4662 0.9229
12.0808 -15.9350 -1.4662 0.9229
12.6451 -15.4909 -1.4662 0.9229
13.7242 -14.5434 -1.4662 0.9229
12.6283 -11.5896 -1.2568 0.9336
12.8119 -10.9371 -1.2351 0.9347
13.9104 -11.0365 -1.3020 0.9313
14.0905 -10.3773 -1.2831 0.9322
18.5446 -7.4798 -1.4662 0.9229
1.6759 -15.1808 -1.4663 0.9405
2.2199 -15.1108 -1.4663 0.9405
3.2987 -14.9124 -1.4663 0.9405
5.3996 -14.2864 -1.4663 0.9405
5.9091 -14.0832 -1.4663 0.9405
6.4110 -13.8619 -1.4662 0.9405
6.9046 -13.6228 -1.4662 0.9405
7.3893 -13.3660 -1.4662 0.9405
8.3294 -12.8012 -1.4662 0.9405
9.2267 -12.1703 -1.4662 0.9405
10.0763 -11.4767 -1.4662 0.9405
10.5338 -11.1625 -1.4735 0.9402
12.1630 -10.3832 -1.5353 0.9378
13.2918 -9.7891 -1.5848 0.9358
13.8623 -9.4608 -1.6113 0.9348
14.2285 -8.9794 -1.6153 0.9346
14.8667 -7.9513 -1.6186 0.9345
1.0080 -13.5896 -1.6187 0.9466
1.9807 -13.4822 -1.6187 0.9466
2.4635 -13.4023 -1.6187 0.9466
3.4190 -13.1909 -1.6187 0.9466
5.2723 -12.5654 -1.6187 0.9466
6.1605 -12.1546 -1.6187 0.9466
6.5929 -11.9255 -1.6186 0.9466
7.0169 -11.6811 -1.6186 0.9466
7.4317 -11.4216 -1.6186 0.9466
8.9904 -10.2399 -1.6186 0.9466
10.3637 -8.8472 -1.6186 0.9466
10.9719 -8.0806 -1.6186 0.9466
11.7772 -6.8538 -1.6186 0.9466
12.4459 -5.5475 -1.6186 0.9466
0.4354 -11.4160 -1.6187 0.9549
0.8450 -11.3930 -1.6187 0.9549
3.2616 -10.9486 -1.6187 0.9549
3.6526 -10.8244 -1.6187 0.9549
4.0389 -10.6863 -1.6187 0.9549
4.4200 -10.5343 -1.6187 0.9549
4.7954 -10.3688 -1.6187 0.9549
5.5272 -9.9979 -1.6187 0.9549
5.8827 -9.7929 -1.6187 0.9549
6.2305 -9.5754 -1.6187 0.9549
6.5703 -9.3455 -1.6187 0.9549
6.9016 -9.1035 -1.6186 0.9549
7.2241 -8.8498 -1.6186 0.9549
7.5371 -8.5847 -1.6186 0.9549
8.1338 -8.0216 -1.6186 0.9549
8.4166 -7.7244 -1.6186 0.9549
8.9493 -7.1004 -1.6186 0.9549
9.1984 -6.7744 -1.6186 0.9549
9.8736 -5.7459 -1.6186 0.9549
10.0735 -5.3877 -1.6186 0.9549
10.2605 -5.0225 -1.6186 0.9549
10.4342 -4.6508 -1.6186 0.9549
10.5945 -4.2732 -1.6186 0.9549
0.3745 -9.8187 -1.6187 0.9609
0.7268 -9.7989 -1.6187 0.9609
1.0782 -9.7664 -1.6187 0.9610
1.4282 -9.7214 -1.6187 0.9610
1.7763 -9.6638 -1.6187 0.9610
2.1222 -9.5938 -1.6187 0.9610
2.4653 -9.5114 -1.6187 0.9610
2.8052 -9.4167 -1.6187 0.9610
4.1245 -8.9181 -1.6187 0.9610
4.4421 -8.7642 -1.6187 0.9610
4.7539 -8.5990 -1.6187 0.9610
6.9958 -6.8993 -1.6187 0.9610
7.2390 -6.6436 -1.6186 0.9610
7.6971 -6.1069 -1.6186 0.9610
8.1156 -5.5388 -1.6186 0.9610
8.9743 -4.0001 -1.6186 0.9610
9.1122 -3.6753 -1.6186 0.9610
0.3282 -8.6056 -1.6187 0.9656
0.6370 -8.5883 -1.6187 0.9656
1.2517 -8.5204 -1.6187 0.9656
1.5569 -8.4700 -1.6187 0.9656
1.8600 -8.4086 -1.6187 0.9656
2.4587 -8.2534 -1.6187 0.9656
3.0447 -8.0556 -1.6187 0.9656
4.4345 -7.3822 -1.6187 0.9656
4.6967 -7.2182 -1.6187 0.9656
4.9529 -7.0449 -1.6187 0.9656
5.6817 -6.4714 -1.6187 0.9656
5.9104 -6.2632 -1.6187 0.9656
6.1315 -6.0469 -1.6187 0.9656
6.3447 -5.8229 -1.6187 0.9656
6.7462 -5.3525 -1.6187 0.9656
7.1130 -4.8545 -1.6187 0.9656
7.4430 -4.3315 -1.6187 0.9656
7.5938 -4.0614 -1.6186 0.9656
0.2919 -7.6522 -1.6187 0.9692
0.8403 -7.6115 -1.6187 0.9692
1.1131 -7.5764 -1.6187 0.9692
1.6539 -7.4770 -1.6187 0.9692
1.9213 -7.4128 -1.6187 0.9692
2.1863 -7.3390 -1.6187 0.9692
2.7073 -7.1631 -1.6187 0.9692
3.4620 -6.8304 -1.6187 0.9692
4.1764 -6.4185 -1.6187 0.9692
4.6263 -6.1022 -1.6187 0.9692
4.8424 -5.9321 -1.6187 0.9692
5.2556 -5.5693 -1.6187 0.9692
5.6418 -5.1778 -1.6187 0.9692
5.8241 -4.9718 -1.6187 0.9692
6.1659 -4.5410 -1.6187 0.9692
6.6184 -3.8516 -1.6187 0.9692
6.7525 -3.6115 -1.6187 0.9692
7.1017 -2.8644 -1.6187 0.9692
0.2625 -6.8824 -1.6187 0.9721
0.7558 -6.8458 -1.6187 0.9721
1.0011 -6.8142 -1.6187 0.9721
1.4875 -6.7248 -1.6187 0.9721
1.9664 -6.6007 -1.6187 0.9721
2.6647 -6.3509 -1.6187 0.9721
2.8911 -6.2512 -1.6187 0.9721
3.1137 -6.1433 -1.6187 0.9721
3.3322 -6.0275 -1.6187 0.9721
3.7562 -5.7728 -1.6187 0.9721
3.9611 -5.6342 -1.6187 0.9721
4.3553 -5.3354 -1.6187 0.9721
4.5440 -5.1756 -1.6187 0.9721
5.0743 -4.6569 -1.6187 0.9721
5.5456 -4.0842 -1.6187 0.9721
5.6887 -3.8824 -1.6187 0.9721
5.8244 -3.6757 -1.6187 0.9721
6.0732 -3.2482 -1.6187 0.9721
6.2906 -2.8039 -1.6187 0.9721
0.2383 -6.2473 -1.6187 0.9745
0.6860 -6.2140 -1.6187 0.9745
1.3503 -6.1042 -1.6187 0.9745
1.5686 -6.0518 -1.6187 0.9745
2.4188 -5.7648 -1.6187 0.9745
2.8263 -5.5764 -1.6187 0.9745
3.4096 -5.2401 -1.6187 0.9745
4.2907 -4.5468 -1.6187 0.9745
4.7548 -4.0590 -1.6187 0.9745
4.8975 -3.8857 -1.6187 0.9745
5.0338 -3.7073 -1.6187 0.9745
5.1637 -3.5242 -1.6187 0.9745
5.7101 -2.5452 -1.6187 0.9745
0.2179 -5.7138 -1.6187 0.9765
0.4229 -5.7022 -1.6187 0.9765
0.8311 -5.6572 -1.6187 0.9765
1.0337 -5.6237 -1.6187 0.9765
1.8282 -5.4177 -1.6187 0.9765
2.0215 -5.3486 -1.6187 0.9765
2.2123 -5.2726 -1.6187 0.9765
2.4002 -5.1897 -1.6187 0.9765
2.9443 -4.9015 -1.6187 0.9765
3.1185 -4.7926 -1.6187 0.9765
3.2885 -4.6775 -1.6187 0.9765
3.6158 -4.4295 -1.6187 0.9765
3.7724 -4.2968 -1.6187 0.9765
4.0711 -4.0149 -1.6187 0.9765
4.2126 -3.8661 -1.6187 0.9765
4.3487 -3.7124 -1.6187 0.9765
4.4792 -3.5538 -1.6187 0.9765
4.7228 -3.2232 -1.6187 0.9765
0.2006 -5.2589 -1.6187 0.9782
0.5775 -5.2309 -1.6187 0.9782
0.7650 -5.2068 -1.6187 0.9782
0.9514 -5.1760 -1.6187 0.9782
1.3204 -5.0944 -1.6187 0.9782
1.5025 -5.0437 -1.6187 0.9782
2.0362 -4.8528 -1.6187 0.9782
2.2091 -4.7766 -1.6187 0.9782
2.3792 -4.6942 -1.6187 0.9782
2.5462 -4.6057 -1.6187 0.9782
2.7100 -4.5113 -1.6187 0.9782
3.1794 -4.1937 -1.6187 0.9782
3.3279 -4.0768 -1.6187 0.9782
3.6119 -3.8275 -1.6187 0.9782
3.7470 -3.6953 -1.6187 0.9782
3.8773 -3.5584 -1.6187 0.9782
4.0025 -3.4169 -1.6187 0.9782
4.1227 -3.2709 -1.6187 0.9782
4.2375 -3.1208 -1.6187 0.9782
4.4505 -2.8086 -1.6187 0.9782
4.5485 -2.6470 -1.6187 0.9782
4.6406 -2.4820 -1.6187 0.9782
4.8067 -2.1425 -1.6187 0.9782
0.1856 -4.8661 -1.6187 0.9797
0.3602 -4.8563 -1.6187 0.9797
0.5343 -4.8403 -1.6187 0.9797
1.2218 -4.7139 -1.6187 0.9797
1.5570 -4.6140 -1.6187 0.9797
1.7216 -4.5551 -1.6187 0.9797
1.8841 -4.4904 -1.6187 0.9797
2.0441 -4.4198 -1.6187 0.9797
2.2015 -4.3436 -1.6187 0.9797
2.5076 -4.1744 -1.6187 0.9797
2.9419 -3.8805 -1.6187 0.9797
3.2128 -3.6593 -1.6187 0.9797
3.3421 -3.5416 -1.6187 0.9797
3.4672 -3.4193 -1.6187 0.9797
3.7036 -3.1617 -1.6187 0.9797
3.9210 -2.8877 -1.6187 0.9797
4.0221 -2.7451 -1.6187 0.9797
4.1181 -2.5988 -1.6187 0.9797
4.2940 -2.2966 -1.6187 0.9797
4.3737 -2.1409 -1.6187 0.9797
0.3348 -4.5141 -1.6187 0.9810
0.4967 -4.4991 -1.6187 0.9810
0.8183 -4.4519 -1.6187 0.9810
1.1357 -4.3817 -1.6187 0.9810
1.4472 -4.2888 -1.6187 0.9810
2.1900 -3.9614 -1.6187 0.9810
2.4687 -3.7940 -1.6187 0.9810
2.6033 -3.7029 -1.6187 0.9810
2.9864 -3.4015 -1.6187 0.9810
3.2228 -3.1784 -1.6187 0.9810
3.4426 -2.9389 -1.6187 0.9810
3.5459 -2.8133 -1.6187 0.9810
3.8279 -2.4157 -1.6187 0.9810
3.9122 -2.2767 -1.6187 0.9810
0.3124 -4.2124 -1.6187 0.9821
0.4635 -4.1984 -1.6187 0.9821
0.6139 -4.1791 -1.6187 0.9821
0.7636 -4.1544 -1.6187 0.9821
1.0598 -4.0888 -1.6187 0.9821
1.6343 -3.8950 -1.6187 0.9821
1.9096 -3.7676 -1.6187 0.9821
2.0437 -3.6966 -1.6187 0.9821
2.1751 -3.6209 -1.6187 0.9821
2.3037 -3.5404 -1.6187 0.9821
2.7868 -3.1742 -1.6187 0.9821
3.2125 -2.7425 -1.6187 0.9821
3.4011 -2.5048 -1.6187 0.9821
3.5721 -2.2543 -1.6187 0.9821
3.6507 -2.1246 -1.6187 0.9821
3.7246 -1.9921 -1.6187 0.9821
3.8580 -1.7196 -1.6187 0.9821
0.1507 -3.9522 -1.6187 0.9831
0.2926 -3.9442 -1.6187 0.9831
0.4340 -3.9312 -1.6187 0.9831
0.8542 -3.8617 -1.6187 0.9831
1.1292 -3.7904 -1.6187 0.9831
1.2646 -3.7474 -1.6187 0.9831
1.3983 -3.6996 -1.6187 0.9831
1.6602 -3.5897 -1.6187 0.9831
2.0366 -3.3904 -1.6187 0.9831
2.3894 -3.1517 -1.6187 0.9831
2.5010 -3.0639 -1.6187 0.9831
2.7144 -2.8764 -1.6187 0.9831
2.8160 -2.7771 -1.6187 0.9831
3.0080 -2.5679 -1.6187 0.9831
3.0983 -2.4582 -1.6187 0.9831
3.2667 -2.2295 -1.6187 0.9831
3.3446 -2.1107 -1.6187 0.9831
3.4183 -1.9893 -1.6187 0.9831
3.4875 -1.8653 -1.6187 0.9831
3.5522 -1.7388 -1.6187 0.9831
3.6124 -1.6102 -1.6187 0.9831
3.6679 -1.4794 -1.6187 0.9831
0.2747 -3.7040 -1.6187 0.9839
0.4075 -3.6917 -1.6187 0.9839
0.5399 -3.6747 -1.6187 0.9839
0.6715 -3.6530 -1.6187 0.9839
0.9319 -3.5954 -1.6187 0.9839
1.0604 -3.5596 -1.6187 0.9839
1.3131 -3.4743 -1.6187 0.9839
1.7970 -3.2505 -1.6187 0.9839
1.9126 -3.1839 -1.6187 0.9839
2.0257 -3.1132 -1.6187 0.9839
2.2438 -2.9597 -1.6187 0.9839
2.4505 -2.7911 -1.6187 0.9839
2.6445 -2.6080 -1.6187 0.9839
2.8248 -2.4115 -1.6187 0.9839
2.9096 -2.3085 -1.6187 0.9839
3.1410 -1.9822 -1.6187 0.9839
3.3359 -1.6329 -1.6187 0.9839
3.4445 -1.3893 -1.6187 0.9839
0.1333 -3.4945 -1.6187 0.9847
0.2587 -3.4874 -1.6187 0.9847
0.3837 -3.4759 -1.6187 0.9847
0.6322 -3.4394 -1.6187 0.9847
0.7553 -3.4144 -1.6187 0.9847
0.8774 -3.3851 -1.6187 0.9847
0.9984 -3.3514 -1.6187 0.9847
1.2363 -3.2711 -1.6187 0.9847
1.4679 -3.1740 -1.6187 0.9847
1.6919 -3.0604 -1.6187 0.9847
1.8007 -2.9977 -1.6187 0.9847
2.0112 -2.8607 -1.6187 0.9847
2.1127 -2.7867 -1.6187 0.9847
2.4898 -2.4555 -1.6187 0.9847
2.5764 -2.3645 -1.6187 0.9847
2.6596 -2.2704 -1.6187 0.9847
2.7395 -2.1735 -1.6187 0.9847
3.0224 -1.7589 -1.6187 0.9847
3.1940 -1.4237 -1.6187 0.9847
0.1258 -3.2976 -1.6187 0.9854
0.3621 -3.2800 -1.6187 0.9854
0.4796 -3.2649 -1.6187 0.9854
0.5966 -3.2456 -1.6187 0.9854
0.9421 -3.1626 -1.6187 0.9854
1.1667 -3.0868 -1.6187 0.9854
1.2767 -3.0429 -1.6187 0.9854
1.6993 -2.8288 -1.6187 0.9854
1.9936 -2.6296 -1.6187 0.9854
2.0867 -2.5564 -1.6187 0.9854
2.2648 -2.4000 -1.6187 0.9854
2.3496 -2.3171 -1.6187 0.9854
2.5098 -2.1425 -1.6187 0.9854
2.5851 -2.0510 -1.6187 0.9854
2.7256 -1.8602 -1.6187 0.9854
2.9099 -1.5563 -1.6187 0.9854
3.0141 -1.3435 -1.6187 0.9854
3.0604 -1.2344 -1.6187 0.9854
0.1189 -3.1179 -1.6187 0.9860
0.4535 -3.0871 -1.6187 0.9860
0.5641 -3.0688 -1.6187 0.9860
0.6739 -3.0466 -1.6187 0.9860
0.7829 -3.0204 -1.6187 0.9860
0.9976 -2.9564 -1.6187 0.9860
1.3097 -2.8320 -1.6187 0.9860
1.4106 -2.7831 -1.6187 0.9860
1.5096 -2.7307 -1.6187 0.9860
1.6067 -2.6747 -1.6187 0.9860
1.8850 -2.4864 -1.6187 0.9860
2.0586 -2.3447 -1.6187 0.9860
2.1415 -2.2693 -1.6187 0.9860
2.2216 -2.1909 -1.6187 0.9860
2.2988 -2.1097 -1.6187 0.9860
2.3731 -2.0258 -1.6187 0.9860
2.5124 -1.8503 -1.6187 0.9860
2.5772 -1.7589 -1.6187 0.9860
2.6387 -1.6652 -1.6187 0.9860
2.7514 -1.4716 -1.6187 0.9860
2.8025 -1.3718 -1.6187 0.9860
2.8499 -1.2703 -1.6187 0.9860
2.8937 -1.1671 -1.6187 0.9860
0.3243 -2.9376 -1.6187 0.9866
0.5343 -2.9067 -1.6187 0.9866
0.8438 -2.8324 -1.6187 0.9866
0.9450 -2.8003 -1.6187 0.9866
1.3361 -2.6361 -1.6187 0.9866
1.4299 -2.5865 -1.6187 0.9866
1.5219 -2.5335 -1.6187 0.9866
1.6119 -2.4772 -1.6187 0.9866
1.6998 -2.4177 -1.6187 0.9866
1.8689 -2.2895 -1.6187 0.9866
1.9499 -2.2209 -1.6187 0.9866
2.0284 -2.1494 -1.6187 0.9866
2.1042 -2.0752 -1.6187 0.9866
2.1774 -1.9983 -1.6187 0.9866
2.2478 -1.9188 -1.6187 0.9866
2.4411 -1.6660 -1.6187 0.9866
2.4993 -1.5773 -1.6187 0.9866
2.6545 -1.2994 -1.6187 0.9866
2.7409 -1.1055 -1.6187 0.9866
0.3077 -2.7867 -1.6187 0.9871
0.4075 -2.7739 -1.6187 0.9871
0.8005 -2.6870 -1.6187 0.9871
0.9912 -2.6226 -1.6187 0.9871
1.1769 -2.5447 -1.6187 0.9871
1.2675 -2.5008 -1.6187 0.9871
1.5291 -2.3500 -1.6187 0.9871
1.6125 -2.2936 -1.6187 0.9871
1.6938 -2.2342 -1.6187 0.9871
1.7729 -2.1719 -1.6187 0.9871
1.8498 -2.1069 -1.6187 0.9871
1.9242 -2.0391 -1.6187 0.9871
2.1324 -1.8203 -1.6187 0.9871
2.2575 -1.6626 -1.6187 0.9871
2.3157 -1.5804 -1.6187 0.9871
2.3710 -1.4963 -1.6187 0.9871
2.4232 -1.4102 -1.6187 0.9871
2.4723 -1.3223 -1.6187 0.9871
2.5182 -1.2326 -1.6187 0.9871
2.5608 -1.1414 -1.6187 0.9871
2.6001 -1.0487 -1.6187 0.9871
