ply
format ascii 1.0
element vertex 498
property float32 x
property float32 y
property float32 z
property float32 I
end_header
2.8557 6.6327 1.2733 0.9711
-4.9206 47.9932 8.5069 0.8220
-6.0960 43.7305 7.7854 0.8358
-7.9220 36.9536 6.6640 0.8577
-8.6363 34.1760 6.2156 0.8666
-8.7243 29.9051 5.4929 0.8811
-9.7713 26.2355 4.9365 0.8925
-10.4408 25.1943 4.8088 0.8951
-11.3204 24.7353 4.7966 0.8954
-12.1615 22.1622 4.4575 0.9024
2.8553 6.6319 1.1061 0.9712
-5.6359 40.4302 6.2536 0.8477
-6.9680 39.4456 6.1364 0.8504
-8.6615 34.2757 5.4159 0.8667
-8.7193 29.8877 4.7695 0.8816
-10.3739 25.0329 4.1512 0.8961
-11.3204 24.7353 4.1673 0.8958
2.8550 6.6312 0.9402 0.9713
-5.6662 40.6473 5.3443 0.8474
-6.9732 39.4753 5.2201 0.8507
-7.9220 36.9537 4.9215 0.8586
-9.6135 25.8117 3.5868 0.8948
-11.2930 24.6754 3.5338 0.8963
15.5239 19.9645 2.7153 0.9033
-3.2567 49.3992 5.3161 0.8194
-6.9343 39.2549 4.2805 0.8518
-8.6614 34.2752 3.7962 0.8674
-8.7675 30.0531 3.3617 0.8817
-10.4576 28.0780 3.2174 0.8864
-10.8974 26.2961 3.0566 0.8918
-11.3255 24.7464 2.9224 0.8963
-12.0655 21.9874 2.6932 0.9040
2.8544 6.6297 0.6110 0.9714
-3.2604 49.4540 4.1955 0.8196
-6.9554 39.3742 3.3847 0.8517
-8.6615 34.2758 2.9928 0.8677
-9.3555 32.0684 2.8278 0.8745
-8.6559 23.2407 2.0994 0.9052
-9.0375 21.8079 1.9984 0.9096
-12.1462 24.1777 2.2905 0.8971
-12.0296 21.9220 2.1168 0.9045
15.5199 19.9593 1.5678 0.9036
2.8540 6.6289 0.4475 0.9715
-5.8615 33.1818 2.0895 0.8737
-9.0375 21.8079 1.4638 0.9097
-6.1509 44.1248 1.7567 0.8367
-7.0816 40.0889 1.6052 0.8496
-8.7439 34.6019 1.4073 0.8669
-10.4576 28.0779 1.1814 0.8870
15.5141 19.9518 0.4269 0.9038
18.3025 32.2970 0.6271 0.8620
-4.8174 46.9867 0.7978 0.8278
-5.8015 32.8423 0.5634 0.8751
-6.4642 30.1535 0.5209 0.8839
-7.6509 26.2255 0.4615 0.8965
-8.0809 24.3691 0.4337 0.9024
-8.5583 22.9787 0.4142 0.9066
-8.9468 21.5891 0.3948 0.9107
-9.3008 20.3224 0.3775 0.9145
-9.9254 18.0875 0.3485 0.9208
15.5111 19.9481 -0.1423 0.9039
17.8431 28.9787 -0.1916 0.8727
-4.8196 47.0080 -0.2660 0.8278
-4.9557 35.5507 -0.2021 0.8663
-7.6509 26.2255 -0.1538 0.8965
-8.9467 21.5890 -0.1316 0.9108
-9.3008 20.3224 -0.1258 0.9145
-9.9254 18.0875 -0.1162 0.9208
18.9933 33.5161 -1.0848 0.8571
2.8527 6.6259 -0.2031 0.9715
-2.9974 45.4657 -1.2830 0.8333
-4.7523 46.3520 -1.3120 0.8299
-4.9557 35.5506 -1.0107 0.8662
-6.4642 30.1534 -0.8683 0.8839
-7.1133 28.1490 -0.8175 0.8903
-7.6509 26.2255 -0.7692 0.8964
-9.3008 20.3224 -0.6293 0.9144
-9.9254 18.0875 -0.5809 0.9208
15.3998 19.8049 -1.2723 0.9044
16.9044 23.4507 -1.4661 0.8907
15.1572 24.6166 -1.4661 0.8907
14.2530 25.1511 -1.4661 0.8907
12.3893 26.1201 -1.4661 0.8907
2.8524 6.6252 -0.3658 0.9715
10.4602 26.9512 -1.4661 0.8907
9.4742 27.3137 -1.4662 0.8907
1.2481 28.8852 -1.4663 0.8907
0.1978 28.9116 -1.4663 0.8907
-0.8526 28.9000 -1.4663 0.8907
-1.9020 28.8502 -1.4663 0.8907
-2.9488 28.7623 -1.4663 0.8907
-3.9911 28.6362 -1.4663 0.8907
-5.0299 28.4727 -1.4663 0.8907
-7.6509 26.2255 -1.3854 0.8964
-9.3008 20.3224 -1.1334 0.9144
-9.5685 19.0467 -1.0810 0.9182
-9.9254 18.0874 -1.0463 0.9207
12.2740 15.7850 -1.4661 0.9229
11.0956 16.6347 -1.4661 0.9229
9.8585 17.3966 -1.4661 0.9229
9.2201 17.7434 -1.4661 0.9229
8.5695 18.0668 -1.4662 0.9229
7.2350 18.6415 -1.4662 0.9229
6.5531 18.8921 -1.4662 0.9229
3.7477 19.6426 -1.4662 0.9229
3.0317 19.7658 -1.4662 0.9229
1.5885 19.9340 -1.4662 0.9229
0.8632 19.9787 -1.4662 0.9229
0.1368 19.9970 -1.4663 0.9229
-0.5897 19.9889 -1.4663 0.9229
-1.3155 19.9544 -1.4663 0.9229
-4.8996 19.3888 -1.4663 0.9229
-6.9800 18.7409 -1.4663 0.9229
-9.6210 17.5327 -1.4664 0.9229
9.8060 11.7072 -1.4661 0.9405
7.0418 13.5514 -1.4662 0.9405
2.8518 6.6237 -0.6923 0.9714
5.5257 14.2373 -1.4662 0.9405
3.4054 14.8878 -1.4662 0.9405
2.8623 15.0017 -1.4662 0.9405
1.7655 15.1701 -1.4662 0.9405
1.2132 15.2243 -1.4662 0.9405
0.1045 15.2723 -1.4663 0.9405
-0.4504 15.2661 -1.4663 0.9405
-1.5577 15.1932 -1.4663 0.9405
-2.1086 15.1267 -1.4663 0.9405
-2.6568 15.0401 -1.4663 0.9405
-3.2015 14.9337 -1.4663 0.9405
-3.7419 14.8077 -1.4663 0.9405
-4.8073 14.4970 -1.4663 0.9405
7.9255 9.4621 -1.4662 0.9515
7.5766 9.7438 -1.4662 0.9515
5.6914 10.9526 -1.4662 0.9515
5.2897 11.1521 -1.4662 0.9515
4.0450 11.6616 -1.4662 0.9515
3.6187 11.8009 -1.4662 0.9515
3.1876 11.9246 -1.4662 0.9515
2.7523 12.0326 -1.4662 0.9515
1.8713 12.2008 -1.4662 0.9515
1.4269 12.2607 -1.4662 0.9515
0.5329 12.3321 -1.4662 0.9515
0.0845 12.3433 -1.4662 0.9515
-1.2590 12.2794 -1.4663 0.9515
-2.1472 12.1556 -1.4663 0.9515
-3.0242 11.9677 -1.4663 0.9515
-3.4570 11.8500 -1.4663 0.9515
-5.1370 11.2245 -1.4663 0.9515
-5.5414 11.0305 -1.4663 0.9515
7.2013 8.5975 -1.5890 0.9557
6.0510 8.3942 -1.4662 0.9591
5.7420 8.6085 -1.4662 0.9591
5.4255 8.8115 -1.4662 0.9591
5.1018 9.0028 -1.4662 0.9591
3.0338 9.8934 -1.4662 0.9591
2.6724 9.9971 -1.4662 0.9591
1.9394 10.1648 -1.4662 0.9591
1.5689 10.2286 -1.4662 0.9591
1.1962 10.2789 -1.4662 0.9591
0.8220 10.3155 -1.4662 0.9591
0.4467 10.3386 -1.4662 0.9591
0.0708 10.3481 -1.4662 0.9591
-0.3052 10.3438 -1.4663 0.9591
-0.6807 10.3260 -1.4663 0.9591
-1.0554 10.2945 -1.4663 0.9591
-1.4287 10.2494 -1.4663 0.9591
-1.8001 10.1907 -1.4663 0.9591
-2.1692 10.1186 -1.4663 0.9591
-2.5354 10.0331 -1.4663 0.9591
-3.6119 9.6978 -1.4663 0.9591
-4.3066 9.4100 -1.4663 0.9591
-4.6456 9.2474 -1.4663 0.9591
6.3054 7.5279 -1.6177 0.9610
6.0073 7.7256 -1.6122 0.9611
5.3687 7.4477 -1.5125 0.9635
4.9387 7.4041 -1.4662 0.9646
4.6664 7.5786 -1.4662 0.9646
4.3880 7.7432 -1.4662 0.9646
3.8142 8.0414 -1.4662 0.9646
2.7893 6.4786 -1.1620 0.9718
3.2203 8.2972 -1.4662 0.9646
2.9167 8.4087 -1.4662 0.9646
2.6093 8.5091 -1.4662 0.9646
2.2985 8.5983 -1.4662 0.9646
1.6681 8.7426 -1.4662 0.9646
1.3493 8.7974 -1.4662 0.9646
0.7070 8.8722 -1.4662 0.9646
-0.2625 8.8965 -1.4663 0.9646
-0.9077 8.8540 -1.4663 0.9646
-1.2288 8.8152 -1.4663 0.9646
-1.8657 8.7028 -1.4663 0.9646
-2.1806 8.6293 -1.4663 0.9646
-2.8015 8.4482 -1.4663 0.9646
-3.1065 8.3409 -1.4663 0.9646
-3.4075 8.2225 -1.4663 0.9646
-3.9956 7.9534 -1.4663 0.9646
-4.2819 7.8031 -1.4663 0.9646
4.7050 7.0538 -1.5937 0.9661
4.1900 6.8048 -1.5021 0.9680
3.5968 6.9218 -1.4662 0.9688
2.8224 7.2721 -1.4662 0.9687
2.2870 7.4579 -1.4662 0.9687
1.7394 7.6043 -1.4662 0.9687
1.4620 7.6625 -1.4662 0.9687
1.1826 7.7105 -1.4662 0.9687
0.6197 7.7761 -1.4662 0.9687
0.3367 7.7935 -1.4662 0.9687
0.0534 7.8006 -1.4662 0.9687
-0.2300 7.7974 -1.4662 0.9687
-0.7956 7.7602 -1.4663 0.9687
-1.6352 7.6276 -1.4663 0.9687
-1.9112 7.5632 -1.4663 0.9687
-2.1847 7.4887 -1.4663 0.9687
-2.4553 7.4044 -1.4663 0.9687
-2.7227 7.3104 -1.4663 0.9687
-2.9865 7.2066 -1.4663 0.9687
-3.7529 6.8390 -1.4663 0.9687
4.9169 5.8701 -1.6186 0.9692
4.7004 6.0448 -1.6186 0.9692
4.4776 6.2116 -1.6186 0.9692
3.7050 6.5378 -1.5884 0.9697
3.3083 6.3666 -1.5166 0.9711
2.2732 6.5533 -1.4662 0.9720
2.0336 6.6316 -1.4662 0.9720
1.5467 6.7618 -1.4662 0.9720
1.3000 6.8136 -1.4662 0.9720
0.2994 6.9301 -1.4662 0.9720
0.0475 6.9364 -1.4662 0.9720
-0.2046 6.9335 -1.4662 0.9720
-0.4563 6.9215 -1.4663 0.9720
-1.4540 6.7825 -1.4663 0.9720
-1.6995 6.7252 -1.4663 0.9720
-1.9427 6.6590 -1.4663 0.9720
-2.6556 6.4082 -1.4663 0.9720
-2.8867 6.3075 -1.4663 0.9720
4.4222 5.2796 -1.6186 0.9721
4.2275 5.4367 -1.6186 0.9721
4.0272 5.5868 -1.6186 0.9721
3.8216 5.7294 -1.6186 0.9721
3.6109 5.8644 -1.6186 0.9721
3.1663 6.0933 -1.6139 0.9722
2.9263 6.1694 -1.6048 0.9723
2.2976 5.9199 -1.4924 0.9742
2.0445 5.8941 -1.4662 0.9747
1.3911 6.0816 -1.4662 0.9747
0.9458 6.1665 -1.4662 0.9747
0.4956 6.2190 -1.4662 0.9747
0.2693 6.2329 -1.4662 0.9747
0.0427 6.2386 -1.4662 0.9747
-0.6363 6.2062 -1.4663 0.9747
-1.0853 6.1437 -1.4663 0.9747
-1.3077 6.1002 -1.4663 0.9747
-1.9637 5.9217 -1.4663 0.9747
-2.1775 5.8465 -1.4663 0.9747
-2.3885 5.7635 -1.4663 0.9747
-2.5963 5.6729 -1.4663 0.9747
-3.0014 5.4695 -1.4663 0.9747
4.0141 4.7923 -1.6186 0.9745
3.4689 5.2007 -1.6186 0.9745
3.0821 5.4388 -1.6186 0.9745
2.8825 5.5472 -1.6186 0.9745
2.6772 5.6442 -1.6174 0.9745
2.4662 5.7281 -1.6147 0.9746
2.2529 5.8046 -1.6121 0.9746
2.0039 5.7772 -1.5833 0.9751
1.7402 5.6747 -1.5368 0.9758
1.4910 5.5776 -1.4948 0.9764
1.2627 5.5203 -1.4662 0.9769
1.0614 5.5626 -1.4662 0.9769
-0.1670 5.6605 -1.4662 0.9769
-0.3725 5.6507 -1.4662 0.9769
-0.7818 5.6087 -1.4663 0.9769
-0.9851 5.5767 -1.4663 0.9769
-1.7824 5.3752 -1.4663 0.9769
-2.3567 5.1494 -1.4663 0.9769
-2.5422 5.0604 -1.4663 0.9769
-2.7244 4.9647 -1.4663 0.9769
3.5097 4.5136 -1.6186 0.9765
3.3434 4.6381 -1.6186 0.9765
3.1727 4.7565 -1.6186 0.9765
2.9978 4.8687 -1.6186 0.9765
2.8190 4.9744 -1.6186 0.9765
2.6364 5.0735 -1.6186 0.9765
2.4503 5.1659 -1.6186 0.9765
2.2610 5.2515 -1.6186 0.9765
2.0684 5.3293 -1.6183 0.9765
1.2505 5.4671 -1.5877 0.9770
0.6100 5.2413 -1.4938 0.9783
0.0355 5.1792 -1.4662 0.9787
-0.1527 5.1771 -1.4662 0.9787
-0.5282 5.1524 -1.4662 0.9787
-0.7151 5.1298 -1.4663 0.9787
-1.4505 4.9721 -1.4663 0.9787
-1.6302 4.9162 -1.4663 0.9787
-1.9829 4.7848 -1.4663 0.9787
-2.1554 4.7096 -1.4663 0.9787
-2.4917 4.5407 -1.4663 0.9787
3.3791 4.0342 -1.6186 0.9782
2.7592 4.4811 -1.6186 0.9782
2.2553 4.7547 -1.6186 0.9782
2.0810 4.8335 -1.6186 0.9782
1.9041 4.9059 -1.6186 0.9782
1.7246 4.9718 -1.6186 0.9782
1.3583 5.0810 -1.6177 0.9782
0.9836 5.1553 -1.6143 0.9783
0.7949 5.1826 -1.6127 0.9783
0.4101 5.1463 -1.5879 0.9786
0.0343 5.0168 -1.5431 0.9792
-0.4967 4.8448 -1.4980 0.9798
-1.6668 4.4752 -1.4688 0.9802
-1.9996 4.3691 -1.4779 0.9801
-2.3396 4.2635 -1.4958 0.9799
2.7020 4.0509 -1.6186 0.9797
2.4008 4.2364 -1.6186 0.9797
2.2453 4.3208 -1.6186 0.9797
1.9256 4.4725 -1.6186 0.9797
1.7619 4.5395 -1.6186 0.9797
1.5958 4.6005 -1.6186 0.9797
1.4276 4.6554 -1.6186 0.9797
1.2575 4.7042 -1.6186 0.9797
0.9126 4.7831 -1.6186 0.9797
0.7381 4.8119 -1.6182 0.9797
0.5623 4.8315 -1.6169 0.9797
0.2097 4.8522 -1.6144 0.9797
-0.4943 4.8214 -1.6111 0.9798
-0.8324 4.7123 -1.5907 0.9800
-0.9984 4.6572 -1.5833 0.9801
-1.4930 4.5023 -1.5767 0.9802
-1.6582 4.4521 -1.5792 0.9802
-1.9908 4.3500 -1.5902 0.9800
-2.1591 4.2978 -1.5988 0.9799
2.9064 3.4698 -1.6186 0.9810
2.5116 3.7654 -1.6186 0.9810
2.0871 4.0163 -1.6186 0.9810
1.4833 4.2763 -1.6186 0.9810
1.3270 4.3274 -1.6186 0.9810
1.0093 4.4123 -1.6186 0.9810
0.3596 4.5120 -1.6186 0.9810
0.1954 4.5221 -1.6186 0.9810
0.0310 4.5262 -1.6186 0.9810
-0.4610 4.4966 -1.6165 0.9810
-0.6239 4.4754 -1.6159 0.9810
-0.9467 4.4161 -1.6151 0.9810
-1.1063 4.3780 -1.6148 0.9810
-1.2646 4.3347 -1.6148 0.9810
-1.7291 4.1724 -1.6151 0.9810
-2.1745 3.9626 -1.6164 0.9810
2.7121 3.2379 -1.6186 0.9821
2.5927 3.3343 -1.6186 0.9821
2.4699 3.4263 -1.6186 0.9821
1.9476 3.7479 -1.6186 0.9821
1.8101 3.8162 -1.6186 0.9821
1.6703 3.8795 -1.6186 0.9821
1.2383 4.0382 -1.6186 0.9821
0.9418 4.1174 -1.6186 0.9821
0.7916 4.1489 -1.6186 0.9821
0.6404 4.1750 -1.6186 0.9821
0.3355 4.2104 -1.6186 0.9821
0.0289 4.2237 -1.6186 0.9821
-0.2779 4.2147 -1.6186 0.9821
-0.4308 4.2018 -1.6186 0.9821
-0.5831 4.1834 -1.6186 0.9821
-1.6170 3.9021 -1.6187 0.9821
-1.7578 3.8407 -1.6187 0.9821
-2.0320 3.7030 -1.6187 0.9821
2.5395 3.0318 -1.6186 0.9831
2.4276 3.1221 -1.6186 0.9831
2.0736 3.3676 -1.6186 0.9831
1.9499 3.4408 -1.6186 0.9831
1.8236 3.5093 -1.6186 0.9831
1.1595 3.7811 -1.6186 0.9831
0.8819 3.8553 -1.6186 0.9831
0.5996 3.9092 -1.6186 0.9831
0.3142 3.9424 -1.6186 0.9831
0.1707 3.9512 -1.6186 0.9831
-0.4033 3.9343 -1.6186 0.9831
-0.5460 3.9170 -1.6186 0.9831
-0.6880 3.8946 -1.6186 0.9831
-0.8290 3.8670 -1.6187 0.9831
-0.9689 3.8344 -1.6187 0.9831
-1.1076 3.7966 -1.6187 0.9831
-1.2448 3.7539 -1.6187 0.9831
-1.3804 3.7062 -1.6187 0.9831
2.1718 3.0128 -1.6186 0.9839
1.8311 3.2312 -1.6186 0.9839
1.7125 3.2956 -1.6186 0.9839
1.4687 3.4113 -1.6186 0.9839
1.2171 3.5089 -1.6186 0.9839
1.0889 3.5508 -1.6186 0.9839
0.9592 3.5880 -1.6186 0.9839
0.8282 3.6205 -1.6186 0.9839
0.6961 3.6482 -1.6186 0.9839
0.4293 3.6891 -1.6186 0.9839
0.1603 3.7106 -1.6186 0.9839
0.0254 3.7139 -1.6186 0.9839
-0.1095 3.7124 -1.6186 0.9839
-0.2443 3.7060 -1.6186 0.9839
-0.3788 3.6947 -1.6186 0.9839
-0.5128 3.6785 -1.6186 0.9839
-0.6461 3.6574 -1.6186 0.9839
-1.4219 3.4311 -1.6187 0.9839
-1.5456 3.3772 -1.6187 0.9839
-1.6673 3.3188 -1.6187 0.9839
2.2454 2.6807 -1.6186 0.9847
2.0448 2.8366 -1.6186 0.9847
1.9404 2.9090 -1.6186 0.9847
1.4986 3.1594 -1.6186 0.9847
1.3828 3.2118 -1.6186 0.9847
1.2652 3.2599 -1.6186 0.9847
0.4042 3.4734 -1.6186 0.9847
-0.2300 3.4893 -1.6186 0.9847
-0.3566 3.4786 -1.6186 0.9847
-0.4828 3.4634 -1.6186 0.9847
-0.6083 3.4435 -1.6186 0.9847
-0.8567 3.3903 -1.6187 0.9847
-0.9793 3.3569 -1.6187 0.9847
-1.4552 3.1797 -1.6187 0.9847
-1.5698 3.1247 -1.6187 0.9847
1.9296 2.6768 -1.6186 0.9854
1.8311 2.7451 -1.6186 0.9854
1.7301 2.8098 -1.6186 0.9854
1.4142 2.9814 -1.6186 0.9854
1.3049 3.0308 -1.6186 0.9854
0.9674 3.1548 -1.6186 0.9854
0.8522 3.1879 -1.6186 0.9854
0.7358 3.2167 -1.6186 0.9854
0.6184 3.2413 -1.6186 0.9854
0.5003 3.2617 -1.6186 0.9854
0.3815 3.2777 -1.6186 0.9854
0.0226 3.2997 -1.6186 0.9854
-0.0973 3.2984 -1.6186 0.9854
-0.4556 3.2682 -1.6186 0.9854
-0.5740 3.2495 -1.6186 0.9854
-0.8085 3.1993 -1.6187 0.9854
-0.9241 3.1678 -1.6187 0.9854
-1.2633 3.0484 -1.6187 0.9854
-1.3732 3.0005 -1.6187 0.9854
-1.4813 2.9487 -1.6187 0.9854
-1.5875 2.8929 -1.6187 0.9854
2.0034 2.3918 -1.6186 0.9860
1.9152 2.4630 -1.6186 0.9860
1.8245 2.5310 -1.6186 0.9860
1.6359 2.6568 -1.6186 0.9860
1.5383 2.7145 -1.6186 0.9860
1.4387 2.7686 -1.6186 0.9860
1.2338 2.8657 -1.6186 0.9860
0.9147 2.9830 -1.6186 0.9860
0.5848 3.0648 -1.6186 0.9860
0.4730 3.0840 -1.6186 0.9860
0.2478 3.1102 -1.6186 0.9860
0.0214 3.1200 -1.6186 0.9860
-0.0920 3.1187 -1.6186 0.9860
-0.3182 3.1038 -1.6186 0.9860
-0.4308 3.0902 -1.6186 0.9860
-0.5427 3.0725 -1.6186 0.9860
-0.6540 3.0508 -1.6186 0.9860
-0.7644 3.0250 -1.6186 0.9860
-0.8738 2.9952 -1.6187 0.9860
-1.0890 2.9239 -1.6187 0.9860
-1.1945 2.8824 -1.6187 0.9860
-1.4006 2.7881 -1.6187 0.9860
1.8141 2.3330 -1.6186 0.9866
1.7281 2.3973 -1.6186 0.9866
1.3627 2.6224 -1.6186 0.9866
1.1687 2.7144 -1.6186 0.9866
0.9685 2.7921 -1.6186 0.9866
0.8664 2.8254 -1.6186 0.9866
0.7632 2.8550 -1.6186 0.9866
0.1276 2.9525 -1.6186 0.9866
-0.1944 2.9489 -1.6186 0.9866
-0.5141 2.9103 -1.6186 0.9866
-0.6195 2.8897 -1.6186 0.9866
-0.7240 2.8653 -1.6186 0.9866
-1.0315 2.7695 -1.6187 0.9866
-1.2299 2.6873 -1.6187 0.9866
-1.4217 2.5909 -1.6187 0.9866
1.7209 2.2132 -1.6186 0.9871
1.4699 2.3873 -1.6186 0.9871
1.3823 2.4391 -1.6186 0.9871
1.1087 2.5750 -1.6186 0.9871
0.8220 2.6803 -1.6186 0.9871
0.7240 2.7084 -1.6186 0.9871
0.6251 2.7330 -1.6186 0.9871
0.4250 2.7711 -1.6186 0.9871
0.2227 2.7947 -1.6186 0.9871
0.0192 2.8035 -1.6186 0.9871
-0.1844 2.7975 -1.6186 0.9871
-0.2859 2.7889 -1.6186 0.9871
-0.3871 2.7767 -1.6186 0.9871
-0.4877 2.7608 -1.6186 0.9871
-0.5877 2.7413 -1.6186 0.9871
-0.6869 2.7181 -1.6186 0.9871
-0.7851 2.6914 -1.6186 0.9871
-0.8824 2.6611 -1.6187 0.9871
-0.9785 2.6273 -1.6187 0.9871
-1.0733 2.5900 -1.6187 0.9871
-1.1667 2.5493 -1.6187 0.9871
-1.2585 2.5052 -1.6187 0.9871
-1.3487 2.4578 -1.6187 0.9871
