ply
format ascii 1.0
element vertex 434
property float32 x
property float32 y
property float32 z
property float32 I
end_header
17.2330 -18.7788 4.4942 0.9017
0.8373 -45.4328 6.9612 0.8320
7.5889 -46.0753 7.1536 0.8278
9.4165 -46.5862 7.2811 0.8250
4.1081 -45.1025 5.8976 0.8330
5.8219 -45.5814 5.9839 0.8308
9.4165 -46.5862 6.1892 0.8255
11.3130 -47.1162 6.3099 0.8225
6.5520 -23.5046 3.1775 0.9063
17.2213 -18.7661 3.3168 0.9024
4.1081 -45.1025 4.8632 0.8334
7.5888 -46.0754 5.0143 0.8287
9.4165 -46.5862 5.1037 0.8260
17.2175 -18.7619 2.7344 0.9026
7.5888 -46.0753 3.9530 0.8291
9.4165 -46.5862 4.0234 0.8263
13.2786 -41.7322 3.7073 0.8388
17.1192 -42.8035 3.9025 0.8311
13.6054 -30.7412 2.8458 0.8738
17.2136 -18.7578 2.1552 0.9028
4.1081 -45.1025 2.8084 0.8340
7.5889 -46.0754 2.8956 0.8293
11.3130 -47.1162 3.0047 0.8235
13.2786 -41.7323 2.7157 0.8390
16.2237 -40.5645 2.7091 0.8394
20.4707 -42.0689 2.9012 0.8290
22.7194 -42.6898 2.9987 0.8238
17.2098 -18.7536 1.5784 0.9030
7.5888 -46.0754 1.8413 0.8295
9.4165 -46.5862 1.8741 0.8267
23.9827 -41.3787 1.8858 0.8258
17.2060 -18.7495 1.0034 0.9031
4.1081 -45.1025 0.7650 0.8343
5.8219 -45.5814 0.7762 0.8321
7.5888 -46.0754 0.7888 0.8296
13.2786 -41.7323 0.7398 0.8393
18.4181 -37.8506 0.7110 0.8450
22.6083 -39.0074 0.7616 0.8350
24.9413 -39.6515 0.7913 0.8291
4.1081 -45.1025 -0.2550 0.8343
7.5889 -46.0754 -0.2629 0.8296
9.4165 -46.5862 -0.2676 0.8269
14.0112 -39.0788 -0.2337 0.8470
14.6721 -36.6849 -0.2224 0.8538
15.6831 -35.4356 -0.2182 0.8564
17.4850 -35.9331 -0.2250 0.8523
21.4631 -37.0314 -0.2410 0.8426
26.0758 -38.3048 -0.2609 0.8308
28.6875 -39.0258 -0.2727 0.8239
4.1081 -45.1025 -1.2752 0.8342
5.8219 -45.5814 -1.2939 0.8320
9.4165 -46.5862 -1.3383 0.8268
11.3130 -47.1162 -1.3644 0.8237
12.4598 -44.6982 -1.3066 0.8305
14.0112 -39.0788 -1.1690 0.8469
18.5773 -34.9068 -1.1134 0.8537
27.1566 -36.9433 -1.2911 0.8324
29.8671 -37.6917 -1.3541 0.8249
17.1239 -18.6599 -0.7131 0.9036
12.5959 -11.8736 -0.4874 0.9331
13.7329 -10.3810 -0.4847 0.9334
15.0576 -10.5482 -0.5177 0.9291
32.7073 -21.1899 -1.0974 0.8556
2.6907 -29.5409 -1.5043 0.8880
3.7568 -29.4129 -1.5038 0.8880
4.8246 -29.2923 -1.5055 0.8879
6.9209 -28.8245 -1.5034 0.8880
7.9528 -28.5303 -1.5021 0.8881
10.9921 -27.4838 -1.5012 0.8882
11.9690 -27.0438 -1.4998 0.8883
12.9289 -26.5700 -1.4985 0.8884
13.8849 -26.0901 -1.4989 0.8884
17.4676 -23.7626 -1.4957 0.8886
17.0493 -18.5787 -1.2788 0.9039
12.5951 -11.8729 -0.8778 0.9330
23.3736 -17.6685 -1.4859 0.8893
15.0904 -9.7765 -0.9119 0.9305
15.1094 -9.0297 -0.8927 0.9319
25.5793 -14.0560 -1.4802 0.8897
0.2475 -13.4318 -0.9850 0.9475
1.8140 -19.9153 -1.4663 0.9229
2.5336 -19.8365 -1.4663 0.9229
3.9620 -19.6011 -1.4663 0.9229
4.6689 -19.4448 -1.4663 0.9229
6.7491 -18.8239 -1.4662 0.9229
7.4260 -18.5672 -1.4662 0.9229
8.0931 -18.2862 -1.4662 0.9229
8.7497 -17.9813 -1.4662 0.9229
10.0276 -17.3010 -1.4662 0.9229
10.6471 -16.9267 -1.4662 0.9229
11.2528 -16.5302 -1.4662 0.9229
11.8437 -16.1120 -1.4662 0.9229
12.4191 -15.6727 -1.4662 0.9229
12.6564 -12.8270 -1.3213 0.9303
12.6330 -11.9086 -1.2730 0.9327
13.8782 -10.4908 -1.2756 0.9326
17.5247 -9.6299 -1.4662 0.9229
0.8340 -15.2503 -1.4663 0.9405
1.3854 -15.2100 -1.4663 0.9405
1.9350 -15.1499 -1.4663 0.9405
2.4821 -15.0699 -1.4663 0.9405
3.5658 -14.8508 -1.4663 0.9405
4.1010 -14.7119 -1.4663 0.9405
6.1811 -13.9660 -1.4662 0.9405
7.1752 -13.4822 -1.4662 0.9405
7.6585 -13.2136 -1.4662 0.9405
8.1317 -12.9277 -1.4662 0.9405
8.5943 -12.6249 -1.4662 0.9405
9.0456 -12.3055 -1.4662 0.9405
9.9121 -11.6188 -1.4662 0.9405
11.4026 -10.7488 -1.5044 0.9390
11.9599 -10.4830 -1.5268 0.9381
13.6809 -9.5838 -1.6036 0.9351
14.4684 -8.6466 -1.6182 0.9345
0.2511 -13.6247 -1.6187 0.9466
0.7441 -13.6066 -1.6187 0.9466
1.2361 -13.5708 -1.6187 0.9466
2.6998 -13.3567 -1.6187 0.9466
3.6590 -13.1263 -1.6187 0.9466
4.5990 -12.8272 -1.6187 0.9466
5.5149 -12.4608 -1.6187 0.9466
5.9623 -12.2530 -1.6187 0.9466
6.4019 -12.0292 -1.6186 0.9466
7.2554 -11.5344 -1.6186 0.9466
7.6681 -11.2643 -1.6186 0.9466
9.9154 -9.3469 -1.6186 0.9466
11.1604 -7.8181 -1.6186 0.9466
11.6967 -6.9902 -1.6186 0.9466
11.9421 -6.5623 -1.6186 0.9466
0.2105 -11.4223 -1.6187 0.9549
1.0363 -11.3771 -1.6187 0.9549
3.4639 -10.8863 -1.6187 0.9549
4.9986 -10.2724 -1.6187 0.9549
6.0826 -9.6700 -1.6187 0.9549
6.4286 -9.4435 -1.6187 0.9549
6.7662 -9.2046 -1.6187 0.9549
7.0950 -8.9537 -1.6186 0.9549
7.4143 -8.6910 -1.6186 0.9549
7.7241 -8.4169 -1.6186 0.9549
8.0237 -8.1318 -1.6186 0.9549
8.3127 -7.8360 -1.6186 0.9549
8.8578 -7.2141 -1.6186 0.9549
9.1131 -6.8888 -1.6186 0.9549
9.5876 -6.2114 -1.6186 0.9549
10.0118 -5.5016 -1.6186 0.9549
10.2044 -5.1356 -1.6186 0.9549
0.5365 -9.8112 -1.6187 0.9609
0.8913 -9.7853 -1.6187 0.9609
1.2449 -9.7466 -1.6187 0.9610
1.5968 -9.6951 -1.6187 0.9610
1.9467 -9.6310 -1.6187 0.9610
2.2940 -9.5542 -1.6187 0.9610
2.6384 -9.4649 -1.6187 0.9610
3.6487 -9.1231 -1.6187 0.9610
3.9766 -8.9850 -1.6187 0.9610
4.6162 -8.6738 -1.6187 0.9610
5.2315 -8.3171 -1.6187 0.9610
6.1023 -7.7009 -1.6187 0.9610
7.1497 -6.7397 -1.6187 0.9610
7.3889 -6.4765 -1.6186 0.9610
8.0474 -5.6373 -1.6186 0.9610
8.4341 -5.0404 -1.6186 0.9610
8.6110 -4.7318 -1.6186 0.9610
1.0911 -8.5425 -1.6187 0.9656
1.7062 -8.4411 -1.6187 0.9656
2.6112 -8.2064 -1.6187 0.9656
3.1980 -7.9960 -1.6187 0.9656
3.7681 -7.7437 -1.6187 0.9656
4.0459 -7.6022 -1.6187 0.9656
5.1006 -6.9387 -1.6187 0.9656
5.3484 -6.7496 -1.6187 0.9656
5.8226 -6.3449 -1.6187 0.9656
6.2664 -5.9071 -1.6187 0.9656
7.0532 -4.9409 -1.6187 0.9656
7.2274 -4.6824 -1.6187 0.9656
7.5472 -4.1472 -1.6186 0.9656
0.4181 -7.6463 -1.6187 0.9692
0.9702 -7.5960 -1.6187 0.9692
1.5172 -7.5059 -1.6187 0.9692
1.7879 -7.4461 -1.6187 0.9692
2.0562 -7.3765 -1.6187 0.9692
4.3092 -6.3301 -1.6187 0.9692
4.9700 -5.8257 -1.6187 0.9692
5.1776 -5.6420 -1.6187 0.9692
5.9375 -4.8357 -1.6187 0.9692
6.1087 -4.6176 -1.6187 0.9692
6.2718 -4.3935 -1.6187 0.9692
6.5732 -3.9283 -1.6187 0.9692
0.8726 -6.8319 -1.6187 0.9721
1.6080 -6.6970 -1.6187 0.9721
2.3245 -6.4832 -1.6187 0.9721
2.5576 -6.3948 -1.6187 0.9721
3.0135 -6.1930 -1.6187 0.9721
3.2357 -6.0799 -1.6187 0.9721
4.2774 -5.3980 -1.6187 0.9721
4.4700 -5.2396 -1.6187 0.9721
4.6567 -5.0744 -1.6187 0.9721
4.8373 -4.9025 -1.6187 0.9721
5.1793 -4.5397 -1.6187 0.9721
5.4942 -4.1531 -1.6187 0.9721
5.9120 -3.5331 -1.6187 0.9721
6.1521 -3.0962 -1.6187 0.9721
0.1152 -6.2507 -1.6187 0.9745
0.3414 -6.2425 -1.6187 0.9745
0.5671 -6.2260 -1.6187 0.9745
1.2386 -6.1278 -1.6187 0.9745
1.4596 -6.0790 -1.6187 0.9745
1.6787 -6.0221 -1.6187 0.9745
1.8956 -5.9575 -1.6187 0.9745
3.1350 -5.4089 -1.6187 0.9745
3.5180 -5.1679 -1.6187 0.9745
3.7028 -5.0372 -1.6187 0.9745
4.2270 -4.6061 -1.6187 0.9745
4.3909 -4.4501 -1.6187 0.9745
4.5491 -4.2883 -1.6187 0.9745
4.9871 -3.7698 -1.6187 0.9745
5.2468 -3.3992 -1.6187 0.9745
5.3664 -3.2071 -1.6187 0.9745
5.4789 -3.0107 -1.6187 0.9745
5.5843 -2.8104 -1.6187 0.9745
0.1054 -5.7170 -1.6187 0.9765
0.7244 -5.6718 -1.6187 0.9765
0.9293 -5.6419 -1.6187 0.9765
1.1328 -5.6045 -1.6187 0.9765
1.7337 -5.4487 -1.6187 0.9765
1.9298 -5.3824 -1.6187 0.9765
2.1233 -5.3090 -1.6187 0.9765
2.3141 -5.2287 -1.6187 0.9765
2.5018 -5.1415 -1.6187 0.9765
2.6863 -5.0475 -1.6187 0.9765
2.8672 -4.9470 -1.6187 0.9765
3.2176 -4.7266 -1.6187 0.9765
3.3866 -4.6070 -1.6187 0.9765
3.8660 -4.2128 -1.6187 0.9765
4.1606 -3.9221 -1.6187 0.9765
4.4335 -3.6108 -1.6187 0.9765
4.6831 -3.2806 -1.6187 0.9765
5.0111 -2.7536 -1.6187 0.9765
0.4774 -5.2410 -1.6187 0.9782
0.6668 -5.2203 -1.6187 0.9782
1.2287 -5.1172 -1.6187 0.9782
1.5957 -5.0150 -1.6187 0.9782
2.4725 -4.6457 -1.6187 0.9782
2.6390 -4.5532 -1.6187 0.9782
2.9615 -4.3503 -1.6187 0.9782
3.1170 -4.2403 -1.6187 0.9782
3.4156 -4.0037 -1.6187 0.9782
3.6963 -3.7461 -1.6187 0.9782
3.9576 -3.4689 -1.6187 0.9782
4.0805 -3.3233 -1.6187 0.9782
4.1982 -3.1735 -1.6187 0.9782
4.3103 -3.0194 -1.6187 0.9782
4.4167 -2.8614 -1.6187 0.9782
4.5174 -2.6997 -1.6187 0.9782
0.0897 -4.8688 -1.6187 0.9797
0.2659 -4.8624 -1.6187 0.9797
1.1369 -4.7351 -1.6187 0.9797
1.4765 -4.6404 -1.6187 0.9797
1.6435 -4.5839 -1.6187 0.9797
1.8083 -4.5214 -1.6187 0.9797
1.9708 -4.4530 -1.6187 0.9797
2.1307 -4.3787 -1.6187 0.9797
2.2878 -4.2987 -1.6187 0.9797
2.5928 -4.1220 -1.6187 0.9797
2.7403 -4.0254 -1.6187 0.9797
3.2925 -3.5878 -1.6187 0.9797
3.6620 -3.2098 -1.6187 0.9797
3.7758 -3.0751 -1.6187 0.9797
3.8846 -2.9364 -1.6187 0.9797
4.0868 -2.6477 -1.6187 0.9797
4.1800 -2.4981 -1.6187 0.9797
0.4106 -4.5078 -1.6187 0.9810
0.5735 -4.4900 -1.6187 0.9810
0.8968 -4.4367 -1.6187 0.9810
1.0568 -4.4014 -1.6187 0.9810
1.2154 -4.3602 -1.6187 0.9810
1.8319 -4.1392 -1.6187 0.9810
2.1266 -3.9958 -1.6187 0.9810
2.2698 -3.9162 -1.6187 0.9810
2.4100 -3.8315 -1.6187 0.9810
2.5472 -3.7417 -1.6187 0.9810
2.6809 -3.6471 -1.6187 0.9810
2.8112 -3.5477 -1.6187 0.9810
2.9378 -3.4436 -1.6187 0.9810
3.0605 -3.3350 -1.6187 0.9810
3.2937 -3.1048 -1.6187 0.9810
3.4039 -2.9836 -1.6187 0.9810
3.5097 -2.8584 -1.6187 0.9810
3.6109 -2.7295 -1.6187 0.9810
3.7073 -2.5970 -1.6187 0.9810
3.7989 -2.4611 -1.6187 0.9810
3.8854 -2.3220 -1.6187 0.9810
3.9670 -2.1799 -1.6187 0.9810
0.0778 -4.2233 -1.6187 0.9821
0.2306 -4.2177 -1.6187 0.9821
0.3832 -4.2066 -1.6187 0.9821
0.5352 -4.1899 -1.6187 0.9821
0.8369 -4.1402 -1.6187 0.9821
0.9862 -4.1072 -1.6187 0.9821
1.1342 -4.0688 -1.6187 0.9821
1.4256 -3.9761 -1.6187 0.9821
1.5686 -3.9219 -1.6187 0.9821
1.7095 -3.8626 -1.6187 0.9821
2.1181 -3.6545 -1.6187 0.9821
2.3769 -3.4917 -1.6187 0.9821
2.5018 -3.4033 -1.6187 0.9821
2.6233 -3.3106 -1.6187 0.9821
2.7414 -3.2134 -1.6187 0.9821
3.2751 -2.6674 -1.6187 0.9821
3.6258 -2.1668 -1.6187 0.9821
3.7018 -2.0342 -1.6187 0.9821
3.7730 -1.8989 -1.6187 0.9821
0.0729 -3.9544 -1.6187 0.9831
0.6428 -3.9025 -1.6187 0.9831
0.7836 -3.8767 -1.6187 0.9831
0.9234 -3.8457 -1.6187 0.9831
1.0620 -3.8098 -1.6187 0.9831
1.3348 -3.7230 -1.6187 0.9831
1.7305 -3.5563 -1.6187 0.9831
1.9833 -3.4218 -1.6187 0.9831
2.1058 -3.3478 -1.6187 0.9831
2.4563 -3.0998 -1.6187 0.9831
2.5669 -3.0089 -1.6187 0.9831
3.3193 -2.1504 -1.6187 0.9831
3.4662 -1.9047 -1.6187 0.9831
0.7359 -3.6406 -1.6187 0.9839
0.8672 -3.6115 -1.6187 0.9839
1.5032 -3.3964 -1.6187 0.9839
1.6251 -3.3397 -1.6187 0.9839
1.8625 -3.2134 -1.6187 0.9839
1.9776 -3.1439 -1.6187 0.9839
2.0901 -3.0703 -1.6187 0.9839
2.4105 -2.8256 -1.6187 0.9839
2.6087 -2.6438 -1.6187 0.9839
2.7026 -2.5477 -1.6187 0.9839
2.7931 -2.4482 -1.6187 0.9839
2.8799 -2.3455 -1.6187 0.9839
3.1172 -2.0195 -1.6187 0.9839
3.1882 -1.9053 -1.6187 0.9839
3.2551 -1.7887 -1.6187 0.9839
3.3177 -1.6697 -1.6187 0.9839
0.0644 -3.4964 -1.6187 0.9847
0.1909 -3.4918 -1.6187 0.9847
0.3172 -3.4826 -1.6187 0.9847
0.4431 -3.4688 -1.6187 0.9847
0.5683 -3.4505 -1.6187 0.9847
0.8164 -3.4003 -1.6187 0.9847
0.9390 -3.3686 -1.6187 0.9847
1.0603 -3.3324 -1.6187 0.9847
1.4153 -3.1978 -1.6187 0.9847
1.5301 -3.1445 -1.6187 0.9847
1.6429 -3.0870 -1.6187 0.9847
1.7536 -3.0255 -1.6187 0.9847
1.8619 -2.9601 -1.6187 0.9847
2.0712 -2.8176 -1.6187 0.9847
2.1718 -2.7408 -1.6187 0.9847
2.3644 -2.5765 -1.6187 0.9847
2.6298 -2.3050 -1.6187 0.9847
2.7896 -2.1087 -1.6187 0.9847
2.9349 -1.9014 -1.6187 0.9847
3.0018 -1.7939 -1.6187 0.9847
3.0647 -1.6841 -1.6187 0.9847
3.1237 -1.5720 -1.6187 0.9847
0.0608 -3.2994 -1.6187 0.9854
0.2993 -3.2863 -1.6187 0.9854
0.5363 -3.2561 -1.6187 0.9854
1.0006 -3.1446 -1.6187 0.9854
1.1137 -3.1063 -1.6187 0.9854
1.2254 -3.0640 -1.6187 0.9854
1.4439 -2.9673 -1.6187 0.9854
1.5503 -2.9131 -1.6187 0.9854
1.6548 -2.8550 -1.6187 0.9854
1.7570 -2.7933 -1.6187 0.9854
1.9545 -2.6589 -1.6187 0.9854
2.0495 -2.5864 -1.6187 0.9854
2.2312 -2.4313 -1.6187 0.9854
2.3177 -2.3490 -1.6187 0.9854
2.4816 -2.1751 -1.6187 0.9854
2.7027 -1.8933 -1.6187 0.9854
2.7695 -1.7942 -1.6187 0.9854
2.8326 -1.6928 -1.6187 0.9854
2.8921 -1.5892 -1.6187 0.9854
0.0575 -3.1197 -1.6187 0.9860
0.1704 -3.1155 -1.6187 0.9860
0.5071 -3.0787 -1.6187 0.9860
0.6182 -3.0583 -1.6187 0.9860
0.7285 -3.0340 -1.6187 0.9860
1.0531 -2.9371 -1.6187 0.9860
1.1587 -2.8971 -1.6187 0.9860
1.2628 -2.8532 -1.6187 0.9860
1.3652 -2.8057 -1.6187 0.9860
1.6613 -2.6412 -1.6187 0.9860
1.7558 -2.5793 -1.6187 0.9860
1.8480 -2.5140 -1.6187 0.9860
2.0251 -2.3738 -1.6187 0.9860
2.1097 -2.2989 -1.6187 0.9860
2.3464 -2.0567 -1.6187 0.9860
2.4193 -1.9704 -1.6187 0.9860
2.4891 -1.8815 -1.6187 0.9860
2.6784 -1.6006 -1.6187 0.9860
0.0544 -2.9549 -1.6187 0.9866
0.1614 -2.9510 -1.6187 0.9866
0.2681 -2.9433 -1.6187 0.9866
0.3744 -2.9316 -1.6187 0.9866
0.4803 -2.9161 -1.6187 0.9866
0.5855 -2.8969 -1.6187 0.9866
0.8961 -2.8163 -1.6187 0.9866
1.1961 -2.7026 -1.6187 0.9866
1.3885 -2.6090 -1.6187 0.9866
1.5736 -2.5017 -1.6187 0.9866
1.9181 -2.2484 -1.6187 0.9866
1.9982 -2.1775 -1.6187 0.9866
2.0758 -2.1037 -1.6187 0.9866
2.1505 -2.0272 -1.6187 0.9866
2.2225 -1.9481 -1.6187 0.9866
2.4804 -1.6069 -1.6187 0.9866
2.5369 -1.5161 -1.6187 0.9866
0.0517 -2.8032 -1.6187 0.9871
0.1531 -2.7995 -1.6187 0.9871
0.2543 -2.7921 -1.6187 0.9871
0.4556 -2.7664 -1.6187 0.9871
0.6546 -2.7262 -1.6187 0.9871
0.7528 -2.7007 -1.6187 0.9871
0.8501 -2.6717 -1.6187 0.9871
1.4059 -2.4257 -1.6187 0.9871
1.4928 -2.3732 -1.6187 0.9871
1.6606 -2.2590 -1.6187 0.9871
1.7412 -2.1974 -1.6187 0.9871
2.0401 -1.9231 -1.6187 0.9871
2.1084 -1.8480 -1.6187 0.9871
2.1739 -1.7705 -1.6187 0.9871
2.2366 -1.6906 -1.6187 0.9871
2.2963 -1.6086 -1.6187 0.9871
2.5044 -1.2604 -1.6187 0.9871
