ply
format ascii 1.0
element vertex 486
property float32 x
property float32 y
property float32 z
property float32 I
end_header
-22.1281 -38.1503 7.7766 0.8360
-19.0122 -38.9014 7.6347 0.8387
-15.2940 -42.1504 7.9064 0.8335
-13.7582 -42.5743 7.8892 0.8338
-9.1636 -43.8428 7.8977 0.8337
6.9328 -46.1786 8.2338 0.8272
-20.5984 -38.6092 6.7038 0.8377
-19.0122 -38.9014 6.6331 0.8393
-17.5138 -39.3151 6.5934 0.8402
-16.0314 -39.7243 6.5624 0.8408
-15.2940 -42.1503 6.8691 0.8341
-12.2033 -42.9133 6.8347 0.8348
-10.6969 -43.4195 6.8505 0.8345
-7.2581 -42.1465 6.5516 0.8411
6.8879 -45.8794 7.1072 0.8288
8.6554 -46.3734 7.2268 0.8262
-18.9692 -38.8133 5.6256 0.8401
-17.4638 -39.2028 5.5887 0.8410
-15.9751 -39.5848 5.5587 0.8418
-14.5099 -39.9893 5.5396 0.8423
-13.0528 -40.3916 5.5276 0.8426
-11.6003 -40.7926 5.5227 0.8428
-10.1485 -41.1934 5.5246 0.8427
-8.6938 -41.5950 5.5336 0.8425
-7.2324 -41.9974 5.5494 0.8421
-5.7609 -42.4037 5.5726 0.8415
-2.7732 -43.2587 5.6447 0.8396
3.5124 -44.9360 5.8694 0.8338
6.8879 -45.8794 6.0414 0.8293
8.6554 -46.3734 6.1431 0.8267
12.0577 -46.1543 6.2120 0.8250
15.7143 -46.3993 6.3793 0.8207
-22.0963 -38.0955 4.7291 0.8376
-20.5984 -38.6091 4.6991 0.8386
-12.2491 -25.0631 2.9955 0.8938
-14.5970 -40.2294 4.5955 0.8418
-13.0988 -40.5339 4.5742 0.8425
-10.1843 -41.3385 4.5717 0.8426
-8.7335 -41.7846 4.5839 0.8422
-7.2579 -42.1453 4.5923 0.8419
-2.7839 -43.4261 4.6727 0.8394
3.5123 -44.9360 4.8400 0.8342
6.8879 -45.8794 4.9818 0.8297
8.6554 -46.3734 5.0657 0.8271
10.4858 -46.8851 5.1590 0.8243
12.0577 -46.1543 5.1225 0.8254
7.1860 -23.9893 2.6891 0.9042
8.0444 -23.7525 2.6929 0.9040
16.9484 -44.7482 5.1382 0.8249
19.1900 -45.6990 5.3223 0.8192
-12.9665 -24.3041 2.3319 0.8953
-12.2600 -25.0855 2.3636 0.8940
-17.4918 -39.2656 3.6388 0.8415
-11.4992 -40.4372 3.5588 0.8447
-8.7135 -41.6891 3.6054 0.8428
-7.2488 -42.0924 3.6157 0.8424
-5.7739 -42.4996 3.6308 0.8418
-4.2849 -42.9107 3.6506 0.8410
-2.7745 -43.2795 3.6712 0.8402
6.8879 -45.8794 3.9273 0.8301
8.6554 -46.3734 3.9934 0.8275
18.0862 -43.0705 3.9544 0.8290
13.8255 -29.9033 2.7889 0.8761
-12.2600 -25.0855 1.7314 0.8941
-10.1842 -41.3385 2.6401 0.8431
-4.2903 -42.9646 2.6775 0.8411
-2.7839 -43.4261 2.6984 0.8400
3.5123 -44.9360 2.7950 0.8347
5.1758 -45.4009 2.8336 0.8327
8.6554 -46.3734 2.9253 0.8277
10.4859 -46.8851 2.9792 0.8249
12.0578 -46.1543 2.9581 0.8260
12.9056 -43.0833 2.7889 0.8351
11.7013 -34.5503 2.2620 0.8640
17.1402 -40.8175 2.7452 0.8374
19.3008 -41.7459 2.8520 0.8317
-20.5984 -38.6091 1.7255 0.8393
-12.2600 -25.0855 1.1010 0.8942
-17.5138 -39.3150 1.6971 0.8417
-16.0313 -39.7242 1.6891 0.8424
-14.5494 -40.0984 1.6820 0.8430
-11.6197 -40.8610 1.6751 0.8436
-7.2579 -42.1453 1.6863 0.8427
-5.7812 -42.5530 1.6933 0.8421
-4.2903 -42.9646 1.7026 0.8413
-1.2535 -43.9488 1.7336 0.8386
3.5123 -44.9360 1.7773 0.8349
6.8879 -45.8794 1.8293 0.8305
12.0578 -46.1543 1.8810 0.8262
13.6626 -40.3414 1.6795 0.8432
16.3517 -38.9399 1.6653 0.8445
18.2451 -39.4627 1.7143 0.8403
-22.0963 -38.0955 0.7439 0.8385
-12.2600 -25.0855 0.4716 0.8943
-17.5138 -39.3150 0.7270 0.8418
-16.0313 -39.7242 0.7236 0.8425
-13.6139 -37.5201 0.6742 0.8524
-12.2469 -37.8975 0.6728 0.8527
-11.6128 -40.8368 0.7172 0.8438
-8.7335 -41.7846 0.7211 0.8430
-2.7879 -43.4885 0.7361 0.8400
-1.2524 -43.9124 0.7421 0.8388
5.1758 -45.4009 0.7719 0.8329
6.8879 -45.8794 0.7837 0.8306
8.6554 -46.3734 0.7968 0.8280
10.4858 -46.8850 0.8115 0.8251
12.9056 -43.0833 0.7597 0.8353
13.6626 -40.3414 0.7195 0.8433
14.3442 -37.8724 0.6841 0.8504
-22.1463 -38.1818 -0.2485 0.8381
-20.5984 -38.6091 -0.2464 0.8394
-12.2600 -25.0856 -0.1572 0.8943
-16.0313 -39.7242 -0.2412 0.8425
-13.1420 -40.6677 -0.2406 0.8429
-11.6128 -40.8368 -0.2390 0.8438
-10.1842 -41.3385 -0.2397 0.8434
-5.7812 -42.5530 -0.2418 0.8422
5.1757 -45.4009 -0.2573 0.8329
13.6626 -40.3414 -0.2398 0.8434
14.9627 -35.6321 -0.2176 0.8568
-8.1656 -14.0781 -0.4583 0.9370
-7.4958 -14.0499 -0.4484 0.9383
-6.2923 -14.1251 -0.4354 0.9400
-5.9554 -14.7571 -0.4481 0.9383
-14.4981 -39.9569 -1.1969 0.8436
-11.6197 -40.8610 -1.1962 0.8437
-8.7245 -41.7415 -1.2007 0.8431
-7.2579 -42.1453 -1.2042 0.8427
5.1757 -45.4009 -1.2867 0.8329
8.6554 -46.3734 -1.3284 0.8280
10.4859 -46.8850 -1.3528 0.8251
12.9056 -43.0834 -1.2664 0.8353
13.6626 -40.3414 -1.1993 0.8433
14.9627 -35.6322 -1.0882 0.8567
15.7820 -34.1350 -1.0589 0.8603
-8.0606 -13.8971 -0.8148 0.9377
-7.3849 -13.8420 -0.7956 0.9391
-6.7474 -13.8060 -0.7793 0.9403
-6.1437 -13.7915 -0.7657 0.9413
-8.3503 -25.8398 -1.3772 0.8969
-3.9744 -13.9760 -0.7369 0.9435
-3.3928 -13.7715 -0.7193 0.9448
-1.7859 -13.1451 -0.6728 0.9483
-0.8322 -12.9806 -0.6597 0.9492
0.2079 -29.7389 -1.5082 0.8877
2.3126 -29.5826 -1.5048 0.8879
3.3582 -29.4574 -1.5036 0.8880
5.4464 -29.1813 -1.5055 0.8879
7.4896 -28.6675 -1.5026 0.8881
8.4953 -28.3602 -1.5014 0.8882
10.4892 -27.6946 -1.5019 0.8882
12.4061 -26.8332 -1.4992 0.8883
-8.0590 -13.8943 -1.1777 0.9376
-7.3812 -13.8352 -1.1498 0.9390
-6.7777 -13.8680 -1.1318 0.9400
-6.1438 -13.7916 -1.1070 0.9412
-5.3393 -14.7151 -1.1478 0.9391
-3.8908 -13.6820 -1.0430 0.9445
-2.2731 -13.1993 -0.9820 0.9477
-1.7772 -13.0816 -0.9680 0.9484
-0.3612 -12.6646 -0.9290 0.9505
0.8497 -19.9797 -1.4663 0.9229
2.2651 -19.8690 -1.4663 0.9229
2.9690 -19.7760 -1.4663 0.9229
3.6691 -19.6581 -1.4663 0.9229
4.3646 -19.5154 -1.4663 0.9229
5.0546 -19.3480 -1.4663 0.9229
5.7383 -19.1563 -1.4662 0.9229
6.4147 -18.9405 -1.4662 0.9229
7.0830 -18.7008 -1.4662 0.9229
-7.9367 -14.8764 -1.6188 0.9345
-7.4036 -15.1487 -1.6187 0.9345
-5.6978 -15.7034 -1.6038 0.9351
-5.0452 -15.6122 -1.5752 0.9362
-3.8709 -13.6120 -1.3586 0.9447
-3.3418 -13.5645 -1.3412 0.9454
-2.8009 -13.4007 -1.3143 0.9465
-2.2843 -13.2643 -1.2922 0.9474
-1.7841 -13.1322 -1.2723 0.9481
-1.2955 -12.9738 -1.2517 0.9490
0.6489 -15.2593 -1.4663 0.9405
3.3334 -14.9047 -1.4663 0.9405
3.8604 -14.7769 -1.4663 0.9405
5.4096 -14.2826 -1.4663 0.9405
5.9132 -14.0815 -1.4663 0.9405
6.4093 -13.8627 -1.4662 0.9405
-6.4146 -12.0233 -1.6187 0.9466
-5.5453 -12.4481 -1.6187 0.9466
-5.0999 -12.6371 -1.6187 0.9466
-3.7274 -13.1076 -1.6187 0.9466
-3.2597 -13.2316 -1.6187 0.9466
-2.3127 -13.4295 -1.6187 0.9466
-1.8345 -13.5031 -1.6187 0.9466
-0.8213 -12.8115 -1.5249 0.9496
-0.3885 -13.6215 -1.6187 0.9466
1.5435 -13.5392 -1.6187 0.9466
2.5002 -13.3955 -1.6187 0.9466
2.9742 -13.2983 -1.6187 0.9466
3.4444 -13.1843 -1.6187 0.9466
3.9102 -13.0537 -1.6187 0.9466
5.7185 -12.3687 -1.6187 0.9466
-5.3777 -10.0798 -1.6187 0.9549
-5.0164 -10.2643 -1.6187 0.9549
-4.6489 -10.4359 -1.6187 0.9549
-4.2755 -10.5943 -1.6187 0.9549
-3.8967 -10.7394 -1.6187 0.9549
-3.1249 -10.9888 -1.6187 0.9549
-2.7328 -11.0927 -1.6187 0.9549
-1.9389 -11.2587 -1.6187 0.9549
-1.5380 -11.3204 -1.6187 0.9549
-1.1351 -11.3678 -1.6187 0.9549
0.0799 -11.4240 -1.6187 0.9549
0.8903 -11.3895 -1.6187 0.9549
1.2940 -11.3507 -1.6187 0.9549
1.6961 -11.2976 -1.6187 0.9549
2.4934 -11.1487 -1.6187 0.9549
2.8876 -11.0532 -1.6187 0.9549
3.2782 -10.9437 -1.6187 0.9549
4.0464 -10.6835 -1.6187 0.9549
4.4231 -10.5331 -1.6187 0.9549
4.7942 -10.3694 -1.6187 0.9549
-4.6252 -8.6694 -1.6187 0.9609
-3.9984 -8.9757 -1.6187 0.9609
-3.6773 -9.1120 -1.6187 0.9609
-3.3515 -9.2368 -1.6187 0.9609
-2.3505 -9.5407 -1.6187 0.9609
-0.9763 -9.7772 -1.6187 0.9609
-0.6286 -9.8057 -1.6187 0.9609
-0.2801 -9.8218 -1.6187 0.9609
0.0687 -9.8256 -1.6187 0.9609
0.4175 -9.8169 -1.6187 0.9609
0.7657 -9.7959 -1.6187 0.9609
1.8028 -9.6590 -1.6187 0.9610
2.1445 -9.5888 -1.6187 0.9610
2.4836 -9.5067 -1.6187 0.9610
2.8195 -9.4125 -1.6187 0.9610
-4.3210 -7.4496 -1.6187 0.9656
-4.0538 -7.5983 -1.6187 0.9656
-3.7815 -7.7374 -1.6187 0.9656
-3.5044 -7.8668 -1.6187 0.9656
-3.2230 -7.9862 -1.6187 0.9656
-2.6482 -8.1947 -1.6187 0.9656
-2.0601 -8.3620 -1.6187 0.9656
-0.5509 -8.5943 -1.6187 0.9656
0.0602 -8.6117 -1.6187 0.9656
0.3659 -8.6041 -1.6187 0.9656
0.6711 -8.5857 -1.6187 0.9656
1.5801 -8.4656 -1.6187 0.9656
1.8796 -8.4042 -1.6187 0.9656
3.0503 -8.0535 -1.6187 0.9656
3.3342 -7.9401 -1.6187 0.9656
-3.8422 -6.6243 -1.6187 0.9692
-3.1162 -6.9952 -1.6187 0.9692
-2.3548 -7.2868 -1.6187 0.9692
-1.8318 -7.4355 -1.6187 0.9692
-1.5667 -7.4959 -1.6187 0.9692
-0.7609 -7.6199 -1.6187 0.9692
-0.4899 -7.6421 -1.6187 0.9692
0.0535 -7.6576 -1.6187 0.9692
0.3254 -7.6509 -1.6187 0.9692
0.8674 -7.6085 -1.6187 0.9692
1.4050 -7.5277 -1.6187 0.9692
2.1974 -7.3357 -1.6187 0.9692
2.7123 -7.1612 -1.6187 0.9692
2.9649 -7.0604 -1.6187 0.9692
3.2136 -6.9507 -1.6187 0.9692
-2.3492 -6.4745 -1.6187 0.9721
-1.1689 -6.7876 -1.6187 0.9721
-0.9272 -6.8248 -1.6187 0.9721
-0.6844 -6.8533 -1.6187 0.9721
-0.4406 -6.8733 -1.6187 0.9721
0.0482 -6.8873 -1.6187 0.9721
0.7801 -6.8431 -1.6187 0.9721
1.0225 -6.8110 -1.6187 0.9721
1.5032 -6.7213 -1.6187 0.9721
1.9763 -6.5977 -1.6187 0.9721
2.6666 -6.3502 -1.6187 0.9721
2.8903 -6.2515 -1.6187 0.9721
-2.5440 -5.7109 -1.6187 0.9745
-2.1324 -5.8770 -1.6187 0.9745
-1.2791 -6.1196 -1.6187 0.9745
-1.0610 -6.1611 -1.6187 0.9745
-0.8416 -6.1949 -1.6187 0.9745
-0.6212 -6.2209 -1.6187 0.9745
-0.1782 -6.2493 -1.6187 0.9745
0.2656 -6.2461 -1.6187 0.9745
0.4872 -6.2328 -1.6187 0.9745
0.7081 -6.2115 -1.6187 0.9745
1.3645 -6.1010 -1.6187 0.9745
1.5802 -6.0488 -1.6187 0.9745
1.7939 -5.9888 -1.6187 0.9745
2.2144 -5.8464 -1.6187 0.9745
2.4205 -5.7642 -1.6187 0.9745
2.6236 -5.6746 -1.6187 0.9745
-2.1399 -5.3025 -1.6187 0.9765
-1.9503 -5.3751 -1.6187 0.9765
-1.7583 -5.4409 -1.6187 0.9765
-1.3678 -5.5520 -1.6187 0.9765
-1.1698 -5.5970 -1.6187 0.9765
-0.7698 -5.6659 -1.6187 0.9765
-0.5681 -5.6896 -1.6187 0.9765
-0.1630 -5.7156 -1.6187 0.9765
0.2429 -5.7128 -1.6187 0.9765
0.4456 -5.7005 -1.6187 0.9765
0.6476 -5.6811 -1.6187 0.9765
0.8489 -5.6545 -1.6187 0.9765
1.0491 -5.6208 -1.6187 0.9765
1.2480 -5.5800 -1.6187 0.9765
1.4453 -5.5322 -1.6187 0.9765
1.6408 -5.4774 -1.6187 0.9765
2.0253 -5.3472 -1.6187 0.9765
2.2138 -5.2719 -1.6187 0.9765
-2.6405 -4.5524 -1.6187 0.9782
-2.3108 -4.7283 -1.6187 0.9782
-1.9695 -4.8803 -1.6187 0.9782
-1.2589 -5.1100 -1.6187 0.9782
-0.8932 -5.1864 -1.6187 0.9782
-0.7085 -5.2148 -1.6187 0.9782
-0.3367 -5.2520 -1.6187 0.9782
-0.1500 -5.2606 -1.6187 0.9782
0.2236 -5.2580 -1.6187 0.9782
0.4101 -5.2467 -1.6187 0.9782
0.5961 -5.2289 -1.6187 0.9782
0.7813 -5.2044 -1.6187 0.9782
1.1487 -5.1358 -1.6187 0.9782
1.6881 -4.9846 -1.6187 0.9782
2.0376 -4.8522 -1.6187 0.9782
-2.4433 -4.2124 -1.6187 0.9797
-2.1383 -4.3752 -1.6187 0.9797
-1.8224 -4.5158 -1.6187 0.9797
-1.4974 -4.6338 -1.6187 0.9797
-1.1649 -4.7283 -1.6187 0.9797
-0.9963 -4.7667 -1.6187 0.9797
-0.8264 -4.7990 -1.6187 0.9797
-0.3115 -4.8597 -1.6187 0.9797
0.5516 -4.8383 -1.6187 0.9797
1.5621 -4.6123 -1.6187 0.9797
1.8854 -4.4898 -1.6187 0.9797
-2.2711 -3.9156 -1.6187 0.9810
-2.1307 -3.9937 -1.6187 0.9810
-1.6940 -4.1976 -1.6187 0.9810
-1.5439 -4.2551 -1.6187 0.9810
-1.3919 -4.3072 -1.6187 0.9810
-1.2381 -4.3539 -1.6187 0.9810
-1.0828 -4.3951 -1.6187 0.9810
-0.9261 -4.4308 -1.6187 0.9810
-0.6094 -4.4853 -1.6187 0.9810
-0.4498 -4.5041 -1.6187 0.9810
0.0317 -4.5264 -1.6187 0.9810
0.1923 -4.5224 -1.6187 0.9810
0.3527 -4.5127 -1.6187 0.9810
0.5127 -4.4973 -1.6187 0.9810
0.6720 -4.4763 -1.6187 0.9810
0.8305 -4.4496 -1.6187 0.9810
1.1441 -4.3795 -1.6187 0.9810
1.2989 -4.3361 -1.6187 0.9810
1.4520 -4.2873 -1.6187 0.9810
1.6033 -4.2330 -1.6187 0.9810
1.8996 -4.1086 -1.6187 0.9810
-2.1193 -3.6539 -1.6187 0.9821
-1.9883 -3.7268 -1.6187 0.9821
-1.8547 -3.7950 -1.6187 0.9821
-1.2989 -4.0193 -1.6187 0.9821
-1.1554 -4.0629 -1.6187 0.9821
-0.8642 -4.1346 -1.6187 0.9821
-0.5687 -4.1855 -1.6187 0.9821
-0.4197 -4.2031 -1.6187 0.9821
-0.2702 -4.2153 -1.6187 0.9821
-0.1204 -4.2223 -1.6187 0.9821
0.3292 -4.2111 -1.6187 0.9821
0.4784 -4.1968 -1.6187 0.9821
0.7750 -4.1522 -1.6187 0.9821
1.2121 -4.0463 -1.6187 0.9821
1.3550 -4.0007 -1.6187 0.9821
1.6354 -3.8945 -1.6187 0.9821
-1.9844 -3.4212 -1.6187 0.9831
-1.7367 -3.5534 -1.6187 0.9831
-1.6094 -3.6128 -1.6187 0.9831
-1.4801 -3.6677 -1.6187 0.9831
-1.3490 -3.7179 -1.6187 0.9831
-1.2162 -3.7634 -1.6187 0.9831
-0.8092 -3.8714 -1.6187 0.9831
-0.6712 -3.8977 -1.6187 0.9831
-0.5324 -3.9190 -1.6187 0.9831
0.0277 -3.9550 -1.6187 0.9831
0.1680 -3.9515 -1.6187 0.9831
0.4480 -3.9296 -1.6187 0.9831
0.5872 -3.9112 -1.6187 0.9831
0.8632 -3.8597 -1.6187 0.9831
0.9997 -3.8266 -1.6187 0.9831
1.2687 -3.7460 -1.6187 0.9831
1.4009 -3.6986 -1.6187 0.9831
1.5313 -3.6466 -1.6187 0.9831
-1.3900 -3.4443 -1.6187 0.9839
-1.0159 -3.5726 -1.6187 0.9839
-0.8885 -3.6064 -1.6187 0.9839
-0.7599 -3.6356 -1.6187 0.9839
-0.6303 -3.6603 -1.6187 0.9839
-0.5000 -3.6804 -1.6187 0.9839
-0.3690 -3.6958 -1.6187 0.9839
-0.2376 -3.7066 -1.6187 0.9839
-0.1059 -3.7127 -1.6187 0.9839
0.4207 -3.6903 -1.6187 0.9839
0.5514 -3.6730 -1.6187 0.9839
0.6815 -3.6511 -1.6187 0.9839
1.0658 -3.5580 -1.6187 0.9839
1.1914 -3.5179 -1.6187 0.9839
1.4380 -3.4245 -1.6187 0.9839
1.5587 -3.3713 -1.6187 0.9839
-1.4230 -3.1944 -1.6187 0.9847
-1.1928 -3.2873 -1.6187 0.9847
-1.0753 -3.3276 -1.6187 0.9847
-0.9565 -3.3636 -1.6187 0.9847
-0.7154 -3.4230 -1.6187 0.9847
-0.3475 -3.4797 -1.6187 0.9847
-0.2237 -3.4898 -1.6187 0.9847
0.3961 -3.4745 -1.6187 0.9847
0.5192 -3.4582 -1.6187 0.9847
0.6416 -3.4376 -1.6187 0.9847
0.8839 -3.3834 -1.6187 0.9847
1.0034 -3.3499 -1.6187 0.9847
1.1217 -3.3122 -1.6187 0.9847
1.2386 -3.2703 -1.6187 0.9847
1.3539 -3.2242 -1.6187 0.9847
1.4675 -3.1741 -1.6187 0.9847
-1.3428 -3.0144 -1.6187 0.9854
-1.2350 -3.0602 -1.6187 0.9854
-1.1256 -3.1021 -1.6187 0.9854
-0.9026 -3.1741 -1.6187 0.9854
-0.6751 -3.2302 -1.6187 0.9854
-0.3279 -3.2836 -1.6187 0.9854
-0.2111 -3.2932 -1.6187 0.9854
0.0231 -3.2999 -1.6187 0.9854
0.1402 -3.2970 -1.6187 0.9854
0.3738 -3.2787 -1.6187 0.9854
0.6055 -3.2439 -1.6187 0.9854
0.7202 -3.2204 -1.6187 0.9854
0.8341 -3.1928 -1.6187 0.9854
0.9470 -3.1612 -1.6187 0.9854
1.1688 -3.0860 -1.6187 0.9854
1.2776 -3.0426 -1.6187 0.9854
-1.5655 -2.6991 -1.6187 0.9860
-1.4687 -2.7529 -1.6187 0.9860
-1.3701 -2.8034 -1.6187 0.9860
-1.2697 -2.8502 -1.6187 0.9860
-1.1677 -2.8935 -1.6187 0.9860
-1.0643 -2.9331 -1.6187 0.9860
-0.8535 -3.0012 -1.6187 0.9860
-0.7464 -3.0296 -1.6187 0.9860
-0.6384 -3.0542 -1.6187 0.9860
-0.4201 -3.0918 -1.6187 0.9860
-0.3100 -3.1048 -1.6187 0.9860
-0.1996 -3.1138 -1.6187 0.9860
0.2432 -3.1107 -1.6187 0.9860
0.3534 -3.1001 -1.6187 0.9860
0.7887 -3.0189 -1.6187 0.9860
1.3094 -2.8321 -1.6187 0.9860
-1.4829 -2.5565 -1.6187 0.9866
-1.3912 -2.6076 -1.6187 0.9866
-1.2977 -2.6553 -1.6187 0.9866
-1.0080 -2.7782 -1.6187 0.9866
-0.8084 -2.8428 -1.6187 0.9866
-0.5016 -2.9126 -1.6187 0.9866
-0.2937 -2.9408 -1.6187 0.9866
0.1256 -2.9528 -1.6187 0.9866
0.2303 -2.9464 -1.6187 0.9866
0.5422 -2.9053 -1.6187 0.9866
0.6450 -2.8842 -1.6187 0.9866
0.7470 -2.8595 -1.6187 0.9866
0.8481 -2.8311 -1.6187 0.9866
0.9480 -2.7992 -1.6187 0.9866
1.1443 -2.7249 -1.6187 0.9866
-1.3197 -2.4737 -1.6187 0.9871
-1.2311 -2.5190 -1.6187 0.9871
-1.1409 -2.5611 -1.6187 0.9871
-0.7669 -2.6968 -1.6187 0.9871
-0.6707 -2.7223 -1.6187 0.9871
-0.5736 -2.7444 -1.6187 0.9871
-0.2786 -2.7898 -1.6187 0.9871
-0.0799 -2.8025 -1.6187 0.9871
0.3176 -2.7856 -1.6187 0.9871
0.4163 -2.7726 -1.6187 0.9871
0.6119 -2.7361 -1.6187 0.9871
0.8993 -2.6555 -1.6187 0.9871
0.9931 -2.6219 -1.6187 0.9871
1.1766 -2.5448 -1.6187 0.9871
