ply
format ascii 1.0
element vertex 464
property float32 x
property float32 y
property float32 z
property float32 I
end_header
2.4168 -45.3762 6.9612 0.8320
4.0427 -45.0842 6.9344 0.8326
5.7554 -45.5629 7.0354 0.8304
7.5211 -46.0564 7.1490 0.8279
9.3471 -46.5668 7.2761 0.8251
4.0427 -45.0842 5.8945 0.8331
5.7554 -45.5629 5.9804 0.8309
9.3471 -46.5668 6.1849 0.8256
11.2418 -47.0963 6.3052 0.8226
12.5324 -45.1889 6.1066 0.8277
14.5997 -46.0916 6.2960 0.8228
4.0427 -45.0842 4.8606 0.8335
7.5210 -46.0564 5.0111 0.8288
9.3471 -46.5668 5.1002 0.8261
11.2418 -47.0963 5.1994 0.8230
12.4281 -44.8127 4.9937 0.8294
15.8731 -44.4513 5.0685 0.8271
4.0427 -45.0842 3.8318 0.8338
5.7554 -45.5629 3.8877 0.8316
9.3471 -46.5668 4.0206 0.8264
13.2508 -41.8330 3.7147 0.8385
14.9525 -41.8733 3.7639 0.8365
21.5124 -44.3483 4.1726 0.8205
28.0330 -19.6793 2.8994 0.8715
9.3471 -46.5668 2.9452 0.8267
12.4281 -44.8127 2.8837 0.8300
13.2508 -41.8330 2.7211 0.8387
14.2950 -40.0320 2.6359 0.8434
16.1568 -40.5460 2.7065 0.8395
20.3968 -42.0485 2.8980 0.8292
22.6415 -42.6683 2.9953 0.8240
27.3708 -20.7336 2.1293 0.8714
4.0427 -45.0842 1.7849 0.8343
5.7554 -45.5629 1.8109 0.8321
7.5210 -46.0564 1.8401 0.8296
11.2418 -47.0963 1.9092 0.8238
12.4281 -44.8128 1.8337 0.8301
13.9865 -39.1681 1.6400 0.8466
19.2812 -39.7487 1.7420 0.8379
21.4032 -40.3345 1.8005 0.8329
23.9040 -41.3569 1.8835 0.8260
26.3738 -42.0388 1.9568 0.8198
17.2146 -18.8001 1.0052 0.9030
4.0427 -45.0842 0.7646 0.8344
16.4565 -37.3090 0.6888 0.8495
18.3515 -37.8322 0.7103 0.8452
20.3712 -38.3898 0.7341 0.8404
22.5341 -38.9869 0.7606 0.8351
17.2074 -18.7922 0.4304 0.9031
7.5211 -46.0564 -0.2627 0.8297
9.3471 -46.5668 -0.2674 0.8270
12.4281 -44.8128 -0.2618 0.8303
13.9865 -39.1681 -0.2342 0.8467
14.6501 -36.7647 -0.2228 0.8536
15.6229 -35.4190 -0.2180 0.8565
17.4219 -35.9157 -0.2247 0.8524
19.3392 -36.4450 -0.2323 0.8479
21.3926 -37.0119 -0.2407 0.8428
28.6011 -39.0020 -0.2723 0.8241
17.2002 -18.7844 -0.1434 0.9031
5.7554 -45.5629 -1.2932 0.8321
9.3471 -46.5668 -1.3374 0.8269
11.2418 -47.0963 -1.3634 0.8239
12.4281 -44.8128 -1.3095 0.8302
27.0749 -36.9208 -1.2892 0.8326
17.1175 -18.6940 -0.7137 0.9035
15.0462 -10.5625 -0.5176 0.9291
32.6817 -21.2186 -1.0972 0.8556
2.6494 -29.5457 -1.5044 0.8880
4.7843 -29.2976 -1.5055 0.8879
7.9156 -28.5416 -1.5021 0.8881
8.9368 -28.2136 -1.5009 0.8882
9.9550 -27.8779 -1.5012 0.8882
10.9577 -27.4987 -1.5012 0.8882
12.8966 -26.5866 -1.4986 0.8884
16.5754 -24.4101 -1.4964 0.8885
17.4410 -23.7834 -1.4957 0.8886
18.2725 -23.1131 -1.4942 0.8887
17.0492 -18.6195 -1.2803 0.9038
12.6248 -12.8227 -0.9126 0.9305
12.5650 -11.8697 -0.8766 0.9331
12.7756 -11.2215 -0.8623 0.9342
14.0626 -10.6525 -0.8947 0.9318
15.0674 -10.5773 -0.9336 0.9289
15.0899 -9.0377 -0.8920 0.9320
25.5669 -14.0806 -1.4802 0.8897
26.0364 -13.1336 -1.4789 0.8898
26.4610 -12.1665 -1.4770 0.8899
26.8497 -11.1859 -1.4751 0.8900
1.7860 -19.9178 -1.4663 0.9229
3.2229 -19.7362 -1.4663 0.9229
3.9355 -19.6064 -1.4663 0.9229
4.6429 -19.4510 -1.4663 0.9229
5.3442 -19.2700 -1.4663 0.9229
9.3733 -17.6641 -1.4662 0.9229
10.0068 -17.3130 -1.4662 0.9229
10.6271 -16.9393 -1.4662 0.9229
11.2336 -16.5433 -1.4662 0.9229
11.8253 -16.1256 -1.4662 0.9229
12.4014 -15.6867 -1.4662 0.9229
10.2239 -12.0113 -1.1565 0.9387
13.5042 -14.7479 -1.4662 0.9229
12.6453 -12.8435 -1.3215 0.9303
14.0449 -9.8595 -1.2582 0.9335
16.7716 -10.8889 -1.4662 0.9229
15.2612 -9.1403 -1.3043 0.9311
17.5156 -9.6465 -1.4662 0.9229
18.1678 -8.3534 -1.4662 0.9229
18.4584 -7.6900 -1.4662 0.9229
0.8123 -15.2514 -1.4663 0.9405
1.9140 -15.1526 -1.4663 0.9405
2.4615 -15.0733 -1.4663 0.9405
3.0057 -14.9742 -1.4663 0.9405
4.0816 -14.7173 -1.4663 0.9405
4.6119 -14.5598 -1.4663 0.9405
6.6656 -13.7413 -1.4662 0.9405
7.1588 -13.4909 -1.4662 0.9405
8.5796 -12.6349 -1.4662 0.9405
10.3148 -11.2648 -1.4664 0.9405
10.8446 -11.0146 -1.4840 0.9398
11.9436 -10.4907 -1.5262 0.9381
12.5031 -10.2044 -1.5494 0.9372
13.0742 -9.9038 -1.5747 0.9362
14.0987 -9.1536 -1.6138 0.9347
14.7679 -8.1332 -1.6186 0.9345
15.5629 -6.4837 -1.6186 0.9345
0.7248 -13.6077 -1.6187 0.9466
1.2171 -13.5725 -1.6187 0.9466
2.1962 -13.4487 -1.6187 0.9466
2.6818 -13.3603 -1.6187 0.9466
3.6417 -13.1311 -1.6187 0.9466
4.5826 -12.8331 -1.6187 0.9466
5.4993 -12.4677 -1.6187 0.9466
6.3873 -12.0369 -1.6187 0.9466
6.8190 -11.7977 -1.6186 0.9466
7.2417 -11.5430 -1.6186 0.9466
8.0582 -10.9886 -1.6186 0.9466
9.2023 -10.0498 -1.6186 0.9466
9.5602 -9.7100 -1.6186 0.9466
9.9055 -9.3574 -1.6186 0.9466
10.2379 -8.9925 -1.6186 0.9466
10.5568 -8.6159 -1.6186 0.9466
10.8619 -8.2279 -1.6186 0.9466
11.1526 -7.8292 -1.6186 0.9466
11.4288 -7.4202 -1.6186 0.9466
11.6900 -7.0014 -1.6186 0.9466
11.9359 -6.5735 -1.6186 0.9466
12.1661 -6.1370 -1.6186 0.9466
12.5783 -5.2403 -1.6186 0.9466
1.0203 -11.3786 -1.6187 0.9549
1.4317 -11.3342 -1.6187 0.9549
1.8412 -11.2749 -1.6187 0.9549
3.0531 -11.0086 -1.6187 0.9549
3.4497 -10.8908 -1.6187 0.9549
4.9859 -10.2786 -1.6187 0.9549
6.0712 -9.6772 -1.6187 0.9549
6.4176 -9.4510 -1.6187 0.9549
7.0848 -8.9617 -1.6186 0.9549
7.7149 -8.4254 -1.6186 0.9549
8.0149 -8.1405 -1.6186 0.9549
8.3044 -7.8449 -1.6186 0.9549
8.8504 -7.2232 -1.6186 0.9549
9.3500 -6.5637 -1.6186 0.9549
10.1996 -5.1450 -1.6186 0.9549
10.3792 -4.7723 -1.6186 0.9549
10.5452 -4.3933 -1.6186 0.9549
1.2314 -9.7483 -1.6187 0.9610
1.5836 -9.6973 -1.6187 0.9610
2.6259 -9.4683 -1.6187 0.9610
3.3043 -9.2534 -1.6187 0.9610
3.6372 -9.1277 -1.6187 0.9610
3.9654 -8.9900 -1.6187 0.9610
4.6056 -8.6794 -1.6187 0.9610
4.9169 -8.5069 -1.6187 0.9610
5.5197 -8.1287 -1.6187 0.9610
5.8104 -7.9234 -1.6187 0.9610
6.3687 -7.4821 -1.6187 0.9610
6.6354 -7.2466 -1.6187 0.9610
6.8935 -7.0015 -1.6187 0.9610
7.1425 -6.7473 -1.6187 0.9610
7.6121 -6.2126 -1.6186 0.9610
7.8321 -5.9329 -1.6186 0.9610
8.6066 -4.7399 -1.6186 0.9610
8.9271 -4.1046 -1.6186 0.9610
0.7691 -8.5775 -1.6187 0.9656
1.0792 -8.5440 -1.6187 0.9656
1.3879 -8.4993 -1.6187 0.9656
1.9995 -8.3765 -1.6187 0.9656
2.3015 -8.2986 -1.6187 0.9656
3.1879 -8.0000 -1.6187 0.9656
3.7585 -7.7483 -1.6187 0.9656
4.5766 -7.2950 -1.6187 0.9656
5.3407 -6.7556 -1.6187 0.9656
5.5819 -6.5578 -1.6187 0.9656
6.0419 -6.1365 -1.6187 0.9656
6.2601 -5.9137 -1.6187 0.9656
7.6888 -3.8785 -1.6186 0.9656
7.8242 -3.5975 -1.6186 0.9656
0.4073 -7.6469 -1.6187 0.9692
1.7779 -7.4485 -1.6187 0.9692
2.0465 -7.3792 -1.6187 0.9692
2.3124 -7.3002 -1.6187 0.9692
2.5752 -7.2117 -1.6187 0.9692
3.3421 -6.8899 -1.6187 0.9692
3.8320 -6.6299 -1.6187 0.9692
4.0696 -6.4868 -1.6187 0.9692
4.3018 -6.3351 -1.6187 0.9692
4.5284 -6.1752 -1.6187 0.9692
5.5666 -5.2585 -1.6187 0.9692
5.9326 -4.8419 -1.6187 0.9692
6.2674 -4.3998 -1.6187 0.9692
6.4226 -4.1699 -1.6187 0.9692
6.8370 -3.4488 -1.6187 0.9692
6.9574 -3.1989 -1.6187 0.9692
0.3663 -6.8777 -1.6187 0.9721
0.6151 -6.8599 -1.6187 0.9721
0.8631 -6.8331 -1.6187 0.9721
1.1100 -6.7973 -1.6187 0.9721
1.3554 -6.7527 -1.6187 0.9721
1.8406 -6.6368 -1.6187 0.9721
2.0798 -6.5658 -1.6187 0.9721
2.3162 -6.4862 -1.6187 0.9721
2.5495 -6.3981 -1.6187 0.9721
2.7795 -6.3016 -1.6187 0.9721
3.0059 -6.1968 -1.6187 0.9721
3.2283 -6.0838 -1.6187 0.9721
3.8691 -5.6978 -1.6187 0.9721
4.4642 -5.2446 -1.6187 0.9721
4.6511 -5.0795 -1.6187 0.9721
4.8320 -4.9077 -1.6187 0.9721
5.0066 -4.7296 -1.6187 0.9721
5.1746 -4.5451 -1.6187 0.9721
5.3358 -4.3548 -1.6187 0.9721
5.4900 -4.1587 -1.6187 0.9721
5.9086 -3.5388 -1.6187 0.9721
6.3576 -2.6486 -1.6187 0.9721
0.3325 -6.2429 -1.6187 0.9745
0.5584 -6.2268 -1.6187 0.9745
0.7835 -6.2025 -1.6187 0.9745
1.2304 -6.1295 -1.6187 0.9745
1.4515 -6.0809 -1.6187 0.9745
1.8878 -5.9599 -1.6187 0.9745
2.1024 -5.8876 -1.6187 0.9745
2.5230 -5.7200 -1.6187 0.9745
2.9304 -5.5224 -1.6187 0.9745
3.1285 -5.4126 -1.6187 0.9745
3.3224 -5.2958 -1.6187 0.9745
3.5120 -5.1720 -1.6187 0.9745
3.8771 -4.9042 -1.6187 0.9745
4.0522 -4.7606 -1.6187 0.9745
4.3861 -4.4548 -1.6187 0.9745
4.5446 -4.2931 -1.6187 0.9745
4.6970 -4.1257 -1.6187 0.9745
4.8434 -3.9529 -1.6187 0.9745
4.9833 -3.7749 -1.6187 0.9745
5.3633 -3.2122 -1.6187 0.9745
5.4761 -3.0159 -1.6187 0.9745
5.5817 -2.8156 -1.6187 0.9745
5.6800 -2.6116 -1.6187 0.9745
5.7709 -2.4042 -1.6187 0.9745
1.1253 -5.6061 -1.6187 0.9765
1.7266 -5.4510 -1.6187 0.9765
1.9229 -5.3848 -1.6187 0.9765
2.4955 -5.1446 -1.6187 0.9765
2.6802 -5.0508 -1.6187 0.9765
2.8613 -4.9504 -1.6187 0.9765
3.2121 -4.7303 -1.6187 0.9765
3.3813 -4.6109 -1.6187 0.9765
3.5460 -4.4854 -1.6187 0.9765
3.7061 -4.3541 -1.6187 0.9765
3.8614 -4.2170 -1.6187 0.9765
4.0116 -4.0744 -1.6187 0.9765
4.5578 -3.4525 -1.6187 0.9765
4.9053 -2.9379 -1.6187 0.9765
5.0085 -2.7583 -1.6187 0.9765
5.1051 -2.5752 -1.6187 0.9765
5.1950 -2.3886 -1.6187 0.9765
5.2781 -2.1989 -1.6187 0.9765
0.4700 -5.2417 -1.6187 0.9782
1.0357 -5.1598 -1.6187 0.9782
1.4064 -5.0713 -1.6187 0.9782
1.7698 -4.9562 -1.6187 0.9782
1.9481 -4.8888 -1.6187 0.9782
2.1239 -4.8151 -1.6187 0.9782
2.2969 -4.7350 -1.6187 0.9782
2.6335 -4.5563 -1.6187 0.9782
2.7968 -4.4580 -1.6187 0.9782
3.8256 -3.6139 -1.6187 0.9782
4.0771 -3.3275 -1.6187 0.9782
4.1950 -3.1777 -1.6187 0.9782
4.3073 -3.0237 -1.6187 0.9782
4.4139 -2.8658 -1.6187 0.9782
4.7814 -2.1984 -1.6187 0.9782
0.2590 -4.8628 -1.6187 0.9797
0.6103 -4.8313 -1.6187 0.9797
0.9584 -4.7744 -1.6187 0.9797
1.1306 -4.7366 -1.6187 0.9797
1.8026 -4.5237 -1.6187 0.9797
2.4368 -4.2160 -1.6187 0.9797
2.5879 -4.1250 -1.6187 0.9797
2.8797 -3.9269 -1.6187 0.9797
3.2886 -3.5914 -1.6187 0.9797
3.4165 -3.4700 -1.6187 0.9797
3.6586 -3.2136 -1.6187 0.9797
3.7726 -3.0790 -1.6187 0.9797
3.8816 -2.9404 -1.6187 0.9797
3.9856 -2.7979 -1.6187 0.9797
4.0843 -2.6517 -1.6187 0.9797
4.3478 -2.1931 -1.6187 0.9797
4.4951 -1.8727 -1.6187 0.9797
0.2407 -4.5201 -1.6187 0.9810
0.4043 -4.5084 -1.6187 0.9810
0.7295 -4.4673 -1.6187 0.9810
0.8908 -4.4379 -1.6187 0.9810
1.0509 -4.4028 -1.6187 0.9810
1.3668 -4.3151 -1.6187 0.9810
1.5222 -4.2628 -1.6187 0.9810
1.6756 -4.2049 -1.6187 0.9810
1.8268 -4.1414 -1.6187 0.9810
1.9755 -4.0726 -1.6187 0.9810
2.4055 -3.8343 -1.6187 0.9810
2.8072 -3.5508 -1.6187 0.9810
3.1757 -3.2254 -1.6187 0.9810
3.4008 -2.9871 -1.6187 0.9810
3.5068 -2.8620 -1.6187 0.9810
3.7965 -2.4649 -1.6187 0.9810
3.8832 -2.3257 -1.6187 0.9810
4.1125 -1.8909 -1.6187 0.9810
4.1783 -1.7407 -1.6187 0.9810
0.6808 -4.1687 -1.6187 0.9821
0.8313 -4.1414 -1.6187 0.9821
0.9807 -4.1085 -1.6187 0.9821
1.1288 -4.0703 -1.6187 0.9821
1.2755 -4.0268 -1.6187 0.9821
1.9799 -3.7312 -1.6187 0.9821
2.1137 -3.6570 -1.6187 0.9821
2.2448 -3.5781 -1.6187 0.9821
2.4979 -3.4062 -1.6187 0.9821
2.7378 -3.2165 -1.6187 0.9821
3.1736 -2.7875 -1.6187 0.9821
3.2724 -2.6708 -1.6187 0.9821
3.3670 -2.5505 -1.6187 0.9821
3.4571 -2.4269 -1.6187 0.9821
3.5427 -2.3001 -1.6187 0.9821
3.6237 -2.1703 -1.6187 0.9821
3.6999 -2.0377 -1.6187 0.9821
3.7713 -1.9024 -1.6187 0.9821
3.8377 -1.7645 -1.6187 0.9821
3.8991 -1.6244 -1.6187 0.9821
0.2104 -3.9494 -1.6187 0.9831
0.6374 -3.9033 -1.6187 0.9831
1.1943 -3.7704 -1.6187 0.9831
1.5961 -3.6186 -1.6187 0.9831
1.8539 -3.4936 -1.6187 0.9831
1.9792 -3.4242 -1.6187 0.9831
2.1019 -3.3503 -1.6187 0.9831
2.4528 -3.1026 -1.6187 0.9831
2.5636 -3.0117 -1.6187 0.9831
2.6709 -2.9169 -1.6187 0.9831
2.8750 -2.7159 -1.6187 0.9831
3.1526 -2.3881 -1.6187 0.9831
3.2370 -2.2724 -1.6187 0.9831
3.5934 -1.6522 -1.6187 0.9831
0.4655 -3.6849 -1.6187 0.9839
0.9926 -3.5791 -1.6187 0.9839
1.1216 -3.5408 -1.6187 0.9839
1.2491 -3.4978 -1.6187 0.9839
1.3749 -3.4503 -1.6187 0.9839
1.4989 -3.3983 -1.6187 0.9839
1.6210 -3.3418 -1.6187 0.9839
1.7410 -3.2808 -1.6187 0.9839
1.8586 -3.2157 -1.6187 0.9839
1.9739 -3.1463 -1.6187 0.9839
2.3034 -2.9136 -1.6187 0.9839
2.4074 -2.8283 -1.6187 0.9839
2.6999 -2.5505 -1.6187 0.9839
2.9606 -2.2427 -1.6187 0.9839
3.0399 -2.1340 -1.6187 0.9839
3.1152 -2.0225 -1.6187 0.9839
3.3161 -1.6727 -1.6187 0.9839
3.4285 -1.4283 -1.6187 0.9839
0.1860 -3.4920 -1.6187 0.9847
0.5636 -3.4513 -1.6187 0.9847
0.8119 -3.4014 -1.6187 0.9847
0.9346 -3.3698 -1.6187 0.9847
1.5262 -3.1463 -1.6187 0.9847
1.7500 -3.0276 -1.6187 0.9847
1.9645 -2.8930 -1.6187 0.9847
2.3616 -2.5791 -1.6187 0.9847
2.4534 -2.4919 -1.6187 0.9847
2.7092 -2.2111 -1.6187 0.9847
2.8621 -2.0092 -1.6187 0.9847
2.9330 -1.9043 -1.6187 0.9847
3.0000 -1.7968 -1.6187 0.9847
3.1222 -1.5749 -1.6187 0.9847
3.2280 -1.3448 -1.6187 0.9847
0.1755 -3.2953 -1.6187 0.9854
0.4136 -3.2739 -1.6187 0.9854
0.8819 -3.1799 -1.6187 0.9854
1.1097 -3.1077 -1.6187 0.9854
1.2216 -3.0655 -1.6187 0.9854
1.6514 -2.8570 -1.6187 0.9854
1.8538 -2.7300 -1.6187 0.9854
1.9514 -2.6611 -1.6187 0.9854
2.0465 -2.5887 -1.6187 0.9854
2.2285 -2.4338 -1.6187 0.9854
2.3152 -2.3515 -1.6187 0.9854
2.4793 -2.1777 -1.6187 0.9854
2.5566 -2.0865 -1.6187 0.9854
2.7009 -1.8960 -1.6187 0.9854
2.7677 -1.7970 -1.6187 0.9854
2.8310 -1.6955 -1.6187 0.9854
2.8906 -1.5919 -1.6187 0.9854
2.9463 -1.4862 -1.6187 0.9854
2.9982 -1.3785 -1.6187 0.9854
0.3910 -3.0956 -1.6187 0.9860
0.6141 -3.0592 -1.6187 0.9860
0.7244 -3.0349 -1.6187 0.9860
0.8339 -3.0067 -1.6187 0.9860
0.9422 -2.9746 -1.6187 0.9860
1.1550 -2.8986 -1.6187 0.9860
1.3618 -2.8073 -1.6187 0.9860
1.8452 -2.5162 -1.6187 0.9860
1.9351 -2.4477 -1.6187 0.9860
2.0224 -2.3760 -1.6187 0.9860
2.2682 -2.1427 -1.6187 0.9860
2.3443 -2.0591 -1.6187 0.9860
2.4872 -1.8840 -1.6187 0.9860
2.6170 -1.6991 -1.6187 0.9860
2.7331 -1.5052 -1.6187 0.9860
2.7858 -1.4052 -1.6187 0.9860
2.8802 -1.1999 -1.6187 0.9860
0.1572 -2.9513 -1.6187 0.9866
0.3704 -2.9321 -1.6187 0.9866
0.4763 -2.9168 -1.6187 0.9866
0.7898 -2.8479 -1.6187 0.9866
0.8925 -2.8175 -1.6187 0.9866
1.1927 -2.7041 -1.6187 0.9866
1.5706 -2.5035 -1.6187 0.9866
1.7477 -2.3833 -1.6187 0.9866
1.9156 -2.2505 -1.6187 0.9866
1.9959 -2.1797 -1.6187 0.9866
2.0735 -2.1060 -1.6187 0.9866
2.2205 -1.9504 -1.6187 0.9866
2.2897 -1.8687 -1.6187 0.9866
2.3558 -1.7845 -1.6187 0.9866
2.4189 -1.6981 -1.6187 0.9866
2.4788 -1.6093 -1.6187 0.9866
2.6387 -1.3310 -1.6187 0.9866
2.6852 -1.2346 -1.6187 0.9866
0.1491 -2.7997 -1.6187 0.9871
0.2504 -2.7925 -1.6187 0.9871
0.8466 -2.6728 -1.6187 0.9871
1.0379 -2.6045 -1.6187 0.9871
1.1315 -2.5652 -1.6187 0.9871
1.3142 -2.4766 -1.6187 0.9871
1.5750 -2.3195 -1.6187 0.9871
1.6580 -2.2609 -1.6187 0.9871
1.7388 -2.1994 -1.6187 0.9871
1.8934 -2.0678 -1.6187 0.9871
1.9670 -1.9978 -1.6187 0.9871
2.2947 -1.6109 -1.6187 0.9871
2.4053 -1.4405 -1.6187 0.9871
2.4558 -1.3525 -1.6187 0.9871
