ply
format ascii 1.0
element vertex 442
property float32 x
property float32 y
property float32 z
property float32 I
end_header
-11.0460 24.7984 4.7868 0.8956
-11.9434 22.3618 4.4701 0.9022
-12.2936 21.1608 4.3152 0.9054
-12.9039 18.9507 4.0426 0.9111
-12.2556 16.6839 3.6502 0.9194
-12.4708 15.7633 3.5441 0.9216
-13.7998 15.0888 3.6055 0.9203
-14.3063 12.6168 3.3634 0.9254
-15.1822 10.7354 3.2787 0.9273
-15.3777 10.0689 3.2410 0.9281
-17.2227 8.8021 3.4105 0.9244
-28.6800 12.1585 5.4927 0.8812
-12.2935 21.1606 3.7490 0.9057
-12.5434 19.9160 3.6057 0.9091
-12.8669 18.8963 3.5022 0.9116
-13.2788 16.7846 3.2787 0.9170
-13.7485 16.1562 3.2499 0.9177
-13.9871 15.2935 3.1750 0.9196
-14.9925 11.4264 2.8878 0.9266
-15.1917 10.7421 2.8503 0.9275
-15.3777 10.0689 2.8158 0.9283
-15.7373 8.7661 2.7597 0.9297
-29.2433 12.3973 4.8658 0.8794
-11.9558 22.3850 3.3047 0.9027
-12.6088 20.0198 3.0810 0.9090
-12.9039 18.9507 2.9856 0.9117
-13.4596 17.0131 2.8249 0.9162
-12.1754 10.7376 2.1140 0.9366
-12.3115 10.0988 2.0736 0.9378
-12.4771 9.5094 2.0429 0.9387
-12.6608 8.9525 2.0192 0.9394
-15.3776 10.0689 2.3936 0.9285
-16.1280 9.7550 2.4545 0.9268
-17.2227 8.8022 2.5187 0.9249
-29.2433 12.3972 4.1361 0.8797
-35.0743 13.4114 4.8899 0.8594
-11.6053 23.7331 2.8369 0.8992
-12.2937 21.1609 2.6279 0.9062
-12.6088 20.0198 2.5406 0.9092
-10.7301 15.7583 2.0472 0.9262
-13.2348 18.0169 2.4006 0.9140
-13.6472 17.2503 2.3620 0.9153
-13.7485 16.1562 2.2780 0.9182
-14.8984 14.1172 2.2040 0.9207
-14.9681 12.2779 2.0789 0.9251
-15.0007 11.4327 2.0253 0.9269
-15.3776 10.0689 1.9738 0.9287
-13.1267 7.3120 1.6135 0.9413
-19.2426 8.9821 2.2803 0.9181
-8.9492 22.1931 2.0257 0.9084
-12.0222 24.5858 2.3167 0.8960
-9.9647 18.6572 1.7905 0.9186
-12.4414 21.4151 2.0966 0.9054
-12.7117 20.1832 2.0192 0.9087
-13.6472 17.2503 1.8620 0.9155
-13.7485 16.1562 1.7958 0.9184
-13.9871 15.2935 1.7544 0.9202
-14.6728 14.9344 1.7723 0.9194
-14.9247 14.1421 1.7405 0.9208
-14.9935 12.2987 1.6416 0.9251
-14.9856 11.4212 1.5950 0.9272
-15.1916 10.7420 1.5750 0.9280
-15.3776 10.0689 1.5560 0.9289
-13.1267 7.3120 1.2720 0.9415
-15.6418 7.9942 1.4870 0.9319
-19.2260 8.9743 1.7961 0.9184
-27.0061 11.4488 2.4831 0.8889
-10.8786 26.9779 1.8038 0.8900
-11.9988 24.5379 1.6938 0.8963
-9.9647 18.6572 1.3116 0.9187
-12.9039 18.9507 1.4217 0.9122
-13.2348 18.0169 1.3863 0.9143
-13.6703 17.2794 1.3663 0.9155
-14.6728 14.9344 1.2983 0.9195
-14.9247 14.1421 1.2750 0.9209
-14.6018 12.8775 1.2073 0.9249
-12.7386 7.7049 0.9232 0.9421
-15.6418 7.9942 1.0893 0.9320
-25.2738 10.7144 1.7022 0.8958
-10.8919 27.0109 1.1484 0.8900
-9.5323 19.4940 0.8556 0.9168
-10.1147 17.4103 0.7940 0.9226
-10.8518 14.7729 0.7228 0.9292
-11.2101 13.1733 0.6821 0.9331
-11.4743 12.5460 0.6704 0.9342
-11.6630 11.8709 0.6562 0.9356
-11.8441 11.2230 0.6434 0.9368
-12.0184 10.5992 0.6319 0.9379
-12.1869 9.9965 0.6215 0.9389
-12.7386 7.7049 0.5870 0.9421
-17.9468 8.3772 0.7810 0.9238
-10.6212 15.5983 0.3188 0.9273
-11.2101 13.1733 0.2922 0.9331
-11.4743 12.5460 0.2872 0.9342
-11.6630 11.8709 0.2811 0.9356
-12.1869 9.9965 0.2663 0.9389
-12.3501 9.4125 0.2623 0.9398
-12.5087 8.8450 0.2588 0.9406
-12.6634 8.2917 0.2557 0.9412
-14.5637 7.4432 0.2763 0.9367
-9.2050 20.6653 -0.1274 0.9135
-10.6212 15.5983 -0.1062 0.9273
-11.0700 13.9926 -0.1005 0.9311
-11.2101 13.1733 -0.0974 0.9331
-11.6630 11.8709 -0.0937 0.9356
-11.8441 11.2230 -0.0919 0.9368
-12.0184 10.5992 -0.0902 0.9379
-12.1869 9.9965 -0.0887 0.9389
-12.3501 9.4125 -0.0874 0.9398
-12.7386 7.7049 -0.0838 0.9422
-12.8891 7.1796 -0.0831 0.9427
-14.5637 7.4432 -0.0921 0.9367
-8.8480 21.9423 -0.6662 0.9097
-9.2050 20.6653 -0.6370 0.9135
-10.1147 17.4103 -0.5670 0.9226
-11.0700 13.9926 -0.5024 0.9311
-11.4743 12.5460 -0.4787 0.9342
-11.8441 11.2230 -0.4594 0.9368
-12.1869 9.9965 -0.4438 0.9389
-12.3501 9.4125 -0.4372 0.9398
-12.7386 7.7049 -0.4192 0.9422
-12.8891 7.1796 -0.4154 0.9427
-14.5637 7.4432 -0.4605 0.9366
-23.0746 8.8231 -0.6956 0.9059
-8.8480 21.9423 -1.1999 0.9096
-9.2050 20.6653 -1.1473 0.9134
-9.5323 19.4940 -1.1005 0.9168
-11.4743 12.5460 -0.8622 0.9342
-11.6629 11.8709 -0.8440 0.9355
-12.3500 9.4125 -0.7875 0.9397
-12.5087 8.8449 -0.7769 0.9405
-14.5637 7.4432 -0.8295 0.9366
-23.0747 8.8231 -1.2528 0.9058
-27.6791 8.3719 -1.4665 0.8906
-27.9606 7.3772 -1.4665 0.8906
-7.4793 18.5480 -1.4664 0.9229
-8.1375 18.2689 -1.4664 0.9229
-10.3761 16.4749 -1.4276 0.9249
-10.8518 14.7729 -1.3440 0.9291
-11.0699 13.9926 -1.3082 0.9309
-11.4743 12.5460 -1.2466 0.9341
-12.3501 9.4125 -1.1385 0.9396
-12.8891 7.1796 -1.0818 0.9425
-14.5637 7.4432 -1.1992 0.9365
-17.9468 8.3772 -1.4522 0.9236
-18.4138 7.8063 -1.4665 0.9229
-18.9245 6.4708 -1.4665 0.9229
-19.3384 5.1023 -1.4665 0.9229
-5.7121 14.1656 -1.4664 0.9405
-6.7096 13.7213 -1.4664 0.9405
-7.6728 13.2070 -1.4664 0.9405
-9.4768 11.9788 -1.4664 0.9405
-9.8989 11.6324 -1.4664 0.9405
-10.7047 10.8955 -1.4664 0.9405
-11.0873 10.5059 -1.4664 0.9405
-11.4558 10.1029 -1.4664 0.9405
-11.8096 9.6870 -1.4664 0.9405
-12.1483 9.2587 -1.4664 0.9405
-12.4715 8.8186 -1.4664 0.9405
-12.8891 7.1796 -1.4164 0.9424
-13.8408 6.4606 -1.4664 0.9405
-14.0629 5.9618 -1.4664 0.9405
-14.4529 4.9418 -1.4664 0.9405
-5.0229 11.2765 -1.4664 0.9515
-5.8157 10.8888 -1.4664 0.9515
-6.2012 10.6740 -1.4664 0.9515
-6.5788 10.4456 -1.4664 0.9515
-6.9480 10.2038 -1.4664 0.9515
-7.3082 9.9489 -1.4664 0.9515
-7.6592 9.6813 -1.4664 0.9515
-8.9608 8.4910 -1.4664 0.9515
-9.2586 8.1653 -1.4664 0.9515
-9.5446 7.8291 -1.4664 0.9515
-9.8183 7.4830 -1.4664 0.9515
-10.0796 7.1273 -1.4664 0.9515
-10.3279 6.7625 -1.4664 0.9515
-10.5630 6.3890 -1.4664 0.9515
-10.7846 6.0073 -1.4664 0.9515
-10.9925 5.6180 -1.4664 0.9515
-11.1862 5.2215 -1.4664 0.9515
-11.3657 4.8183 -1.4664 0.9515
-10.4949 4.0130 -1.3347 0.9557
-2.0719 0.6267 -0.2571 0.9913
-3.8704 9.5981 -1.4663 0.9591
-4.2109 9.4537 -1.4664 0.9591
-4.8756 9.1287 -1.4664 0.9591
-5.5153 8.7570 -1.4664 0.9591
-6.4211 8.1164 -1.4664 0.9591
-7.5123 7.1184 -1.4664 0.9591
-7.7620 6.8454 -1.4664 0.9591
-8.0017 6.5635 -1.4664 0.9591
-8.2312 6.2733 -1.4664 0.9591
-8.4501 5.9751 -1.4664 0.9591
-8.6583 5.6693 -1.4664 0.9591
-9.3780 4.3774 -1.4664 0.9591
-9.5284 4.0394 -1.4664 0.9591
-9.6667 3.6963 -1.4664 0.9591
-1.9630 0.5937 -0.2906 0.9917
-1.9493 0.5143 -0.2856 0.9919
-3.3288 8.2551 -1.4663 0.9646
-3.6217 8.1309 -1.4663 0.9646
-3.9101 7.9962 -1.4663 0.9646
-4.4714 7.6965 -1.4664 0.9646
-4.7436 7.5317 -1.4664 0.9646
-5.0098 7.3574 -1.4664 0.9646
-6.0072 6.5683 -1.4664 0.9646
-6.2382 6.3494 -1.4664 0.9646
-6.4612 6.1224 -1.4664 0.9646
-6.6759 5.8875 -1.4664 0.9646
-6.8821 5.6452 -1.4664 0.9646
-7.2678 5.1391 -1.4664 0.9646
-7.4468 4.8760 -1.4664 0.9646
-7.6164 4.6067 -1.4664 0.9646
-7.7762 4.3315 -1.4664 0.9646
-7.9260 4.0508 -1.4664 0.9646
-8.1952 3.4742 -1.4664 0.9646
-1.8544 0.4893 -0.3159 0.9923
-3.4270 7.0083 -1.4663 0.9687
-3.6753 6.8813 -1.4663 0.9687
-3.9189 6.7456 -1.4663 0.9687
-4.1575 6.6012 -1.4663 0.9687
-4.8403 6.1182 -1.4664 0.9687
-5.0559 5.9413 -1.4664 0.9687
-5.2651 5.7568 -1.4664 0.9687
-5.4675 5.5650 -1.4664 0.9687
-5.6629 5.3660 -1.4664 0.9687
-6.3698 4.5041 -1.4664 0.9687
-6.9468 3.5503 -1.4664 0.9687
-7.0692 3.2998 -1.4664 0.9687
-7.4484 3.1576 -1.5206 0.9676
-1.7918 0.6851 -0.3606 0.9922
-1.7835 0.6098 -0.3543 0.9924
-3.0473 6.2318 -1.4663 0.9720
-3.4847 5.9982 -1.4663 0.9720
-3.6969 5.8698 -1.4663 0.9720
-3.9043 5.7339 -1.4663 0.9720
-4.8617 4.9484 -1.4664 0.9720
-5.5173 4.2050 -1.4664 0.9720
-5.6641 4.0051 -1.4664 0.9720
-5.8036 3.8001 -1.4664 0.9720
-5.9358 3.5902 -1.4664 0.9720
-6.9020 3.2217 -1.6101 0.9693
-7.0336 2.9818 -1.6148 0.9692
-1.7025 0.5821 -0.3803 0.9927
-1.6976 0.5134 -0.3749 0.9928
-2.3333 5.7864 -1.4663 0.9747
-3.3250 5.2793 -1.4663 0.9747
-3.5116 5.1571 -1.4663 0.9747
-3.6937 5.0283 -1.4663 0.9747
-3.8710 4.8931 -1.4663 0.9747
-4.0434 4.7516 -1.4663 0.9747
-4.3726 4.4506 -1.4663 0.9747
-4.6794 4.1268 -1.4663 0.9747
-4.9623 3.7820 -1.4664 0.9747
-5.0943 3.6022 -1.4664 0.9747
-6.1189 3.1272 -1.6150 0.9722
-1.6245 0.4913 -0.3989 0.9931
-1.6200 0.4274 -0.3938 0.9931
-2.4878 5.0876 -1.4663 0.9769
-2.6681 4.9955 -1.4663 0.9769
-3.0181 4.7921 -1.4663 0.9769
-3.1875 4.6812 -1.4663 0.9769
-3.8221 4.1791 -1.4663 0.9769
-4.1109 3.8954 -1.4663 0.9769
-4.2715 3.7671 -1.4746 0.9767
-5.2122 3.4128 -1.6131 0.9746
-5.3395 3.2296 -1.6157 0.9745
-1.5727 0.7341 -0.4494 0.9929
-1.5654 0.5986 -0.4339 0.9931
-1.5533 0.4098 -0.4159 0.9934
-1.9371 4.8038 -1.4663 0.9787
-2.2753 4.6532 -1.4663 0.9787
-3.0665 4.1745 -1.4663 0.9787
-3.2137 4.0622 -1.4663 0.9787
-3.3898 3.9834 -1.4807 0.9785
-3.5906 3.9260 -1.5062 0.9781
-3.7985 3.8662 -1.5344 0.9777
-4.0170 3.8064 -1.5666 0.9773
-4.2493 3.7475 -1.6039 0.9767
-4.4046 3.6130 -1.6128 0.9766
-4.5368 3.4577 -1.6148 0.9766
-4.7838 3.1323 -1.6187 0.9765
-1.5039 0.5142 -0.4499 0.9934
-1.4995 0.4535 -0.4435 0.9935
-1.7888 4.4361 -1.4712 0.9802
-1.9526 4.3836 -1.4760 0.9801
-2.2860 4.2802 -1.4925 0.9799
-2.9921 4.0732 -1.5545 0.9791
-3.3737 3.9645 -1.6012 0.9785
-3.6763 3.7419 -1.6134 0.9783
-3.8114 3.6116 -1.6150 0.9783
-3.9422 3.4767 -1.6167 0.9782
-4.0686 3.3374 -1.6186 0.9782
-4.1858 3.1902 -1.6187 0.9782
-4.4030 2.8830 -1.6187 0.9782
-1.4982 0.9062 -0.5385 0.9927
-1.6154 0.8998 -0.5687 0.9923
-1.4561 0.7442 -0.5030 0.9932
-1.4559 0.6796 -0.4942 0.9933
-1.4529 0.5555 -0.4784 0.9935
-1.4438 0.3809 -0.4593 0.9938
-1.7803 4.4149 -1.5823 0.9801
-3.0147 3.8107 -1.6151 0.9797
-3.1513 3.7032 -1.6163 0.9797
-3.2842 3.5910 -1.6176 0.9797
-3.5349 3.3495 -1.6187 0.9797
-3.6523 3.2211 -1.6187 0.9797
-1.6154 0.8998 -0.6146 0.9922
-1.4025 0.5946 -0.5064 0.9936
-1.4015 0.5359 -0.4988 0.9937
-1.3998 0.4786 -0.4917 0.9938
-1.8381 4.1265 -1.6154 0.9810
-1.9849 4.0591 -1.6158 0.9810
-2.1293 3.9867 -1.6163 0.9810
-2.8085 3.5500 -1.6187 0.9810
-2.9336 3.4473 -1.6187 0.9810
-3.4998 2.8708 -1.6187 0.9810
-1.4982 0.9062 -0.6261 0.9926
-1.3487 0.7512 -0.5521 0.9935
-1.3511 0.6905 -0.5426 0.9936
-1.3532 0.5737 -0.5256 0.9938
-1.3524 0.4624 -0.5111 0.9939
-1.3509 0.4086 -0.5047 0.9940
-1.3518 0.3567 -0.4999 0.9941
-1.5797 3.9175 -1.6187 0.9821
-1.8556 3.7947 -1.6187 0.9821
-2.2511 3.5742 -1.6187 0.9821
-2.3774 3.4915 -1.6187 0.9821
-2.6208 3.3127 -1.6187 0.9821
-3.2659 2.6789 -1.6187 0.9821
-3.5339 2.3139 -1.6187 0.9821
-1.2998 0.7241 -0.5702 0.9936
-1.3067 0.5539 -0.5439 0.9939
-1.3074 0.4470 -0.5295 0.9941
-1.6093 3.6129 -1.6187 0.9831
-1.8633 3.4887 -1.6187 0.9831
-1.9868 3.4199 -1.6187 0.9831
-2.3415 3.1875 -1.6187 0.9831
-2.4539 3.1018 -1.6187 0.9831
-2.5632 3.0121 -1.6187 0.9831
-2.7719 2.8213 -1.6187 0.9831
-3.0580 2.5084 -1.6187 0.9831
-3.2294 2.2835 -1.6187 0.9831
-3.3089 2.1666 -1.6187 0.9831
-1.2488 0.7554 -0.5973 0.9937
-1.2537 0.6983 -0.5873 0.9938
-1.2575 0.6427 -0.5780 0.9939
-1.2628 0.5354 -0.5614 0.9941
-1.2641 0.4834 -0.5539 0.9942
-1.2646 0.4324 -0.5470 0.9942
-1.3891 3.4447 -1.6187 0.9839
-2.1989 2.9934 -1.6187 0.9839
-2.3045 2.9129 -1.6187 0.9839
-2.4071 2.8287 -1.6187 0.9839
-2.5067 2.7408 -1.6187 0.9839
-2.6961 2.5547 -1.6187 0.9839
-3.0327 2.1444 -1.6187 0.9839
-1.3115 0.8587 -0.6832 0.9932
-1.2099 0.6740 -0.6036 0.9940
-1.2146 0.6208 -0.5945 0.9941
-1.2229 0.4676 -0.5706 0.9943
-1.2238 0.4184 -0.5637 0.9944
-1.3078 3.2433 -1.6187 0.9847
-1.5362 3.1416 -1.6187 0.9847
-1.8637 2.9591 -1.6187 0.9847
-1.9683 2.8906 -1.6187 0.9847
-2.1697 2.7426 -1.6187 0.9847
-2.2664 2.6633 -1.6187 0.9847
-2.3601 2.5805 -1.6187 0.9847
-2.5384 2.4053 -1.6187 0.9847
-2.6228 2.3131 -1.6187 0.9847
-2.8553 2.0190 -1.6187 0.9847
-1.1555 0.7566 -0.6393 0.9939
-1.1626 0.7032 -0.6289 0.9940
-1.1687 0.6510 -0.6193 0.9941
-1.1739 0.5999 -0.6102 0.9942
-1.1780 0.5499 -0.6018 0.9943
-1.1812 0.5007 -0.5938 0.9944
-1.1848 0.4051 -0.5796 0.9945
-1.1882 0.3594 -0.5746 0.9945
-1.1918 0.3144 -0.5705 0.9946
-1.2341 3.0605 -1.6187 0.9854
-1.4496 2.9646 -1.6187 0.9854
-1.5547 2.9108 -1.6187 0.9854
-1.9537 2.6596 -1.6187 0.9854
-2.0475 2.5880 -1.6187 0.9854
-2.1386 2.5132 -1.6187 0.9854
-2.2271 2.4351 -1.6187 0.9854
-2.3128 2.3540 -1.6187 0.9854
-2.3954 2.2698 -1.6187 0.9854
-2.4750 2.1827 -1.6187 0.9854
-2.6246 2.0004 -1.6187 0.9854
-1.1147 0.7882 -0.6696 0.9939
-1.1395 0.5319 -0.6169 0.9944
-1.1431 0.4846 -0.6090 0.9945
-1.1457 0.4381 -0.6017 0.9945
-1.1475 0.3924 -0.5949 0.9946
-1.1559 0.3050 -0.5864 0.9947
-1.3707 2.8031 -1.6187 0.9860
-1.4700 2.7523 -1.6187 0.9860
-1.5674 2.6980 -1.6187 0.9860
-1.8472 2.5147 -1.6187 0.9860
-1.9360 2.4471 -1.6187 0.9860
-2.0222 2.3763 -1.6187 0.9860
-2.1058 2.3025 -1.6187 0.9860
-2.1868 2.2258 -1.6187 0.9860
-2.3402 2.0639 -1.6187 0.9860
-2.4125 1.9789 -1.6187 0.9860
-1.0550 0.7460 -0.6703 0.9942
-1.0851 0.6563 -0.6579 0.9943
-1.0978 0.5611 -0.6396 0.9945
-1.1066 0.4691 -0.6235 0.9946
-1.1127 0.3805 -0.6101 0.9947
-1.2026 2.6998 -1.6187 0.9866
-1.2983 2.6550 -1.6187 0.9866
-1.3924 2.6070 -1.6187 0.9866
-1.5750 2.5008 -1.6187 0.9866
-1.6634 2.4429 -1.6187 0.9866
-1.7497 2.3819 -1.6187 0.9866
-1.9946 2.1809 -1.6187 0.9866
-2.2166 1.9549 -1.6187 0.9866
-0.9853 0.7509 -0.6785 0.9944
-1.0057 0.7111 -0.6746 0.9944
-1.0561 0.5883 -0.6621 0.9945
-1.0716 0.4543 -0.6375 0.9947
-1.0841 0.3279 -0.6203 0.9948
-1.0851 0.2863 -0.6147 0.9949
-1.2316 2.5187 -1.6187 0.9871
-1.4084 2.4243 -1.6187 0.9871
-1.4942 2.3724 -1.6187 0.9871
-1.5780 2.3175 -1.6187 0.9871
-1.7396 2.1988 -1.6187 0.9871
-1.8170 2.1352 -1.6187 0.9871
-1.9649 2.0000 -1.6187 0.9871
-0.9189 0.7537 -0.6862 0.9945
-0.9597 0.6786 -0.6786 0.9946
-1.0258 0.5243 -0.6651 0.9947
-1.0379 0.4400 -0.6509 0.9948
-1.0415 0.3982 -0.6438 0.9949
-1.0470 0.3580 -0.6388 0.9949
-1.0492 0.3173 -0.6329 0.9949
-1.0504 0.2771 -0.6272 0.9950
