ply
format ascii 1.0
element vertex 478
property float32 x
property float32 y
property float32 z
property float32 I
end_header
-8.0699 -41.9223 7.5277 0.8408
-5.0931 -42.7898 7.5983 0.8394
-3.5742 -43.1636 7.6370 0.8387
-0.4804 -44.0177 7.7620 0.8363
6.1242 -45.9531 8.1744 0.8284
-8.0699 -41.9223 6.5402 0.8413
-6.6068 -42.4721 6.5847 0.8403
-5.1046 -42.8868 6.6164 0.8396
-2.0398 -43.5872 6.6846 0.8381
-0.4804 -44.0177 6.7437 0.8368
7.8425 -46.1462 7.1707 0.8274
9.6611 -46.6546 7.2988 0.8246
-6.5617 -42.1826 5.5591 0.8418
-5.0733 -42.6237 5.5897 0.8410
-3.5661 -43.0658 5.6273 0.8400
-2.0340 -43.4627 5.6659 0.8390
-0.4804 -44.0177 5.7324 0.8373
4.3796 -45.1784 5.9107 0.8327
6.0845 -45.6549 5.9978 0.8304
7.8425 -46.1462 6.0954 0.8279
9.6611 -46.6546 6.2043 0.8252
11.5484 -47.1820 6.3255 0.8221
-5.1045 -42.8856 4.6376 0.8405
2.7215 -44.7149 4.8104 0.8351
4.3796 -45.1784 4.8741 0.8331
6.0844 -45.6548 4.9458 0.8309
11.5484 -47.1820 5.2160 0.8225
14.0560 -43.6177 4.9209 0.8316
17.2240 -18.7893 2.7371 0.9025
-6.5766 -42.2780 3.6220 0.8422
-5.0813 -42.6908 3.6394 0.8415
-2.0346 -43.4767 3.6845 0.8397
-0.4790 -43.8897 3.7156 0.8385
4.3796 -45.1784 3.8424 0.8334
6.0844 -45.6548 3.8990 0.8312
7.8425 -46.1462 3.9624 0.8287
9.6611 -46.6545 4.0332 0.8259
11.5484 -47.1820 4.1120 0.8228
12.5560 -44.3495 3.9019 0.8311
17.2863 -42.8496 3.9114 0.8307
21.7353 -44.4099 4.1855 0.8200
17.2167 -18.7814 2.1568 0.9028
-6.5917 -42.3749 2.6593 0.8421
-3.5741 -43.1624 2.6857 0.8407
-2.0398 -43.5859 2.7057 0.8396
-0.4804 -44.0164 2.7296 0.8383
7.8425 -46.1462 2.9026 0.8290
9.6611 -46.6545 2.9544 0.8262
12.5560 -44.3495 2.8582 0.8313
13.3569 -41.4484 2.7004 0.8399
22.8435 -42.7240 3.0042 0.8235
23.8062 -34.9055 2.6200 0.8442
17.2095 -18.7735 1.5793 0.9030
4.3796 -45.1784 1.7898 0.8339
6.0844 -45.6548 1.8161 0.8316
9.6611 -46.6545 1.8787 0.8264
11.5484 -47.1820 1.9154 0.8233
13.3569 -41.4484 1.7171 0.8400
14.0749 -38.8479 1.6292 0.8476
15.6285 -38.7403 1.6472 0.8460
21.5941 -40.3872 1.8059 0.8325
24.0866 -41.4073 1.8889 0.8255
-8.0699 -41.9222 0.7211 0.8430
-3.5741 -43.1624 0.7316 0.8409
-2.0398 -43.5859 0.7370 0.8398
-0.4804 -44.0164 0.7436 0.8385
2.7215 -44.7149 0.7567 0.8359
6.0844 -45.6548 0.7780 0.8317
7.8425 -46.1462 0.7907 0.8292
9.6611 -46.6545 0.8048 0.8265
11.5484 -47.1820 0.8205 0.8234
12.5560 -44.3495 0.7786 0.8316
14.8749 -36.8724 0.6716 0.8529
18.5417 -37.8847 0.7125 0.8447
20.5529 -38.4399 0.7363 0.8400
25.0234 -39.6741 0.7923 0.8289
27.8095 -40.7753 0.8337 0.8208
-8.0698 -41.9222 -0.2404 0.8430
-6.6066 -42.4709 -0.2420 0.8420
-5.0976 -42.8283 -0.2428 0.8415
-3.5740 -43.1624 -0.2438 0.8409
-2.0398 -43.5859 -0.2457 0.8398
-0.4804 -44.0164 -0.2478 0.8386
4.3796 -45.1784 -0.2556 0.8340
7.8425 -46.1462 -0.2635 0.8292
9.6612 -46.6545 -0.2682 0.8265
12.5561 -44.3495 -0.2595 0.8316
14.0749 -38.8479 -0.2326 0.8477
14.7238 -36.4977 -0.2216 0.8543
15.8105 -35.4708 -0.2186 0.8561
19.5117 -36.4926 -0.2330 0.8474
21.5560 -37.0570 -0.2414 0.8424
-8.0699 -41.9222 -1.2021 0.8430
-2.0807 -13.3759 -0.3812 0.9473
-1.5770 -13.2491 -0.3757 0.9480
-1.1115 -13.4227 -0.3792 0.9475
-0.4804 -44.0164 -1.2395 0.8385
2.7215 -44.7149 -1.2614 0.8359
4.3796 -45.1784 -1.2781 0.8339
6.0844 -45.6548 -1.2969 0.8317
9.6611 -46.6545 -1.3416 0.8264
11.5484 -47.1820 -1.3678 0.8233
14.0749 -38.8479 -1.1635 0.8476
20.6358 -35.4751 -1.1556 0.8485
24.7413 -36.2765 -1.2364 0.8389
12.5861 -11.8940 -0.4876 0.9331
12.6971 -11.1650 -0.4761 0.9346
-1.5582 -13.0919 -0.6686 0.9486
-0.1570 -14.3812 -0.7294 0.9440
0.7410 -29.7095 -1.5072 0.8878
3.9179 -29.3973 -1.5040 0.8880
4.9748 -29.2722 -1.5058 0.8879
6.0160 -29.0521 -1.5046 0.8880
10.0851 -27.8357 -1.5015 0.8882
12.9888 -26.5390 -1.4985 0.8884
15.7434 -24.9609 -1.4966 0.8885
17.4797 -23.7532 -1.4956 0.8886
18.3017 -23.0886 -1.4942 0.8887
19.1069 -22.4053 -1.4933 0.8888
17.0537 -18.6035 -1.2799 0.9039
12.6262 -12.8192 -0.9125 0.9305
12.5599 -11.8692 -0.8764 0.9331
12.7720 -11.2309 -0.8625 0.9342
13.7729 -11.2618 -0.9023 0.9312
-2.5536 -13.2656 -0.9905 0.9473
-2.0448 -13.1454 -0.9754 0.9480
-1.0625 -12.8316 -0.9441 0.9497
-0.5952 -12.7174 -0.9335 0.9502
-0.1376 -12.6088 -0.9246 0.9507
0.3438 -13.7839 -1.0110 0.9462
1.2149 -19.9608 -1.4663 0.9229
1.9296 -19.9044 -1.4663 0.9229
3.3505 -19.7149 -1.4663 0.9229
4.0550 -19.5821 -1.4663 0.9229
7.4813 -18.5450 -1.4662 0.9229
8.7907 -17.9613 -1.4662 0.9229
9.4288 -17.6345 -1.4662 0.9229
11.8521 -16.1059 -1.4662 0.9229
10.2087 -11.9710 -1.1536 0.9388
13.5124 -14.7404 -1.4662 0.9229
12.6473 -12.8407 -1.3215 0.9303
13.8681 -11.3397 -1.3135 0.9307
13.8765 -10.5397 -1.2777 0.9325
-2.0538 -13.2026 -1.2828 0.9477
-1.5561 -13.0734 -1.2640 0.9485
-1.0670 -12.8859 -1.2413 0.9494
0.3808 -15.2684 -1.4663 0.9405
0.9278 -15.2448 -1.4663 0.9405
1.4737 -15.2017 -1.4663 0.9405
2.0176 -15.1391 -1.4663 0.9405
2.5590 -15.0570 -1.4663 0.9405
4.6845 -14.5366 -1.4663 0.9405
5.2025 -14.3593 -1.4663 0.9405
6.7138 -13.7178 -1.4662 0.9405
7.2012 -13.4683 -1.4662 0.9405
9.0520 -12.3008 -1.4662 0.9405
9.4870 -11.9684 -1.4662 0.9405
9.9099 -11.6207 -1.4662 0.9405
11.3838 -10.7578 -1.5037 0.9390
11.9349 -10.4949 -1.5258 0.9381
-2.5759 -13.3815 -1.6187 0.9466
-1.6106 -13.5316 -1.6187 0.9466
-0.1487 -13.6262 -1.6187 0.9466
2.2832 -13.4342 -1.6187 0.9466
2.7632 -13.3437 -1.6187 0.9466
3.2397 -13.2361 -1.6187 0.9466
3.7121 -13.1114 -1.6187 0.9466
4.6418 -12.8117 -1.6187 0.9466
5.5477 -12.4462 -1.6187 0.9466
6.4251 -12.0168 -1.6186 0.9466
7.6779 -11.2576 -1.6186 0.9466
8.4646 -10.6786 -1.6186 0.9466
9.9038 -9.3592 -1.6186 0.9466
10.8512 -8.2420 -1.6186 0.9466
-1.7560 -11.2886 -1.6187 0.9549
-1.3502 -11.3443 -1.6187 0.9549
-0.9428 -11.3854 -1.6187 0.9549
-0.5341 -11.4118 -1.6187 0.9549
-0.1247 -11.4236 -1.6187 0.9549
1.5092 -11.3241 -1.6187 0.9549
1.9141 -11.2627 -1.6187 0.9549
2.7160 -11.0966 -1.6187 0.9549
3.5040 -10.8734 -1.6187 0.9549
3.8915 -10.7408 -1.6187 0.9549
5.7442 -9.8748 -1.6187 0.9549
6.0944 -9.6626 -1.6187 0.9549
6.4368 -9.4379 -1.6187 0.9549
7.4127 -8.6924 -1.6186 0.9549
8.5789 -7.5437 -1.6186 0.9549
-1.8574 -9.6488 -1.6187 0.9609
-1.1613 -9.7570 -1.6187 0.9609
-0.4593 -9.8151 -1.6187 0.9609
-0.1072 -9.8253 -1.6187 0.9609
1.9924 -9.6216 -1.6187 0.9610
2.6766 -9.4541 -1.6187 0.9610
3.6760 -9.1121 -1.6187 0.9610
4.6329 -8.6648 -1.6187 0.9610
4.9405 -8.4932 -1.6187 0.9610
5.2417 -8.3107 -1.6187 0.9610
5.8236 -7.9137 -1.6187 0.9610
6.1035 -7.6999 -1.6187 0.9610
6.6395 -7.2429 -1.6187 0.9610
6.8948 -7.0002 -1.6187 0.9610
7.1413 -6.7486 -1.6187 0.9610
7.6064 -6.2196 -1.6186 0.9610
-1.6279 -8.4567 -1.6187 0.9656
-1.3238 -8.5096 -1.6187 0.9656
-1.0178 -8.5516 -1.6187 0.9656
-0.4026 -8.6025 -1.6187 0.9656
-0.0940 -8.6114 -1.6187 0.9656
0.8310 -8.5717 -1.6187 0.9656
1.1376 -8.5364 -1.6187 0.9656
1.4429 -8.4901 -1.6187 0.9656
1.7463 -8.4329 -1.6187 0.9656
2.0474 -8.3649 -1.6187 0.9656
2.3459 -8.2861 -1.6187 0.9656
2.9335 -8.0968 -1.6187 0.9656
3.5060 -7.8658 -1.6187 0.9656
4.0605 -7.5944 -1.6187 0.9656
5.1042 -6.9361 -1.6187 0.9656
5.5879 -6.5526 -1.6187 0.9656
6.0430 -6.1354 -1.6187 0.9656
6.2590 -5.9148 -1.6187 0.9656
6.4670 -5.6867 -1.6187 0.9656
6.6667 -5.4512 -1.6187 0.9656
6.8578 -5.2088 -1.6187 0.9656
-1.1771 -7.5668 -1.6187 0.9692
0.1909 -7.6554 -1.6187 0.9692
0.4652 -7.6436 -1.6187 0.9692
1.5528 -7.4986 -1.6187 0.9692
1.8206 -7.4382 -1.6187 0.9692
3.1176 -6.9943 -1.6187 0.9692
3.8504 -6.6192 -1.6187 0.9692
4.7568 -6.0010 -1.6187 0.9692
4.9689 -5.8266 -1.6187 0.9692
5.1745 -5.6448 -1.6187 0.9692
6.0981 -4.6317 -1.6187 0.9692
-1.0587 -6.8056 -1.6187 0.9721
-0.8140 -6.8392 -1.6187 0.9721
-0.0752 -6.8870 -1.6187 0.9721
0.1717 -6.8853 -1.6187 0.9721
0.9098 -6.8270 -1.6187 0.9721
1.1540 -6.7900 -1.6187 0.9721
1.6374 -6.6899 -1.6187 0.9721
1.8762 -6.6269 -1.6187 0.9721
3.0277 -6.1862 -1.6187 0.9721
3.2475 -6.0737 -1.6187 0.9721
3.4631 -5.9533 -1.6187 0.9721
3.6742 -5.8254 -1.6187 0.9721
3.8806 -5.6900 -1.6187 0.9721
4.0821 -5.5472 -1.6187 0.9721
4.4690 -5.2405 -1.6187 0.9721
5.4846 -4.1658 -1.6187 0.9721
-0.0682 -6.2514 -1.6187 0.9745
0.3798 -6.2403 -1.6187 0.9745
0.6032 -6.2226 -1.6187 0.9745
0.8259 -6.1970 -1.6187 0.9745
1.0475 -6.1634 -1.6187 0.9745
1.7030 -6.0153 -1.6187 0.9745
1.9176 -5.9504 -1.6187 0.9745
2.1296 -5.8779 -1.6187 0.9745
2.3389 -5.7977 -1.6187 0.9745
2.5452 -5.7102 -1.6187 0.9745
2.7483 -5.6153 -1.6187 0.9745
4.3870 -4.4540 -1.6187 0.9745
4.5438 -4.2939 -1.6187 0.9745
4.6948 -4.1283 -1.6187 0.9745
4.8397 -3.9574 -1.6187 0.9745
-0.6758 -5.6779 -1.6187 0.9765
-0.0624 -5.7176 -1.6187 0.9765
0.1425 -5.7161 -1.6187 0.9765
0.3474 -5.7073 -1.6187 0.9765
0.5517 -5.6912 -1.6187 0.9765
0.7554 -5.6678 -1.6187 0.9765
1.5576 -5.5017 -1.6187 0.9765
1.7538 -5.4423 -1.6187 0.9765
1.9477 -5.3759 -1.6187 0.9765
2.3279 -5.2225 -1.6187 0.9765
2.5136 -5.1358 -1.6187 0.9765
2.6960 -5.0423 -1.6187 0.9765
2.8750 -4.9425 -1.6187 0.9765
3.0503 -4.8362 -1.6187 0.9765
3.3890 -4.6053 -1.6187 0.9765
3.5519 -4.4808 -1.6187 0.9765
4.1558 -3.9272 -1.6187 0.9765
4.2939 -3.7758 -1.6187 0.9765
4.5533 -3.4584 -1.6187 0.9765
-0.6220 -5.2259 -1.6187 0.9782
-0.4343 -5.2448 -1.6187 0.9782
-0.0574 -5.2624 -1.6187 0.9782
0.1312 -5.2611 -1.6187 0.9782
0.3197 -5.2530 -1.6187 0.9782
0.8818 -5.1883 -1.6187 0.9782
1.6142 -5.0090 -1.6187 0.9782
2.6462 -4.5490 -1.6187 0.9782
2.8075 -4.4512 -1.6187 0.9782
2.9653 -4.3478 -1.6187 0.9782
3.2691 -4.1241 -1.6187 0.9782
3.5562 -3.8793 -1.6187 0.9782
3.6929 -3.7494 -1.6187 0.9782
4.0740 -3.3313 -1.6187 0.9782
4.1908 -3.1831 -1.6187 0.9782
-0.5755 -4.8355 -1.6187 0.9797
-0.4018 -4.8531 -1.6187 0.9797
-0.2276 -4.8643 -1.6187 0.9797
-0.0532 -4.8694 -1.6187 0.9797
0.1214 -4.8681 -1.6187 0.9797
0.2958 -4.8607 -1.6187 0.9797
0.4699 -4.8469 -1.6187 0.9797
0.9875 -4.7685 -1.6187 0.9797
1.3265 -4.6855 -1.6187 0.9797
1.6588 -4.5784 -1.6187 0.9797
1.8218 -4.5160 -1.6187 0.9797
2.4485 -4.2093 -1.6187 0.9797
2.8862 -3.9221 -1.6187 0.9797
3.0250 -3.8161 -1.6187 0.9797
3.1598 -3.7052 -1.6187 0.9797
3.2906 -3.5896 -1.6187 0.9797
3.5393 -3.3446 -1.6187 0.9797
3.7698 -3.0825 -1.6187 0.9797
3.8779 -2.9454 -1.6187 0.9797
-0.6958 -4.4727 -1.6187 0.9810
-0.3735 -4.5111 -1.6187 0.9810
-0.2116 -4.5215 -1.6187 0.9810
0.2750 -4.5181 -1.6187 0.9810
0.7584 -4.4625 -1.6187 0.9810
0.9179 -4.4324 -1.6187 0.9810
1.0761 -4.3967 -1.6187 0.9810
1.3884 -4.3083 -1.6187 0.9810
1.5419 -4.2557 -1.6187 0.9810
2.2760 -3.9126 -1.6187 0.9810
2.5504 -3.7395 -1.6187 0.9810
2.8118 -3.5472 -1.6187 0.9810
2.9371 -3.4441 -1.6187 0.9810
3.0587 -3.3366 -1.6187 0.9810
3.2898 -3.1089 -1.6187 0.9810
3.3992 -2.9890 -1.6187 0.9810
3.5041 -2.8653 -1.6187 0.9810
-0.3486 -4.2096 -1.6187 0.9821
-0.1975 -4.2194 -1.6187 0.9821
0.5580 -4.1869 -1.6187 0.9821
0.8565 -4.1362 -1.6187 0.9821
1.1506 -4.0642 -1.6187 0.9821
1.2956 -4.0204 -1.6187 0.9821
1.8568 -3.7939 -1.6187 0.9821
1.9916 -3.7249 -1.6187 0.9821
2.1239 -3.6511 -1.6187 0.9821
2.5035 -3.4021 -1.6187 0.9821
2.6239 -3.3101 -1.6187 0.9821
2.8542 -3.1136 -1.6187 0.9821
2.9640 -3.0093 -1.6187 0.9821
3.3637 -2.5549 -1.6187 0.9821
-0.7476 -3.8838 -1.6187 0.9831
-0.4675 -3.9273 -1.6187 0.9831
-0.3264 -3.9416 -1.6187 0.9831
-0.1849 -3.9507 -1.6187 0.9831
0.0986 -3.9538 -1.6187 0.9831
0.2403 -3.9477 -1.6187 0.9831
0.6626 -3.8991 -1.6187 0.9831
0.8020 -3.8729 -1.6187 0.9831
1.0774 -3.8055 -1.6187 0.9831
1.3473 -3.7185 -1.6187 0.9831
1.4796 -3.6678 -1.6187 0.9831
1.6102 -3.6124 -1.6187 0.9831
1.7386 -3.5524 -1.6187 0.9831
1.9887 -3.4187 -1.6187 0.9831
2.2285 -3.2674 -1.6187 0.9831
2.3442 -3.1855 -1.6187 0.9831
2.5663 -3.0093 -1.6187 0.9831
2.9700 -2.6117 -1.6187 0.9831
3.0618 -2.5035 -1.6187 0.9831
3.1495 -2.3922 -1.6187 0.9831
-0.5709 -3.6700 -1.6187 0.9839
-0.4390 -3.6882 -1.6187 0.9839
-0.3065 -3.7015 -1.6187 0.9839
-0.1736 -3.7101 -1.6187 0.9839
-0.0405 -3.7140 -1.6187 0.9839
0.2256 -3.7073 -1.6187 0.9839
0.4907 -3.6816 -1.6187 0.9839
0.7532 -3.6370 -1.6187 0.9839
0.8830 -3.6077 -1.6187 0.9839
1.0118 -3.5737 -1.6187 0.9839
1.1392 -3.5351 -1.6187 0.9839
1.5121 -3.3924 -1.6187 0.9839
1.6328 -3.3360 -1.6187 0.9839
1.7512 -3.2754 -1.6187 0.9839
1.8675 -3.2105 -1.6187 0.9839
2.0928 -3.0684 -1.6187 0.9839
2.2014 -2.9915 -1.6187 0.9839
2.5098 -2.7379 -1.6187 0.9839
2.6063 -2.6461 -1.6187 0.9839
2.6995 -2.5510 -1.6187 0.9839
2.7892 -2.4526 -1.6187 0.9839
2.8753 -2.3511 -1.6187 0.9839
-0.5375 -3.4554 -1.6187 0.9847
-0.2886 -3.4851 -1.6187 0.9847
-0.1635 -3.4932 -1.6187 0.9847
0.0872 -3.4959 -1.6187 0.9847
0.2125 -3.4905 -1.6187 0.9847
0.4619 -3.4663 -1.6187 0.9847
0.5859 -3.4475 -1.6187 0.9847
0.7091 -3.4243 -1.6187 0.9847
0.9526 -3.3647 -1.6187 0.9847
1.4237 -3.1940 -1.6187 0.9847
1.6488 -3.0838 -1.6187 0.9847
1.8656 -2.9578 -1.6187 0.9847
1.9704 -2.8890 -1.6187 0.9847
2.0727 -2.8165 -1.6187 0.9847
2.3630 -2.5778 -1.6187 0.9847
2.5416 -2.4018 -1.6187 0.9847
2.6261 -2.3092 -1.6187 0.9847
2.7847 -2.1151 -1.6187 0.9847
-0.6238 -3.2405 -1.6187 0.9854
-0.3900 -3.2768 -1.6187 0.9854
-0.2723 -3.2887 -1.6187 0.9854
-0.0360 -3.2998 -1.6187 0.9854
0.4359 -3.2710 -1.6187 0.9854
0.5529 -3.2533 -1.6187 0.9854
0.7846 -3.2053 -1.6187 0.9854
1.0122 -3.1409 -1.6187 0.9854
1.4506 -2.9640 -1.6187 0.9854
1.6593 -2.8524 -1.6187 0.9854
1.8594 -2.7262 -1.6187 0.9854
1.9559 -2.6578 -1.6187 0.9854
2.3156 -2.3510 -1.6187 0.9854
2.5546 -2.0889 -1.6187 0.9854
-0.5898 -3.0640 -1.6187 0.9860
-0.3688 -3.0983 -1.6187 0.9860
-0.0341 -3.1200 -1.6187 0.9860
0.3011 -3.1057 -1.6187 0.9860
0.4122 -3.0929 -1.6187 0.9860
0.5228 -3.0761 -1.6187 0.9860
0.7418 -3.0307 -1.6187 0.9860
0.8500 -3.0022 -1.6187 0.9860
1.1673 -2.8936 -1.6187 0.9860
1.2703 -2.8499 -1.6187 0.9860
1.3716 -2.8025 -1.6187 0.9860
1.4712 -2.7516 -1.6187 0.9860
1.5689 -2.6971 -1.6187 0.9860
1.8493 -2.5131 -1.6187 0.9860
2.0246 -2.3741 -1.6187 0.9860
-0.4543 -2.9203 -1.6187 0.9866
-0.3493 -2.9347 -1.6187 0.9866
-0.1382 -2.9522 -1.6187 0.9866
0.1795 -2.9500 -1.6187 0.9866
0.2852 -2.9417 -1.6187 0.9866
0.3904 -2.9296 -1.6187 0.9866
0.4952 -2.9137 -1.6187 0.9866
0.8051 -2.8437 -1.6187 0.9866
0.9065 -2.8130 -1.6187 0.9866
1.0067 -2.7787 -1.6187 0.9866
1.1057 -2.7408 -1.6187 0.9866
1.2992 -2.6545 -1.6187 0.9866
1.3935 -2.6063 -1.6187 0.9866
1.5767 -2.4997 -1.6187 0.9866
1.7517 -2.3804 -1.6187 0.9866
1.8359 -2.3161 -1.6187 0.9866
1.9177 -2.2487 -1.6187 0.9866
2.0739 -2.1056 -1.6187 0.9866
2.3535 -1.7876 -1.6187 0.9866
-0.5300 -2.7531 -1.6187 0.9871
-0.4309 -2.7704 -1.6187 0.9871
-0.3314 -2.7840 -1.6187 0.9871
-0.2314 -2.7941 -1.6187 0.9871
0.0699 -2.8028 -1.6187 0.9871
0.4698 -2.7640 -1.6187 0.9871
0.5685 -2.7454 -1.6187 0.9871
0.6666 -2.7233 -1.6187 0.9871
0.9550 -2.6360 -1.6187 0.9871
1.0489 -2.6001 -1.6187 0.9871
1.1414 -2.5608 -1.6187 0.9871
1.3220 -2.4724 -1.6187 0.9871
1.4957 -2.3714 -1.6187 0.9871
1.7416 -2.1971 -1.6187 0.9871
1.8945 -2.0667 -1.6187 0.9871
1.9674 -1.9975 -1.6187 0.9871
2.0377 -1.9257 -1.6187 0.9871
2.2327 -1.6958 -1.6187 0.9871
