ply
format ascii 1.0
element vertex 462
property float32 x
property float32 y
property float32 z
property float32 I
end_header
2.8541 6.6341 1.2734 0.9711
2.8538 6.6333 1.1062 0.9712
21.9418 38.9273 5.8190 0.8351
2.8534 6.6325 0.9402 0.9713
17.7528 29.0250 0.5747 0.8727
18.1982 32.2859 0.6260 0.8622
2.8518 6.6288 0.1219 0.9715
40.1953 27.1414 -0.2736 0.8237
18.1982 32.2859 -0.2087 0.8622
40.1953 27.1414 -1.3657 0.8236
17.9502 29.3477 -0.9687 0.8714
18.1982 32.2858 -1.0436 0.8622
28.7797 2.7318 -1.4661 0.8907
28.9395 3.7923 -1.4802 0.8897
30.5827 6.2512 -1.5830 0.8825
30.9740 7.4909 -1.6161 0.8802
30.7325 8.6032 -1.6185 0.8800
30.0415 10.7715 -1.6185 0.8800
29.6384 11.8358 -1.6185 0.8800
29.1976 12.8850 -1.6185 0.8800
28.2053 14.9332 -1.6185 0.8800
24.3916 20.5823 -1.6186 0.8800
23.6423 21.4390 -1.6186 0.8800
21.2180 23.8413 -1.6186 0.8800
20.3545 24.5828 -1.6186 0.8800
15.4258 20.0442 -1.2827 0.9037
16.8045 23.5259 -1.4662 0.8907
15.9550 24.1102 -1.4662 0.8907
15.0854 24.6639 -1.4662 0.8907
14.1964 25.1862 -1.4662 0.8907
12.3656 26.1342 -1.4662 0.8907
10.4718 26.9492 -1.4663 0.8907
22.0728 -0.2726 -1.6185 0.9153
22.0684 0.5146 -1.6185 0.9153
22.0361 1.3011 -1.6185 0.9153
21.6274 4.4207 -1.6186 0.9153
21.2574 5.9507 -1.6186 0.9153
20.7794 7.4506 -1.6186 0.9153
20.5006 8.1867 -1.6186 0.9153
20.1956 8.9125 -1.6186 0.9153
18.7236 11.6932 -1.6186 0.9153
18.2948 12.3534 -1.6186 0.9153
17.3681 13.6258 -1.6186 0.9153
16.8712 14.2364 -1.6186 0.9153
16.3529 14.8290 -1.6186 0.9153
15.2547 15.9567 -1.6186 0.9153
12.1961 15.8475 -1.4662 0.9229
11.6233 16.2723 -1.4662 0.9229
10.4341 17.0594 -1.4663 0.9229
9.8193 17.4207 -1.4663 0.9229
6.5738 18.8864 -1.4663 0.9229
5.8963 19.1089 -1.4663 0.9229
16.8581 -0.2082 -1.6186 0.9345
16.8301 0.9937 -1.6186 0.9345
16.7840 1.5931 -1.6186 0.9345
16.6278 2.7852 -1.6186 0.9345
16.5180 3.3763 -1.6186 0.9345
16.3871 3.9631 -1.6186 0.9345
16.2354 4.5449 -1.6186 0.9345
16.0630 5.1209 -1.6186 0.9345
15.6573 6.2526 -1.6186 0.9345
15.1719 7.3525 -1.6186 0.9345
13.9726 9.4349 -1.6186 0.9345
13.6274 9.9271 -1.6186 0.9345
13.2648 10.4067 -1.6186 0.9345
12.8853 10.8730 -1.6186 0.9345
11.6201 12.1549 -1.6144 0.9347
10.1535 11.4088 -1.4662 0.9405
9.7403 11.7636 -1.4663 0.9405
8.8772 12.4279 -1.4663 0.9405
7.9690 13.0289 -1.4663 0.9405
7.4994 13.3049 -1.4663 0.9405
13.6252 -0.1683 -1.6186 0.9466
13.6226 0.3176 -1.6186 0.9466
13.6026 0.8031 -1.6186 0.9466
13.5108 1.7705 -1.6186 0.9466
13.3503 2.7288 -1.6186 0.9466
13.1219 3.6733 -1.6186 0.9466
12.8268 4.5991 -1.6186 0.9466
12.2624 5.9425 -1.6186 0.9466
11.8077 6.8013 -1.6186 0.9466
11.2931 7.6255 -1.6186 0.9466
10.0943 9.1536 -1.6186 0.9466
9.4069 9.8398 -1.6170 0.9466
8.5775 9.6380 -1.5326 0.9494
7.8723 9.5076 -1.4663 0.9515
7.5283 9.7823 -1.4663 0.9515
6.8121 10.2940 -1.4663 0.9515
6.4407 10.5303 -1.4663 0.9515
6.0612 10.7533 -1.4663 0.9515
5.6740 10.9626 -1.4663 0.9515
5.2795 11.1579 -1.4663 0.9515
4.0578 11.6580 -1.4663 0.9515
3.6396 11.7953 -1.4663 0.9515
11.4229 -0.1411 -1.6186 0.9549
11.4207 0.2663 -1.6186 0.9549
11.3727 1.0795 -1.6186 0.9549
11.0009 3.0796 -1.6186 0.9549
10.8841 3.4699 -1.6186 0.9549
10.7535 3.8557 -1.6186 0.9549
10.6092 4.2367 -1.6186 0.9549
10.2803 4.9820 -1.6186 0.9549
10.0962 5.3454 -1.6186 0.9549
9.4677 6.3929 -1.6186 0.9549
9.2337 6.7265 -1.6186 0.9549
8.7309 7.3674 -1.6187 0.9549
8.4627 7.6740 -1.6187 0.9549
7.8943 8.2576 -1.6187 0.9549
7.5813 8.5186 -1.6158 0.9550
7.0259 8.4854 -1.5609 0.9565
5.7110 8.6300 -1.4663 0.9591
5.3997 8.8282 -1.4663 0.9591
4.4261 9.3543 -1.4663 0.9591
2.7967 6.5006 -1.0027 0.9718
3.7482 9.6460 -1.4663 0.9591
3.4019 9.7735 -1.4663 0.9591
9.8228 0.2290 -1.6186 0.9610
9.8084 0.5791 -1.6186 0.9610
9.7815 0.9285 -1.6186 0.9610
9.6264 1.9677 -1.6186 0.9610
9.5502 2.3096 -1.6186 0.9610
9.3613 2.9844 -1.6186 0.9610
9.2490 3.3163 -1.6186 0.9610
9.1248 3.6439 -1.6186 0.9610
8.8420 4.2849 -1.6186 0.9610
8.5142 4.9042 -1.6187 0.9610
8.3339 5.2046 -1.6187 0.9610
7.7305 6.0648 -1.6187 0.9610
7.0387 6.8556 -1.6187 0.9610
6.7898 7.1023 -1.6187 0.9610
6.5322 7.3398 -1.6187 0.9610
6.2596 7.5600 -1.6169 0.9610
5.9662 7.7524 -1.6115 0.9611
5.2900 7.4059 -1.4993 0.9638
4.9119 7.4226 -1.4663 0.9646
4.3705 7.7537 -1.4663 0.9646
4.0912 7.9047 -1.4663 0.9646
3.8068 8.0455 -1.4663 0.9646
2.7875 6.4793 -1.1620 0.9718
3.2238 8.2964 -1.4663 0.9646
8.5658 -0.1058 -1.6101 0.9657
8.6093 0.2008 -1.6186 0.9656
8.5731 0.8138 -1.6186 0.9656
8.2929 2.3215 -1.6187 0.9656
7.7496 3.7556 -1.6187 0.9656
7.6108 4.0295 -1.6187 0.9656
7.1370 4.8192 -1.6187 0.9656
6.9607 5.0706 -1.6187 0.9656
6.7755 5.3156 -1.6187 0.9656
6.1691 6.0087 -1.6187 0.9656
5.9510 6.2248 -1.6187 0.9656
5.2522 6.8247 -1.6187 0.9656
4.9922 6.9890 -1.6144 0.9656
4.6490 7.0253 -1.5834 0.9663
4.1505 6.7859 -1.4951 0.9681
2.7783 6.4580 -1.3214 0.9718
2.3001 7.4543 -1.4663 0.9687
7.6442 0.4513 -1.6187 0.9692
7.5927 0.9950 -1.6187 0.9692
7.5523 1.2650 -1.6187 0.9692
7.2958 2.3259 -1.6187 0.9692
7.2082 2.5846 -1.6187 0.9692
7.1115 2.8399 -1.6187 0.9692
6.6355 3.8221 -1.6187 0.9692
6.1895 4.5088 -1.6187 0.9692
6.0248 4.7267 -1.6187 0.9692
5.8525 4.9385 -1.6187 0.9692
5.4856 5.3430 -1.6187 0.9692
5.2917 5.5352 -1.6187 0.9692
5.0909 5.7204 -1.6187 0.9692
3.9829 6.5118 -1.6135 0.9693
2.9669 6.2703 -1.4663 0.9720
2.7414 6.3721 -1.4663 0.9720
2.2803 6.5513 -1.4663 0.9720
2.0453 6.6284 -1.4663 0.9720
6.8753 0.4059 -1.6187 0.9721
6.8564 0.6508 -1.6187 0.9721
6.7926 1.1378 -1.6187 0.9721
6.7477 1.3793 -1.6187 0.9721
6.6323 1.8566 -1.6187 0.9721
6.3961 2.5542 -1.6187 0.9721
6.3010 2.7807 -1.6187 0.9721
6.1978 3.0036 -1.6187 0.9721
6.0868 3.2226 -1.6187 0.9721
5.9680 3.4376 -1.6187 0.9721
5.8417 3.6482 -1.6187 0.9721
5.4187 4.2512 -1.6187 0.9721
5.2637 4.4417 -1.6187 0.9721
5.1020 4.6265 -1.6187 0.9721
4.9338 4.8055 -1.6187 0.9721
4.7593 4.9784 -1.6187 0.9721
4.5788 5.1449 -1.6187 0.9721
4.3924 5.3049 -1.6187 0.9721
4.0033 5.6045 -1.6187 0.9721
3.5937 5.8755 -1.6187 0.9721
2.5970 6.0364 -1.5444 0.9734
2.0509 5.8922 -1.4663 0.9747
1.8395 5.9616 -1.4663 0.9747
6.2512 -0.0772 -1.6187 0.9745
6.2500 0.1457 -1.6187 0.9745
6.2237 0.5908 -1.6187 0.9745
6.1987 0.8123 -1.6187 0.9745
6.1657 1.0328 -1.6187 0.9745
6.1250 1.2520 -1.6187 0.9745
6.0765 1.4696 -1.6187 0.9745
6.0202 1.6853 -1.6187 0.9745
5.9563 1.8989 -1.6187 0.9745
5.8848 2.1100 -1.6187 0.9745
5.4173 3.1204 -1.6187 0.9745
5.0531 3.6810 -1.6187 0.9745
4.9187 3.8588 -1.6187 0.9745
4.7779 4.0318 -1.6187 0.9745
4.3201 4.5189 -1.6187 0.9745
3.6338 5.0872 -1.6187 0.9745
3.2620 5.3333 -1.6187 0.9745
3.0698 5.4462 -1.6187 0.9745
2.6718 5.6468 -1.6174 0.9745
2.4647 5.7290 -1.6148 0.9746
2.2553 5.8041 -1.6122 0.9746
2.0120 5.7804 -1.5847 0.9750
1.7525 5.6796 -1.5390 0.9757
5.7174 -0.0706 -1.6187 0.9765
5.7162 0.1333 -1.6187 0.9765
5.7079 0.3370 -1.6187 0.9765
5.6922 0.5403 -1.6187 0.9765
5.6693 0.7429 -1.6187 0.9765
5.6020 1.1451 -1.6187 0.9765
5.5576 1.3441 -1.6187 0.9765
5.4477 1.7367 -1.6187 0.9765
5.3823 1.9299 -1.6187 0.9765
5.3101 2.1205 -1.6187 0.9765
5.1455 2.4936 -1.6187 0.9765
5.0533 2.6755 -1.6187 0.9765
4.9547 2.8539 -1.6187 0.9765
4.4987 3.5293 -1.6187 0.9765
4.2357 3.8409 -1.6187 0.9765
4.0960 3.9895 -1.6187 0.9765
3.9512 4.1330 -1.6187 0.9765
3.6466 4.4041 -1.6187 0.9765
3.4873 4.5313 -1.6187 0.9765
3.1555 4.7683 -1.6187 0.9765
2.8076 4.9811 -1.6187 0.9765
2.6283 5.0780 -1.6187 0.9765
2.4455 5.1686 -1.6187 0.9765
2.2597 5.2525 -1.6187 0.9765
2.0707 5.3288 -1.6184 0.9765
1.8767 5.3917 -1.6162 0.9765
1.6810 5.4479 -1.6140 0.9766
5.2612 0.1227 -1.6187 0.9782
5.1152 1.2371 -1.6187 0.9782
5.0678 1.4187 -1.6187 0.9782
4.8873 1.9517 -1.6187 0.9782
4.8147 2.1247 -1.6187 0.9782
4.4637 2.7877 -1.6187 0.9782
4.3615 2.9450 -1.6187 0.9782
4.2537 3.0987 -1.6187 0.9782
3.8985 3.5352 -1.6187 0.9782
3.4987 3.9313 -1.6187 0.9782
3.3563 4.0535 -1.6187 0.9782
3.2097 4.1706 -1.6187 0.9782
2.9043 4.3888 -1.6187 0.9782
2.7460 4.4895 -1.6187 0.9782
2.5842 4.5846 -1.6187 0.9782
1.7300 4.9703 -1.6187 0.9782
1.5517 5.0288 -1.6187 0.9782
4.8283 0.6327 -1.6187 0.9797
4.7331 1.1447 -1.6187 0.9797
4.6395 1.4791 -1.6187 0.9797
4.5223 1.8059 -1.6187 0.9797
4.3036 2.2785 -1.6187 0.9797
3.6073 3.2712 -1.6187 0.9797
3.4884 3.3977 -1.6187 0.9797
3.2374 3.6377 -1.6187 0.9797
3.1056 3.7508 -1.6187 0.9797
2.5408 4.1542 -1.6187 0.9797
2.2384 4.3247 -1.6187 0.9797
2.0828 4.4018 -1.6187 0.9797
1.9245 4.4732 -1.6187 0.9797
1.7637 4.5390 -1.6187 0.9797
1.4358 4.6532 -1.6187 0.9797
4.5261 -0.0559 -1.6187 0.9810
4.5252 0.1055 -1.6187 0.9810
4.5186 0.2668 -1.6187 0.9810
4.5062 0.4277 -1.6187 0.9810
4.4881 0.5881 -1.6187 0.9810
4.4642 0.7478 -1.6187 0.9810
4.3996 1.0640 -1.6187 0.9810
4.3589 1.2202 -1.6187 0.9810
4.3126 1.3748 -1.6187 0.9810
4.2608 1.5277 -1.6187 0.9810
4.2036 1.6787 -1.6187 0.9810
4.1411 1.8275 -1.6187 0.9810
4.0733 1.9740 -1.6187 0.9810
4.0004 2.1180 -1.6187 0.9810
3.9223 2.2593 -1.6187 0.9810
3.7513 2.5330 -1.6187 0.9810
3.5613 2.7939 -1.6187 0.9810
3.2425 3.1583 -1.6187 0.9810
2.4980 3.7748 -1.6187 0.9810
2.3618 3.8615 -1.6187 0.9810
2.0806 4.0200 -1.6187 0.9810
1.9360 4.0916 -1.6187 0.9810
1.7889 4.1580 -1.6187 0.9810
1.6395 4.2192 -1.6187 0.9810
1.4880 4.2749 -1.6187 0.9810
4.2236 -0.0521 -1.6187 0.9821
4.2228 0.0985 -1.6187 0.9821
4.2050 0.3992 -1.6187 0.9821
4.1881 0.5488 -1.6187 0.9821
4.1659 0.6978 -1.6187 0.9821
4.1384 0.8459 -1.6187 0.9821
4.1056 0.9929 -1.6187 0.9821
4.0675 1.1387 -1.6187 0.9821
4.0244 1.2830 -1.6187 0.9821
3.9761 1.4256 -1.6187 0.9821
3.6602 2.1083 -1.6187 0.9821
3.5826 2.2375 -1.6187 0.9821
3.4141 2.4871 -1.6187 0.9821
3.3233 2.6072 -1.6187 0.9821
3.2282 2.7240 -1.6187 0.9821
3.0259 2.9472 -1.6187 0.9821
2.8081 3.1553 -1.6187 0.9821
2.6938 3.2535 -1.6187 0.9821
2.4552 3.4371 -1.6187 0.9821
2.2040 3.6034 -1.6187 0.9821
1.9416 3.7513 -1.6187 0.9821
3.9481 0.2331 -1.6187 0.9831
3.9215 0.5139 -1.6187 0.9831
3.9007 0.6534 -1.6187 0.9831
3.7229 1.3349 -1.6187 0.9831
3.6183 1.5968 -1.6187 0.9831
3.4954 1.8506 -1.6187 0.9831
3.4271 1.9741 -1.6187 0.9831
3.2778 2.2133 -1.6187 0.9831
3.1968 2.3287 -1.6187 0.9831
3.1117 2.4412 -1.6187 0.9831
3.0227 2.5506 -1.6187 0.9831
2.9298 2.6568 -1.6187 0.9831
2.7330 2.8588 -1.6187 0.9831
2.5224 3.0463 -1.6187 0.9831
1.9420 3.4454 -1.6187 0.9831
1.3001 3.7352 -1.6187 0.9831
1.1661 3.7792 -1.6187 0.9831
3.7139 -0.0459 -1.6187 0.9839
3.7131 0.0866 -1.6187 0.9839
3.6975 0.3510 -1.6187 0.9839
3.6827 0.4826 -1.6187 0.9839
3.6389 0.7438 -1.6187 0.9839
3.5767 1.0012 -1.6187 0.9839
3.5387 1.1281 -1.6187 0.9839
3.4493 1.3774 -1.6187 0.9839
3.2825 1.7379 -1.6187 0.9839
3.0021 2.1869 -1.6187 0.9839
2.9222 2.2926 -1.6187 0.9839
2.6607 2.5915 -1.6187 0.9839
2.5666 2.6847 -1.6187 0.9839
2.2652 2.9434 -1.6187 0.9839
2.0497 3.0974 -1.6187 0.9839
1.8237 3.2356 -1.6187 0.9839
1.7072 3.2986 -1.6187 0.9839
1.5886 3.3573 -1.6187 0.9839
1.4678 3.4118 -1.6187 0.9839
1.3453 3.4620 -1.6187 0.9839
3.4909 0.2061 -1.6187 0.9847
3.4813 0.3305 -1.6187 0.9847
3.4261 0.7003 -1.6187 0.9847
3.3318 1.0622 -1.6187 0.9847
3.2917 1.1803 -1.6187 0.9847
3.2476 1.2969 -1.6187 0.9847
3.1469 1.5250 -1.6187 0.9847
3.0302 1.7455 -1.6187 0.9847
2.8981 1.9569 -1.6187 0.9847
2.7513 2.1585 -1.6187 0.9847
2.4165 2.5277 -1.6187 0.9847
2.3248 2.6123 -1.6187 0.9847
2.2302 2.6935 -1.6187 0.9847
2.1328 2.7713 -1.6187 0.9847
2.0326 2.8456 -1.6187 0.9847
1.8247 2.9832 -1.6187 0.9847
1.6074 3.1057 -1.6187 0.9847
1.4956 3.1610 -1.6187 0.9847
1.2666 3.2596 -1.6187 0.9847
1.1496 3.3026 -1.6187 0.9847
3.2997 -0.0407 -1.6187 0.9854
3.2852 0.3118 -1.6187 0.9854
3.2720 0.4288 -1.6187 0.9854
3.2546 0.5452 -1.6187 0.9854
3.2075 0.7757 -1.6187 0.9854
3.1440 1.0023 -1.6187 0.9854
3.1063 1.1138 -1.6187 0.9854
3.0646 1.2238 -1.6187 0.9854
2.9164 1.5441 -1.6187 0.9854
2.8595 1.6471 -1.6187 0.9854
2.5963 2.0369 -1.6187 0.9854
2.5220 2.1281 -1.6187 0.9854
2.4445 2.2167 -1.6187 0.9854
2.3639 2.3025 -1.6187 0.9854
2.0126 2.6152 -1.6187 0.9854
1.9181 2.6853 -1.6187 0.9854
1.8211 2.7520 -1.6187 0.9854
1.7218 2.8151 -1.6187 0.9854
1.6204 2.8747 -1.6187 0.9854
1.3041 3.0313 -1.6187 0.9854
1.1952 3.0759 -1.6187 0.9854
3.1200 -0.0385 -1.6187 0.9860
3.1062 0.2948 -1.6187 0.9860
3.0570 0.6249 -1.6187 0.9860
2.8977 1.1572 -1.6187 0.9860
2.7037 1.5574 -1.6187 0.9860
2.6465 1.6528 -1.6187 0.9860
2.5220 1.8372 -1.6187 0.9860
2.4549 1.9259 -1.6187 0.9860
1.9030 2.4727 -1.6187 0.9860
1.8136 2.5390 -1.6187 0.9860
1.7219 2.6021 -1.6187 0.9860
1.6281 2.6618 -1.6187 0.9860
1.3345 2.8204 -1.6187 0.9860
1.2331 2.8662 -1.6187 0.9860
1.1301 2.9084 -1.6187 0.9860
1.0257 2.9468 -1.6187 0.9860
0.9200 2.9815 -1.6187 0.9860
2.9552 -0.0365 -1.6187 0.9866
2.9422 0.2793 -1.6187 0.9866
2.9148 0.4883 -1.6187 0.9866
2.8726 0.6947 -1.6187 0.9866
2.7820 0.9975 -1.6187 0.9866
2.7447 1.0961 -1.6187 0.9866
2.6596 1.2889 -1.6187 0.9866
2.6119 1.3829 -1.6187 0.9866
2.5067 1.5655 -1.6187 0.9866
2.4493 1.6539 -1.6187 0.9866
2.2587 1.9060 -1.6187 0.9866
2.1893 1.9853 -1.6187 0.9866
2.1171 2.0621 -1.6187 0.9866
2.0423 2.1363 -1.6187 0.9866
1.8848 2.2764 -1.6187 0.9866
1.8025 2.3421 -1.6187 0.9866
1.7179 2.4049 -1.6187 0.9866
1.5421 2.5212 -1.6187 0.9866
1.1680 2.7149 -1.6187 0.9866
0.9715 2.7912 -1.6187 0.9866
0.8714 2.8241 -1.6187 0.9866
2.8035 -0.0346 -1.6187 0.9871
2.8029 0.0654 -1.6187 0.9871
2.7251 0.6590 -1.6187 0.9871
2.6999 0.7558 -1.6187 0.9871
2.6712 0.8516 -1.6187 0.9871
2.6392 0.9463 -1.6187 0.9871
2.4778 1.3119 -1.6187 0.9871
2.4295 1.3994 -1.6187 0.9871
2.3780 1.4851 -1.6187 0.9871
2.3236 1.5690 -1.6187 0.9871
2.2058 1.7306 -1.6187 0.9871
2.0769 1.8833 -1.6187 0.9871
2.0084 1.9562 -1.6187 0.9871
1.7099 2.2219 -1.6187 0.9871
1.6296 2.2814 -1.6187 0.9871
1.5472 2.3381 -1.6187 0.9871
1.2887 2.4899 -1.6187 0.9871
1.1080 2.5755 -1.6187 0.9871
0.9217 2.6479 -1.6187 0.9871
0.8267 2.6791 -1.6187 0.9871
