ply
format ascii 1.0
element vertex 621
property float32 x
property float32 y
property float32 z
property float32 I
end_header
-6.7602 41.0580 7.3371 0.8445
-8.4211 35.1455 6.3725 0.8635
-8.5609 30.7925 5.6355 0.8783
-9.4827 26.5402 4.9695 0.8918
-9.9860 25.0634 4.7572 0.8962
-11.0243 25.0118 4.8196 0.8949
-11.5660 23.8739 4.6776 0.8979
-12.2646 21.2660 4.3287 0.9051
-12.8824 19.0287 4.0519 0.9109
-12.2384 16.7461 3.6573 0.9192
-13.0046 15.3427 3.5464 0.9216
-13.7620 15.0992 3.6023 0.9204
-14.1522 14.4470 3.5660 0.9211
-14.3849 13.6642 3.4984 0.9226
-14.3678 11.8033 3.2787 0.9273
-15.1795 10.7392 3.2787 0.9273
-15.5605 9.4068 3.2061 0.9288
-15.7397 8.7577 3.1760 0.9295
-21.3504 9.9410 4.1527 0.9088
-5.7517 44.9764 6.9462 0.8324
-6.5010 39.4836 6.1301 0.8505
-9.4955 29.9352 4.8111 0.8807
-9.9928 25.0803 4.1359 0.8965
-12.2645 21.2657 3.7607 0.9054
-12.5185 20.0063 3.6154 0.9089
-12.8454 18.9741 3.5102 0.9114
-13.2419 16.8138 3.2787 0.9170
-13.7352 16.2046 3.2542 0.9176
-14.2057 14.5016 3.1099 0.9211
-14.4261 13.7033 3.0481 0.9226
-14.5962 12.8981 2.9840 0.9242
-14.9845 11.4321 2.8873 0.9266
-15.3776 10.0691 2.8159 0.9283
-17.2893 8.8205 2.9734 0.9245
-21.0567 9.8042 3.5583 0.9103
-29.2535 12.3601 4.8651 0.8794
-4.4654 48.8294 6.3851 0.8205
-7.7633 38.4594 5.1092 0.8536
-8.4211 35.1454 4.7062 0.8643
-9.4431 29.7700 4.0670 0.8816
-9.4826 26.5401 3.6701 0.8925
-9.9784 25.0443 3.5106 0.8970
-12.2647 21.2661 3.1968 0.9057
-12.5837 20.1105 3.0892 0.9087
-12.8824 19.0288 2.9924 0.9115
-13.2163 18.0841 2.9168 0.9136
-13.4438 17.0702 2.8295 0.9161
-13.7352 16.2046 2.7662 0.9179
-13.9759 15.3340 2.7017 0.9197
-14.4081 14.7082 2.6812 0.9203
-14.8908 14.1448 2.6745 0.9205
-12.6595 8.9564 2.0194 0.9394
-15.3775 10.0691 2.3936 0.9285
-16.1292 9.7506 2.4543 0.9268
-13.1256 7.3032 1.9560 0.9412
-21.3545 9.9429 3.0674 0.9094
-29.2535 12.3601 4.1355 0.8798
-5.7517 44.9768 4.8690 0.8333
-6.4793 39.3523 4.2826 0.8518
-7.6654 37.9747 4.1600 0.8557
-8.4211 35.1454 3.8808 0.8647
-9.4734 29.8654 3.3645 0.8816
-10.7254 26.9191 3.1116 0.8900
-12.2647 21.2661 2.6361 0.9060
-13.9759 15.3340 2.2279 0.9199
-14.8908 14.1448 2.2054 0.9207
-14.9639 12.2930 2.0795 0.9250
-14.9980 11.4425 2.0257 0.9269
-15.1903 10.7469 1.9981 0.9279
-15.3775 10.0691 1.9738 0.9287
-16.0915 9.7278 2.0191 0.9271
-13.1256 7.3032 1.6129 0.9414
-19.2643 8.9697 2.2819 0.9181
-27.6361 11.6767 3.2216 0.8863
-4.4748 48.9312 4.1594 0.8210
-5.7517 44.9765 3.8384 0.8336
-6.5016 39.4876 3.3877 0.8516
-9.0939 32.7098 2.8740 0.8726
-9.7355 30.6918 2.7257 0.8787
-8.8962 22.3281 2.0346 0.9080
-11.1643 25.3295 2.3433 0.8948
-11.9187 24.6018 2.3141 0.8961
-12.6120 20.1557 2.0127 0.9090
-12.8824 19.0287 1.9453 0.9119
-13.6312 17.3082 1.8650 0.9154
-13.7352 16.2046 1.7982 0.9183
-14.6633 14.9687 1.7738 0.9193
-14.9171 14.1697 1.7417 0.9207
-14.5962 12.8981 1.6489 0.9248
-14.9893 12.3139 1.6422 0.9251
-14.9829 11.4309 1.5953 0.9271
-15.1902 10.7468 1.5752 0.9280
-15.3775 10.0691 1.5560 0.9289
-13.1256 7.3032 1.2715 0.9415
-27.6361 11.6767 2.5397 0.8865
-4.5438 49.6860 3.0939 0.8188
-5.7518 44.9773 2.8118 0.8338
-6.8193 41.4169 2.6029 0.8452
-8.4213 35.1460 2.2411 0.8652
-9.0939 32.7098 2.1053 0.8728
-9.7355 30.6918 1.9967 0.8789
-10.7518 26.9855 1.8013 0.8901
-11.1643 25.3294 1.7165 0.8950
-11.9187 24.6018 1.6952 0.8962
-9.8998 18.6890 1.3115 0.9187
-12.4120 21.5215 1.5406 0.9052
-12.6120 20.1557 1.4744 0.9091
-13.2163 18.0841 1.3890 0.9141
-13.6542 17.3374 1.3685 0.9154
-13.7352 16.2046 1.3173 0.9184
-14.6633 14.9687 1.2993 0.9195
-14.5962 12.8981 1.2079 0.9249
-14.9893 12.3139 1.2029 0.9252
-14.9980 11.4425 1.1698 0.9272
-15.3775 10.0691 1.1398 0.9290
-12.7395 7.7014 0.9231 0.9421
-15.7039 8.0117 1.0932 0.9318
-19.2391 8.9579 1.3160 0.9185
-4.5437 49.6855 1.9673 0.8190
-5.7518 44.9773 1.7880 0.8340
-6.8156 41.3943 1.6542 0.8454
-8.4213 35.1460 1.4251 0.8653
-9.0939 32.7097 1.3387 0.8729
-9.7355 30.6918 1.2696 0.8791
-10.5018 29.3924 1.2307 0.8825
-10.7441 26.9661 1.1446 0.8903
-9.7484 18.4031 0.8212 0.9200
-10.0906 17.4965 0.7964 0.9223
-11.0569 14.0395 0.7047 0.9310
-11.1991 13.2127 0.6830 0.9330
-11.4650 12.5791 0.6711 0.9341
-11.8379 11.2449 0.6438 0.9367
-12.0137 10.6161 0.6322 0.9378
-12.5076 8.8489 0.6041 0.9405
-12.6633 8.2919 0.5968 0.9412
-12.8911 7.1727 0.5817 0.9427
-14.6200 7.4588 0.6472 0.9364
-18.0575 8.4078 0.7854 0.9234
-25.3146 10.6958 1.0836 0.8958
-10.6485 4.0541 0.4493 0.9554
-5.5535 33.7296 0.5774 0.8722
-7.4705 26.8708 0.4711 0.8944
-7.9638 25.1062 0.4449 0.9000
-8.4055 23.5255 0.4220 0.9049
-8.8045 22.0981 0.4018 0.9092
-9.1675 20.7992 0.3840 0.9131
-9.5001 19.6095 0.3681 0.9165
-9.7484 18.4031 0.3518 0.9201
-10.6033 15.6623 0.3195 0.9271
-10.8365 14.8279 0.3102 0.9292
-11.0569 14.0395 0.3019 0.9310
-11.1991 13.2127 0.2926 0.9331
-11.4650 12.5791 0.2875 0.9342
-11.6554 11.8981 0.2813 0.9355
-12.1834 10.0088 0.2663 0.9389
-12.5076 8.8489 0.2588 0.9405
-12.6633 8.2919 0.2557 0.9412
-12.8911 7.1727 0.2492 0.9427
-14.6200 7.4588 0.2772 0.9364
-18.0575 8.4078 0.3365 0.9234
-10.6413 4.0513 0.1925 0.9555
-5.7518 44.9773 -0.2553 0.8341
-5.5535 33.7296 -0.1925 0.8722
-6.2822 31.1224 -0.1788 0.8807
-6.9148 28.8590 -0.1671 0.8881
-7.4705 26.8708 -0.1570 0.8944
-7.9637 25.1062 -0.1483 0.9000
-8.4055 23.5255 -0.1407 0.9049
-9.5001 19.6095 -0.1227 0.9165
-9.7484 18.4031 -0.1173 0.9201
-10.0906 17.4964 -0.1137 0.9224
-10.3554 16.5493 -0.1099 0.9249
-10.6033 15.6623 -0.1065 0.9271
-11.0569 14.0395 -0.1006 0.9310
-11.1991 13.2127 -0.0975 0.9331
-11.4650 12.5791 -0.0958 0.9342
-12.0137 10.6161 -0.0903 0.9379
-12.1834 10.0088 -0.0888 0.9389
-12.6633 8.2919 -0.0852 0.9412
-12.7395 7.7014 -0.0838 0.9422
-14.6200 7.4588 -0.0924 0.9365
-23.3717 9.8749 -0.1429 0.9035
-10.6341 4.0485 -0.0638 0.9555
-6.2822 31.1223 -0.8940 0.8807
-7.4705 26.8708 -0.7853 0.8944
-7.9637 25.1062 -0.7417 0.9000
-8.4055 23.5255 -0.7034 0.9049
-9.5000 19.6095 -0.6135 0.9165
-9.7484 18.4031 -0.5864 0.9200
-10.3554 16.5493 -0.5497 0.9249
-10.6033 15.6623 -0.5326 0.9271
-11.0569 14.0395 -0.5032 0.9310
-11.6554 11.8981 -0.4690 0.9355
-11.8379 11.2449 -0.4597 0.9368
-12.0137 10.6161 -0.4514 0.9379
-12.1834 10.0088 -0.4440 0.9389
-12.3478 9.4206 -0.4373 0.9397
-12.5076 8.8490 -0.4314 0.9405
-12.6633 8.2919 -0.4262 0.9412
-12.8911 7.1727 -0.4154 0.9427
-14.6200 7.4588 -0.4621 0.9364
-23.3717 9.8749 -0.7144 0.9035
-2.6332 28.7940 -1.4664 0.8906
-3.6677 28.6808 -1.4664 0.8906
-4.6975 28.5304 -1.4664 0.8906
-5.7215 28.3431 -1.4664 0.8906
-6.7375 28.1189 -1.4664 0.8906
-10.0906 17.4964 -1.0243 0.9223
-11.4650 12.5791 -0.8632 0.9341
-11.8379 11.2449 -0.8280 0.9367
-12.0137 10.6161 -0.8131 0.9378
-12.1834 10.0088 -0.7996 0.9388
-12.3478 9.4206 -0.7876 0.9397
-12.5076 8.8489 -0.7770 0.9405
-12.6633 8.2919 -0.7676 0.9412
-18.0575 8.4078 -1.0102 0.9233
-10.6256 4.0453 -0.5766 0.9555
-27.3778 9.3096 -1.4665 0.8906
-1.8213 19.9155 -1.4663 0.9229
-4.6600 19.4484 -1.4664 0.9229
-5.3569 19.2682 -1.4664 0.9229
-6.7290 18.8331 -1.4664 0.9229
-8.0662 18.3005 -1.4664 0.9229
-9.3617 17.6730 -1.4664 0.9229
-10.3554 16.5493 -1.4314 0.9247
-10.6033 15.6623 -1.3868 0.9269
-11.4650 12.5791 -1.2479 0.9340
-12.3478 9.4206 -1.1388 0.9396
-12.5076 8.8489 -1.1234 0.9404
-12.6633 8.2919 -1.1098 0.9411
-12.8911 7.1727 -1.0817 0.9425
-14.6200 7.4588 -1.2034 0.9363
-19.1549 5.7532 -1.4665 0.9229
-1.3910 15.2101 -1.4663 0.9405
-1.9374 15.1502 -1.4663 0.9405
-2.4814 15.0707 -1.4663 0.9405
-3.0221 14.9717 -1.4663 0.9405
-3.5590 14.8533 -1.4664 0.9405
-4.0912 14.7156 -1.4664 0.9405
-6.6593 13.7458 -1.4664 0.9405
-7.1497 13.4973 -1.4664 0.9405
-7.6308 13.2313 -1.4664 0.9405
-8.1020 12.9481 -1.4664 0.9405
-9.0124 12.3319 -1.4664 0.9405
-10.6886 10.9113 -1.4664 0.9405
-11.0744 10.5195 -1.4664 0.9405
-12.6633 8.2919 -1.4532 0.9410
-13.8470 6.4473 -1.4664 0.9405
-14.0701 5.9448 -1.4664 0.9405
-10.5209 4.0055 -1.0808 0.9558
-14.4612 4.9174 -1.4664 0.9405
-14.6289 4.3938 -1.4664 0.9405
-1.1242 12.2930 -1.4663 0.9515
-2.0055 12.1804 -1.4663 0.9515
-2.4424 12.1003 -1.4663 0.9515
-2.8764 12.0046 -1.4663 0.9515
-3.7324 11.7667 -1.4664 0.9515
-4.5691 11.4678 -1.4664 0.9515
-4.9789 11.2960 -1.4664 0.9515
-5.3821 11.1095 -1.4664 0.9515
-7.6379 9.6982 -1.4664 0.9515
-7.9819 9.4170 -1.4664 0.9515
-8.3157 9.1237 -1.4664 0.9515
-8.6387 8.8186 -1.4664 0.9515
-9.8146 7.4879 -1.4664 0.9515
-10.0777 7.1298 -1.4664 0.9515
-10.5645 6.3865 -1.4664 0.9515
-10.9965 5.6101 -1.4664 0.9515
-11.1912 5.2108 -1.4664 0.9515
-11.3715 4.8047 -1.4664 0.9515
-10.4936 3.9951 -1.3338 0.9558
-11.6877 3.9743 -1.4664 0.9515
-2.0710 0.6220 -0.2569 0.9913
-1.3127 10.2653 -1.4663 0.9591
-2.4114 10.0641 -1.4663 0.9591
-2.7721 9.9708 -1.4663 0.9591
-3.1291 9.8646 -1.4663 0.9591
-3.8305 9.6140 -1.4663 0.9591
-4.1740 9.4700 -1.4664 0.9591
-4.8444 9.1453 -1.4664 0.9591
-5.1704 8.9650 -1.4664 0.9591
-6.1064 8.3556 -1.4664 0.9591
-6.4032 8.1305 -1.4664 0.9591
-6.6916 7.8948 -1.4664 0.9591
-6.9714 7.6489 -1.4664 0.9591
-7.2422 7.3930 -1.4664 0.9591
-7.7552 6.8530 -1.4664 0.9591
-8.8567 5.3541 -1.4664 0.9591
-9.0436 5.0319 -1.4664 0.9591
-9.6721 3.6823 -1.4664 0.9591
-1.9758 0.6718 -0.2957 0.9916
-1.9623 0.5894 -0.2903 0.9918
-0.8106 8.8639 -1.4663 0.9646
-2.0740 8.6560 -1.4663 0.9646
-2.3842 8.5757 -1.4663 0.9646
-2.6913 8.4844 -1.4663 0.9646
-2.9948 8.3820 -1.4663 0.9646
-3.2945 8.2688 -1.4663 0.9646
-3.5900 8.1450 -1.4663 0.9646
-3.8808 8.0105 -1.4663 0.9646
-4.1665 7.8656 -1.4664 0.9646
-4.7215 7.5456 -1.4664 0.9646
-5.7554 6.7901 -1.4664 0.9646
-5.9960 6.5786 -1.4664 0.9646
-6.2288 6.3586 -1.4664 0.9646
-6.4536 6.1303 -1.4664 0.9646
-7.0767 5.3991 -1.4664 0.9646
-7.4468 4.8761 -1.4664 0.9646
-7.6174 4.6050 -1.4664 0.9646
-7.9289 4.0452 -1.4664 0.9646
-8.3187 3.1671 -1.4664 0.9646
-1.8748 0.6375 -0.3262 0.9920
-0.9896 7.7382 -1.4663 0.9687
-1.5436 7.6470 -1.4663 0.9687
-3.1465 7.1386 -1.4663 0.9687
-3.6518 6.8939 -1.4663 0.9687
-4.1382 6.6134 -1.4663 0.9687
-4.6032 6.2986 -1.4664 0.9687
-4.8268 6.1289 -1.4664 0.9687
-5.0443 5.9512 -1.4664 0.9687
-5.4593 5.5730 -1.4664 0.9687
-5.8460 5.1659 -1.4664 0.9687
-6.2024 4.7320 -1.4664 0.9687
-7.4660 3.1545 -1.5234 0.9676
-1.7915 0.6821 -0.3603 0.9922
-1.7764 0.5336 -0.3486 0.9925
-0.8799 6.8809 -1.4663 0.9720
-1.1270 6.8448 -1.4663 0.9720
-1.3726 6.7998 -1.4663 0.9720
-1.6164 6.7460 -1.4663 0.9720
-2.0974 6.6123 -1.4663 0.9720
-2.3340 6.5325 -1.4663 0.9720
-2.7978 6.3477 -1.4663 0.9720
-3.2472 6.1301 -1.4663 0.9720
-3.6797 5.8807 -1.4663 0.9720
-3.8889 5.7444 -1.4663 0.9720
-4.0931 5.6007 -1.4663 0.9720
-4.2921 5.4498 -1.4663 0.9720
-4.8544 4.9555 -1.4664 0.9720
-5.1983 4.5935 -1.4664 0.9720
-5.3602 4.4035 -1.4664 0.9720
-5.5152 4.2077 -1.4664 0.9720
-5.6631 4.0065 -1.4664 0.9720
-5.8036 3.8002 -1.4664 0.9720
-6.0930 3.3902 -1.4739 0.9719
-6.4808 3.3063 -1.5379 0.9707
-1.6973 0.5098 -0.3746 0.9928
-0.5682 6.2131 -1.4663 0.9747
-1.2345 6.1157 -1.4663 0.9747
-1.6712 6.0111 -1.4663 0.9747
-1.8864 5.9471 -1.4663 0.9747
-2.5164 5.7092 -1.4663 0.9747
-2.7202 5.6149 -1.4663 0.9747
-2.9205 5.5134 -1.4663 0.9747
-3.1170 5.4047 -1.4663 0.9747
-3.3095 5.2890 -1.4663 0.9747
-3.8603 4.9016 -1.4663 0.9747
-4.0342 4.7595 -1.4663 0.9747
-4.2028 4.6112 -1.4663 0.9747
-4.3661 4.4570 -1.4663 0.9747
-4.5236 4.2970 -1.4663 0.9747
-4.6753 4.1314 -1.4663 0.9747
-4.8210 3.9605 -1.4664 0.9747
-4.9604 3.7844 -1.4664 0.9747
-5.0934 3.6035 -1.4664 0.9747
-5.7000 3.4458 -1.5654 0.9730
-5.9934 3.3348 -1.6119 0.9722
-6.1213 3.1230 -1.6151 0.9722
-6.2423 2.9065 -1.6183 0.9721
-1.6330 0.6900 -0.4166 0.9927
-1.6309 0.6209 -0.4101 0.9929
-1.5170 5.4564 -1.4663 0.9769
-1.9055 5.3331 -1.4663 0.9769
-2.0962 5.2611 -1.4663 0.9769
-2.2841 5.1823 -1.4663 0.9769
-2.4692 5.0967 -1.4663 0.9769
-2.8294 4.9059 -1.4663 0.9769
-3.1749 4.6897 -1.4663 0.9769
-3.6618 4.3202 -1.4663 0.9769
-4.5117 3.7064 -1.5118 0.9762
-5.0465 3.5703 -1.6006 0.9748
-5.2122 3.4129 -1.6131 0.9746
-5.3403 3.2284 -1.6157 0.9745
-1.5726 0.7322 -0.4491 0.9929
-1.5693 0.6630 -0.4411 0.9930
-1.5653 0.5959 -0.4337 0.9931
-1.5606 0.5307 -0.4268 0.9932
-1.5565 0.4675 -0.4208 0.9933
-0.4717 5.1581 -1.4663 0.9787
-0.8415 5.1108 -1.4663 0.9787
-1.0249 5.0773 -1.4663 0.9787
-1.2069 5.0371 -1.4663 0.9787
-1.3874 4.9904 -1.4663 0.9787
-1.5661 4.9372 -1.4663 0.9787
-2.2583 4.6615 -1.4663 0.9787
-2.4246 4.5772 -1.4663 0.9787
-3.2048 4.0693 -1.4663 0.9787
-3.5808 3.9288 -1.5049 0.9781
-4.0092 3.8084 -1.5654 0.9773
-4.5350 3.4599 -1.6148 0.9766
-1.6602 1.0037 -0.5492 0.9920
-1.5102 0.6381 -0.4641 0.9932
-1.5037 0.5113 -0.4496 0.9934
-1.4993 0.4503 -0.4432 0.9935
-0.6146 4.8062 -1.4903 0.9799
-0.7822 4.7509 -1.4810 0.9801
-1.4418 4.5452 -1.4666 0.9802
-1.6058 4.4945 -1.4680 0.9802
-1.9346 4.3892 -1.4753 0.9801
-2.1014 4.3376 -1.4825 0.9800
-2.2699 4.2852 -1.4915 0.9799
-2.4406 4.2318 -1.5026 0.9798
-2.6150 4.1791 -1.5163 0.9796
-3.3630 3.9676 -1.5997 0.9785
-3.5302 3.8733 -1.6119 0.9783
-3.8068 3.6161 -1.6149 0.9783
-3.9387 3.4805 -1.6167 0.9782
-4.1842 3.1922 -1.6187 0.9782
-4.2963 3.0396 -1.6187 0.9782
-1.4989 0.9061 -0.5387 0.9927
-1.4561 0.7429 -0.5028 0.9932
-1.4528 0.5531 -0.4781 0.9935
-0.4415 4.8273 -1.6113 0.9798
-0.6119 4.7850 -1.6035 0.9799
-0.7788 4.7301 -1.5935 0.9800
-1.1072 4.6209 -1.5795 0.9802
-1.4338 4.5202 -1.5763 0.9802
-1.5973 4.4707 -1.5781 0.9802
-3.1439 3.7092 -1.6163 0.9797
-3.7629 3.0912 -1.6187 0.9797
-4.0741 2.6677 -1.6187 0.9797
-1.6170 0.8997 -0.6151 0.9922
-1.4025 0.5926 -0.5061 0.9936
-1.3997 0.4759 -0.4914 0.9938
-0.4117 4.5021 -1.6167 0.9810
-0.5733 4.4828 -1.6161 0.9810
-0.7340 4.4579 -1.6157 0.9810
-0.8937 4.4276 -1.6153 0.9810
-1.0523 4.3918 -1.6150 0.9810
-1.3653 4.3043 -1.6148 0.9810
-1.5194 4.2526 -1.6149 0.9810
-1.6717 4.1957 -1.6151 0.9810
-1.9699 4.0662 -1.6158 0.9810
-2.6709 3.6546 -1.6187 0.9810
-2.8007 3.5561 -1.6187 0.9810
-2.9268 3.4531 -1.6187 0.9810
-3.1676 3.2336 -1.6187 0.9810
-3.2819 3.1175 -1.6187 0.9810
-3.4977 2.8734 -1.6187 0.9810
-3.5988 2.7456 -1.6187 0.9810
-3.6953 2.6144 -1.6187 0.9810
-1.4989 0.9061 -0.6264 0.9926
-1.3487 0.7504 -0.5519 0.9935
-1.3512 0.6893 -0.5424 0.9936
-1.3532 0.5717 -0.5253 0.9938
-1.3508 0.4057 -0.5044 0.9940
-0.6862 4.1679 -1.6187 0.9821
-0.8358 4.1405 -1.6187 0.9821
-0.9843 4.1078 -1.6187 0.9821
-1.1314 4.0697 -1.6187 0.9821
-1.2772 4.0263 -1.6187 0.9821
-1.9773 3.7327 -1.6187 0.9821
-2.3680 3.4979 -1.6187 0.9821
-2.6135 3.3185 -1.6187 0.9821
-2.7312 3.2223 -1.6187 0.9821
-2.8454 3.1219 -1.6187 0.9821
-3.0626 2.9092 -1.6187 0.9821
-3.2639 2.6814 -1.6187 0.9821
-3.3583 2.5622 -1.6187 0.9821
-3.4483 2.4396 -1.6187 0.9821
-1.4465 0.8745 -0.6478 0.9928
-1.3075 0.4978 -0.5361 0.9940
-1.3074 0.4446 -0.5292 0.9941
-1.3064 0.3924 -0.5227 0.9942
-0.3602 3.9387 -1.6187 0.9831
-0.5017 3.9231 -1.6187 0.9831
-1.3308 3.7245 -1.6187 0.9831
-1.4639 3.6742 -1.6187 0.9831
-1.8514 3.4950 -1.6187 0.9831
-1.9759 3.4262 -1.6187 0.9831
-2.0980 3.3528 -1.6187 0.9831
-2.4471 3.1072 -1.6187 0.9831
-2.5573 3.0171 -1.6187 0.9831
-2.6642 2.9232 -1.6187 0.9831
-2.7677 2.8254 -1.6187 0.9831
-2.8676 2.7239 -1.6187 0.9831
-2.9638 2.6190 -1.6187 0.9831
-3.0561 2.5106 -1.6187 0.9831
-3.1445 2.3990 -1.6187 0.9831
-1.2489 0.7550 -0.5973 0.9937
-1.2575 0.6416 -0.5778 0.9939
-1.2629 0.5336 -0.5611 0.9941
-1.2642 0.4813 -0.5536 0.9942
-0.3382 3.6988 -1.6187 0.9839
-0.4711 3.6842 -1.6187 0.9839
-0.7349 3.6408 -1.6187 0.9839
-0.8655 3.6120 -1.6187 0.9839
-1.6194 3.3426 -1.6187 0.9839
-1.8556 3.2175 -1.6187 0.9839
-1.9702 3.1486 -1.6187 0.9839
-2.0822 3.0757 -1.6187 0.9839
-2.2981 2.9180 -1.6187 0.9839
-2.5020 2.7451 -1.6187 0.9839
-2.5992 2.6533 -1.6187 0.9839
-2.6930 2.5581 -1.6187 0.9839
-2.7833 2.4595 -1.6187 0.9839
-3.0321 2.1452 -1.6187 0.9839
-1.2046 0.7282 -0.6134 0.9939
-1.2184 0.5673 -0.5857 0.9942
-1.2229 0.4656 -0.5703 0.9943
-0.3185 3.4825 -1.6187 0.9847
-0.5681 3.4506 -1.6187 0.9847
-0.8149 3.4008 -1.6187 0.9847
-1.1766 3.2931 -1.6187 0.9847
-1.2944 3.2487 -1.6187 0.9847
-1.4104 3.2000 -1.6187 0.9847
-1.5247 3.1472 -1.6187 0.9847
-2.0634 2.8234 -1.6187 0.9847
-2.1637 2.7473 -1.6187 0.9847
-2.2611 2.6677 -1.6187 0.9847
-2.3557 2.5846 -1.6187 0.9847
-2.4472 2.4981 -1.6187 0.9847
-2.5355 2.4085 -1.6187 0.9847
-2.6205 2.3157 -1.6187 0.9847
-2.7803 2.1212 -1.6187 0.9847
-2.8548 2.0197 -1.6187 0.9847
-1.1626 0.7028 -0.6289 0.9940
-1.1688 0.6503 -0.6191 0.9941
-1.1740 0.5989 -0.6100 0.9942
-1.1781 0.5485 -0.6015 0.9943
-1.1849 0.4029 -0.5793 0.9945
-1.1884 0.3569 -0.5744 0.9945
-0.5361 3.2561 -1.6187 0.9854
-0.6530 3.2347 -1.6187 0.9854
-0.7689 3.2092 -1.6187 0.9854
-1.1103 3.1076 -1.6187 0.9854
-1.2214 3.0656 -1.6187 0.9854
-1.3310 3.0197 -1.6187 0.9854
-1.4388 2.9698 -1.6187 0.9854
-1.5447 2.9161 -1.6187 0.9854
-1.6487 2.8587 -1.6187 0.9854
-1.8500 2.7327 -1.6187 0.9854
-2.0418 2.5925 -1.6187 0.9854
-2.1337 2.5174 -1.6187 0.9854
-2.3093 2.3574 -1.6187 0.9854
-2.3926 2.2727 -1.6187 0.9854
-2.5499 2.0948 -1.6187 0.9854
-2.6236 2.0017 -1.6187 0.9854
-1.1152 0.7890 -0.6701 0.9939
-1.1230 0.6789 -0.6437 0.9942
-1.1351 0.5791 -0.6251 0.9943
-1.1396 0.5306 -0.6166 0.9944
-1.1432 0.4830 -0.6088 0.9945
-1.1458 0.4362 -0.6014 0.9946
-1.1477 0.3903 -0.5946 0.9946
-0.2842 3.1073 -1.6187 0.9860
-0.6174 3.0586 -1.6187 0.9860
-0.7271 3.0344 -1.6187 0.9860
-0.8358 3.0062 -1.6187 0.9860
-0.9434 2.9742 -1.6187 0.9860
-1.1549 2.8987 -1.6187 0.9860
-1.2585 2.8552 -1.6187 0.9860
-1.3604 2.8081 -1.6187 0.9860
-1.4606 2.7573 -1.6187 0.9860
-1.5588 2.7029 -1.6187 0.9860
-1.6551 2.6451 -1.6187 0.9860
-1.7492 2.5838 -1.6187 0.9860
-1.8411 2.5192 -1.6187 0.9860
-2.0175 2.3803 -1.6187 0.9860
-2.1835 2.2290 -1.6187 0.9860
-2.2623 2.1490 -1.6187 0.9860
-2.3382 2.0662 -1.6187 0.9860
-1.0852 0.6560 -0.6578 0.9943
-1.0921 0.6076 -0.6483 0.9944
-1.1067 0.4676 -0.6233 0.9946
-1.1130 0.3784 -0.6098 0.9947
-1.1177 0.3357 -0.6054 0.9948
-0.4801 2.9162 -1.6187 0.9866
-0.6887 2.8741 -1.6187 0.9866
-0.7917 2.8475 -1.6187 0.9866
-0.9944 2.7832 -1.6187 0.9866
-1.0939 2.7456 -1.6187 0.9866
-1.3834 2.6117 -1.6187 0.9866
-1.5677 2.5054 -1.6187 0.9866
-1.6569 2.4474 -1.6187 0.9866
-1.8286 2.3219 -1.6187 0.9866
-1.9110 2.2546 -1.6187 0.9866
-1.9909 2.1843 -1.6187 0.9866
-2.0682 2.1113 -1.6187 0.9866
-2.2147 1.9570 -1.6187 0.9866
-0.9850 0.7515 -0.6785 0.9944
-1.0248 0.6710 -0.6709 0.9944
-1.0623 0.5420 -0.6532 0.9946
-1.0675 0.4970 -0.6449 0.9946
-1.0795 0.3671 -0.6245 0.9948
-1.0843 0.3257 -0.6201 0.9949
-0.2553 2.7921 -1.6187 0.9871
-0.3556 2.7811 -1.6187 0.9871
-0.4555 2.7665 -1.6187 0.9871
-0.5547 2.7483 -1.6187 0.9871
-0.6533 2.7265 -1.6187 0.9871
-0.8477 2.6725 -1.6187 0.9871
-0.9433 2.6402 -1.6187 0.9871
-1.1308 2.5656 -1.6187 0.9871
-1.2224 2.5232 -1.6187 0.9871
-1.3124 2.4776 -1.6187 0.9871
-1.4007 2.4288 -1.6187 0.9871
-1.5718 2.3217 -1.6187 0.9871
-1.6543 2.2636 -1.6187 0.9871
-1.7347 2.2026 -1.6187 0.9871
-1.8128 2.1388 -1.6187 0.9871
-0.9196 0.8736 -0.7323 0.9942
-0.9288 0.8208 -0.7156 0.9943
-0.9397 0.7169 -0.6824 0.9946
-0.9782 0.6405 -0.6751 0.9946
-0.9955 0.6018 -0.6716 0.9946
-1.0114 0.5628 -0.6683 0.9947
-1.0336 0.4812 -0.6583 0.9947
-1.0381 0.4386 -0.6506 0.9948
-1.0472 0.3561 -0.6386 0.9949
-1.0493 0.3152 -0.6325 0.9950
